<?xml version="1.0" encoding="UTF-8" standalone="no"?>
<svg width="51px" height="48px" viewBox="0 0 51 48" version="1.1" xmlns="http://www.w3.org/2000/svg" xmlns:xlink="http://www.w3.org/1999/xlink">
    <!-- Generator: Sketch 50.2 (55047) - http://www.bohemiancoding.com/sketch -->
    <title>Shape</title>
    <desc>Created with Sketch.</desc>
    <defs></defs>
    <g id="Home" stroke="none" stroke-width="1" fill="none" fill-rule="evenodd">
        <g transform="translate(-965.000000, -2366.000000)" fill="#FFFFFF" fill-rule="nonzero" id="Sponsors">
            <g transform="translate(-4.000000, 2169.000000)">
                <g id="D23-Copy-2" transform="translate(745.000000, 184.000000)">
                    <g id="Sponsor-Type" transform="translate(212.000000, 0.000000)">
                        <g id="np_star_750828_000000" transform="translate(12.000000, 13.909091)">
                            <path d="M39.9729886,46.3387159 C40.4755647,46.2979669 40.9374102,46.0489432 41.2407443,45.6550261 C41.5441016,45.2611149 41.6572926,44.7607875 41.5554201,44.2808659 L38.4403633,29.5383886 L49.8661019,19.3893886 L49.8661019,19.3871249 C50.3777305,18.934355 50.5701337,18.2302942 50.3573594,17.5896067 C50.1422959,16.9511795 49.5650049,16.4916579 48.8767947,16.4146943 L33.498556,14.7349397 L27.1079083,1.0298488 C26.8249278,0.41408175 26.1955878,0.0201647045 25.5005969,0.0201647045 C24.805606,0.0201647045 24.1762197,0.414075955 23.8932856,1.0298488 L17.5026378,14.7349397 L2.1243992,16.4146943 C1.43618898,16.4916637 0.85890375,16.9512258 0.643834432,17.5896067 C0.431031136,18.2302942 0.623459932,18.9343261 1.13509193,19.3871249 L12.5608306,29.5361249 L9.44577375,44.2786022 L9.44577375,44.2808659 C9.30767966,44.9396352 9.57707557,45.6165443 10.1362442,46.0127216 C10.6954128,46.4066328 11.4424817,46.4473807 12.0446874,46.1145941 L25.5011533,38.6825032 L38.9576192,46.1145941 C39.2655027,46.2866495 39.620909,46.3658792 39.974084,46.3387159 L39.9729886,46.3387159 Z M37.3152511,41.2676932 L26.3716943,35.2166591 C25.8306365,34.9178339 25.1696011,34.9178339 24.6285375,35.2166591 L13.6849807,41.2676932 L16.2159716,29.274 C16.3404811,28.6808932 16.1344759,28.0673864 15.6749137,27.65985 L6.37262966,19.4036455 L18.8896524,18.0362659 L18.8896524,18.0385296 C19.5099399,17.9706127 20.0464831,17.592552 20.3045547,17.0424069 L25.5000637,5.8977478 L30.6955728,17.0424069 C30.9536502,17.592523 31.4901876,17.9706069 32.1104751,18.0385296 L44.6274978,19.4059092 L35.3252137,27.6621137 L35.3252137,27.6598494 C34.8656516,28.0673452 34.6596637,28.6808346 34.7841559,29.2739994 L37.3152511,41.2676932 Z" id="Shape"></path>
                        </g>
                    </g>
                </g>
            </g>
        </g>
    </g>
</svg>