<?xml version="1.0" encoding="UTF-8" standalone="no"?>
<svg width="57px" height="47px" viewBox="0 0 57 47" version="1.1" xmlns="http://www.w3.org/2000/svg" xmlns:xlink="http://www.w3.org/1999/xlink">
    <!-- Generator: Sketch 50.2 (55047) - http://www.bohemiancoding.com/sketch -->
    <title>Shape</title>
    <desc>Created with Sketch.</desc>
    <defs></defs>
    <g id="Home" stroke="none" stroke-width="1" fill="none" fill-rule="evenodd">
        <g transform="translate(-300.000000, -2370.000000)" fill="#FFFFFF" fill-rule="nonzero" id="Sponsors">
            <g transform="translate(-4.000000, 2169.000000)">
                <g id="D23" transform="translate(83.000000, 184.000000)">
                    <g id="Sponsor-Type" transform="translate(212.000000, 0.000000)">
                        <path d="M54.191043,17.0012126 C54.1386385,17.0044884 54.086234,17.0143133 54.0338295,17.0274141 L20.7565525,17.0274141 C20.713974,17.0241391 20.6681188,17.0241391 20.6255412,17.0274141 C20.12115,17.0601665 19.6593699,17.3189096 19.3678332,17.7348561 L9.30616908,31.9885022 C8.85418236,32.6304361 8.90658686,33.5016525 9.43718033,34.0846266 L36.0066814,63.1419419 C36.2719823,63.6168482 36.7534413,63.9345368 37.2939036,63.9902015 C37.8376024,64.0491546 38.3715078,63.8395405 38.7317154,63.4301422 L65.5628197,34.0844002 C66.0934131,33.5014177 66.1458176,32.630193 65.6938309,31.9882758 L55.6321668,17.7346297 C55.3079129,17.2564534 54.7641806,16.9813329 54.1910011,17.0009862 L54.191043,17.0012126 Z M23.0887623,20.3811713 L33.9629058,20.3811713 L26.3642532,29.6041187 L23.0887623,20.3811713 Z M41.0370942,20.3811713 L51.9112377,20.3811713 L48.6359983,29.6041187 L41.0370942,20.3811713 Z M37.4997485,21.2982676 L45.7010109,31.2808506 L29.2988214,31.2808506 L37.4997485,21.2982676 Z M20.2322559,22.2939267 L23.4026863,31.2812698 L13.8910598,31.2812698 L20.2322559,22.2939267 Z M54.767241,22.2939267 L61.1081856,31.2812698 L51.5965591,31.2812698 L54.767241,22.2939267 Z M14.4945919,34.6350689 L24.6350724,34.6350689 L32.548152,54.3906224 L14.4945919,34.6350689 Z M28.2245711,34.6350689 L46.7757643,34.6350689 L37.5005869,57.7712519 L28.2245711,34.6350689 Z M50.365263,34.6350689 L60.5057434,34.6350689 L42.4526026,54.3906224 L50.365263,34.6350689 Z" id="Shape"></path>
                    </g>
                </g>
            </g>
        </g>
    </g>
</svg>