<?xml version="1.0" encoding="UTF-8"?>
<svg width="965px" height="621px" viewBox="0 0 965 621" version="1.1" xmlns="http://www.w3.org/2000/svg" xmlns:xlink="http://www.w3.org/1999/xlink">
    <!-- Generator: Sketch 52.5 (67469) - http://www.bohemiancoding.com/sketch -->
    <title>Group 9</title>
    <desc>Created with Sketch.</desc>
    <defs>
        <linearGradient x1="100%" y1="100%" x2="0%" y2="0%" id="linearGradient-1">
            <stop stop-color="#FFFFFF" offset="0%"></stop>
            <stop stop-color="#01B8C0" offset="100%"></stop>
        </linearGradient>
        <linearGradient x1="0%" y1="106.4117%" x2="280%" y2="106.4117%" id="linearGradient-2">
            <stop stop-color="#33B5B7" offset="0%"></stop>
            <stop stop-color="#36B6B9" offset="32.23%"></stop>
            <stop stop-color="#3FBBBF" offset="53.64%"></stop>
            <stop stop-color="#4EC2CA" offset="71.91%"></stop>
            <stop stop-color="#63CDD9" offset="88.32%"></stop>
            <stop stop-color="#77D7E7" offset="100%"></stop>
        </linearGradient>
        <linearGradient x1="100%" y1="100%" x2="0%" y2="0%" id="linearGradient-3">
            <stop stop-color="#067B80" offset="0%"></stop>
            <stop stop-color="#01B8C0" offset="100%"></stop>
        </linearGradient>
        <path d="M0,485.84933 L247.35,387.43192 L355.227857,350.213504 C363.542143,347.371875 370.886429,342.312388 376.637143,335.658817 L456.800714,242.300893 C459.433571,239.251339 461.650714,235.924554 463.452143,232.389844 L523.176429,114.081027 C528.511429,103.546205 537.449286,95.2292411 548.327143,90.7242188 C558.927857,86.2885045 567.657857,78.3873884 572.992857,68.2684152 L606.457857,5.33671875 C609.298571,0.0693080357 616.157857,-1.45546875 620.938571,2.14854911 L683.572857,49.6245536 C692.718571,56.5553571 699.231429,66.5357143 701.864286,77.694308 L729.509286,194.894196 C731.449286,203.072545 735.398571,210.557813 741.010714,216.795536 L836.555714,322.282366 C838.287857,324.222991 840.227857,326.025 842.237143,327.619085 L970,430.402902 L970,621 L0,621 L0,485.84933 Z" id="path-4"></path>
        <linearGradient x1="49.9985809%" y1="100%" x2="49.9985809%" y2="0%" id="linearGradient-6">
            <stop stop-color="#33A6B7" offset="0%"></stop>
            <stop stop-color="#35ABB8" offset="23.96%"></stop>
            <stop stop-color="#3ABABC" offset="53.07%"></stop>
            <stop stop-color="#42D2C2" offset="84.73%"></stop>
            <stop stop-color="#47E1C5" offset="100%"></stop>
        </linearGradient>
        <path d="M0,485.84933 L247.35,387.43192 L355.227857,350.213504 C363.542143,347.371875 370.886429,342.312388 376.637143,335.658817 L456.800714,242.300893 C459.433571,239.251339 461.650714,235.924554 463.452143,232.389844 L523.176429,114.081027 C528.511429,103.546205 537.449286,95.2292411 548.327143,90.7242188 C558.927857,86.2885045 567.657857,78.3873884 572.992857,68.2684152 L606.457857,5.33671875 C609.298571,0.0693080357 616.157857,-1.45546875 620.938571,2.14854911 L683.572857,49.6245536 C692.718571,56.5553571 699.231429,66.5357143 701.864286,77.694308 L729.509286,194.894196 C731.449286,203.072545 735.398571,210.557813 741.010714,216.795536 L836.555714,322.282366 C838.287857,324.222991 840.227857,326.025 842.237143,327.619085 L970,430.402902 L970,621 L0,621 L0,485.84933 Z" id="path-7"></path>
        <linearGradient x1="50.0005748%" y1="100.00001%" x2="50.0005748%" y2="0.0203242669%" id="linearGradient-9">
            <stop stop-color="#80DCEB" offset="0%"></stop>
            <stop stop-color="#B9F2F0" offset="100%"></stop>
        </linearGradient>
        <path d="M0,485.84933 L247.35,387.43192 L355.227857,350.213504 C363.542143,347.371875 370.886429,342.312388 376.637143,335.658817 L456.800714,242.300893 C459.433571,239.251339 461.650714,235.924554 463.452143,232.389844 L523.176429,114.081027 C528.511429,103.546205 537.449286,95.2292411 548.327143,90.7242188 C558.927857,86.2885045 567.657857,78.3873884 572.992857,68.2684152 L606.457857,5.33671875 C609.298571,0.0693080357 616.157857,-1.45546875 620.938571,2.14854911 L683.572857,49.6245536 C692.718571,56.5553571 699.231429,66.5357143 701.864286,77.694308 L729.509286,194.894196 C731.449286,203.072545 735.398571,210.557813 741.010714,216.795536 L836.555714,322.282366 C838.287857,324.222991 840.227857,326.025 842.237143,327.619085 L970,430.402902 L970,621 L0,621 L0,485.84933 Z" id="path-10"></path>
        <linearGradient x1="49.9759779%" y1="100.031539%" x2="49.9759779%" y2="-0.0173832029%" id="linearGradient-12">
            <stop stop-color="#80DCEB" offset="0%"></stop>
            <stop stop-color="#B9F2F0" offset="100%"></stop>
        </linearGradient>
        <path d="M0,485.84933 L247.35,387.43192 L355.227857,350.213504 C363.542143,347.371875 370.886429,342.312388 376.637143,335.658817 L456.800714,242.300893 C459.433571,239.251339 461.650714,235.924554 463.452143,232.389844 L523.176429,114.081027 C528.511429,103.546205 537.449286,95.2292411 548.327143,90.7242188 C558.927857,86.2885045 567.657857,78.3873884 572.992857,68.2684152 L606.457857,5.33671875 C609.298571,0.0693080357 616.157857,-1.45546875 620.938571,2.14854911 L683.572857,49.6245536 C692.718571,56.5553571 699.231429,66.5357143 701.864286,77.694308 L729.509286,194.894196 C731.449286,203.072545 735.398571,210.557813 741.010714,216.795536 L836.555714,322.282366 C838.287857,324.222991 840.227857,326.025 842.237143,327.619085 L970,430.402902 L970,621 L0,621 L0,485.84933 Z" id="path-13"></path>
        <linearGradient x1="49.9999044%" y1="100%" x2="49.9999044%" y2="-0.0529819695%" id="linearGradient-15">
            <stop stop-color="#80DCEB" offset="0%"></stop>
            <stop stop-color="#B9F2F0" offset="100%"></stop>
        </linearGradient>
        <path d="M0,485.84933 L247.35,387.43192 L355.227857,350.213504 C363.542143,347.371875 370.886429,342.312388 376.637143,335.658817 L456.800714,242.300893 C459.433571,239.251339 461.650714,235.924554 463.452143,232.389844 L523.176429,114.081027 C528.511429,103.546205 537.449286,95.2292411 548.327143,90.7242188 C558.927857,86.2885045 567.657857,78.3873884 572.992857,68.2684152 L606.457857,5.33671875 C609.298571,0.0693080357 616.157857,-1.45546875 620.938571,2.14854911 L683.572857,49.6245536 C692.718571,56.5553571 699.231429,66.5357143 701.864286,77.694308 L729.509286,194.894196 C731.449286,203.072545 735.398571,210.557813 741.010714,216.795536 L836.555714,322.282366 C838.287857,324.222991 840.227857,326.025 842.237143,327.619085 L970,430.402902 L970,621 L0,621 L0,485.84933 Z" id="path-16"></path>
        <linearGradient x1="50%" y1="100%" x2="50%" y2="-2.50600019e-05%" id="linearGradient-18">
            <stop stop-color="#80DCEB" offset="0%"></stop>
            <stop stop-color="#B9F2F0" offset="100%"></stop>
        </linearGradient>
        <path d="M0,485.84933 L247.35,387.43192 L355.227857,350.213504 C363.542143,347.371875 370.886429,342.312388 376.637143,335.658817 L456.800714,242.300893 C459.433571,239.251339 461.650714,235.924554 463.452143,232.389844 L523.176429,114.081027 C528.511429,103.546205 537.449286,95.2292411 548.327143,90.7242188 C558.927857,86.2885045 567.657857,78.3873884 572.992857,68.2684152 L606.457857,5.33671875 C609.298571,0.0693080357 616.157857,-1.45546875 620.938571,2.14854911 L683.572857,49.6245536 C692.718571,56.5553571 699.231429,66.5357143 701.864286,77.694308 L729.509286,194.894196 C731.449286,203.072545 735.398571,210.557813 741.010714,216.795536 L836.555714,322.282366 C838.287857,324.222991 840.227857,326.025 842.237143,327.619085 L970,430.402902 L970,621 L0,621 L0,485.84933 Z" id="path-19"></path>
        <linearGradient x1="50.0028584%" y1="99.9612328%" x2="50.0028584%" y2="0.00893485276%" id="linearGradient-21">
            <stop stop-color="#80DCEB" offset="0%"></stop>
            <stop stop-color="#B9F2F0" offset="100%"></stop>
        </linearGradient>
        <path d="M0,485.84933 L247.35,387.43192 L355.227857,350.213504 C363.542143,347.371875 370.886429,342.312388 376.637143,335.658817 L456.800714,242.300893 C459.433571,239.251339 461.650714,235.924554 463.452143,232.389844 L523.176429,114.081027 C528.511429,103.546205 537.449286,95.2292411 548.327143,90.7242188 C558.927857,86.2885045 567.657857,78.3873884 572.992857,68.2684152 L606.457857,5.33671875 C609.298571,0.0693080357 616.157857,-1.45546875 620.938571,2.14854911 L683.572857,49.6245536 C692.718571,56.5553571 699.231429,66.5357143 701.864286,77.694308 L729.509286,194.894196 C731.449286,203.072545 735.398571,210.557813 741.010714,216.795536 L836.555714,322.282366 C838.287857,324.222991 840.227857,326.025 842.237143,327.619085 L970,430.402902 L970,621 L0,621 L0,485.84933 Z" id="path-22"></path>
        <linearGradient x1="49.9805724%" y1="100.030674%" x2="49.9805724%" y2="-0.00666912672%" id="linearGradient-24">
            <stop stop-color="#33A6B7" offset="0%"></stop>
            <stop stop-color="#47E1C5" offset="100%"></stop>
        </linearGradient>
        <path d="M0,485.84933 L247.35,387.43192 L355.227857,350.213504 C363.542143,347.371875 370.886429,342.312388 376.637143,335.658817 L456.800714,242.300893 C459.433571,239.251339 461.650714,235.924554 463.452143,232.389844 L523.176429,114.081027 C528.511429,103.546205 537.449286,95.2292411 548.327143,90.7242188 C558.927857,86.2885045 567.657857,78.3873884 572.992857,68.2684152 L606.457857,5.33671875 C609.298571,0.0693080357 616.157857,-1.45546875 620.938571,2.14854911 L683.572857,49.6245536 C692.718571,56.5553571 699.231429,66.5357143 701.864286,77.694308 L729.509286,194.894196 C731.449286,203.072545 735.398571,210.557813 741.010714,216.795536 L836.555714,322.282366 C838.287857,324.222991 840.227857,326.025 842.237143,327.619085 L970,430.402902 L970,621 L0,621 L0,485.84933 Z" id="path-25"></path>
        <linearGradient x1="49.9795493%" y1="99.9930841%" x2="49.9795493%" y2="-0.00776808465%" id="linearGradient-27">
            <stop stop-color="#80DCEB" offset="0%"></stop>
            <stop stop-color="#B9F2F0" offset="100%"></stop>
        </linearGradient>
        <path d="M0,485.84933 L247.35,387.43192 L355.227857,350.213504 C363.542143,347.371875 370.886429,342.312388 376.637143,335.658817 L456.800714,242.300893 C459.433571,239.251339 461.650714,235.924554 463.452143,232.389844 L523.176429,114.081027 C528.511429,103.546205 537.449286,95.2292411 548.327143,90.7242188 C558.927857,86.2885045 567.657857,78.3873884 572.992857,68.2684152 L606.457857,5.33671875 C609.298571,0.0693080357 616.157857,-1.45546875 620.938571,2.14854911 L683.572857,49.6245536 C692.718571,56.5553571 699.231429,66.5357143 701.864286,77.694308 L729.509286,194.894196 C731.449286,203.072545 735.398571,210.557813 741.010714,216.795536 L836.555714,322.282366 C838.287857,324.222991 840.227857,326.025 842.237143,327.619085 L970,430.402902 L970,621 L0,621 L0,485.84933 Z" id="path-28"></path>
        <linearGradient x1="50.0211268%" y1="100.019728%" x2="50.0212441%" y2="0%" id="linearGradient-30">
            <stop stop-color="#80DCEB" offset="0%"></stop>
            <stop stop-color="#B9F2F0" offset="100%"></stop>
        </linearGradient>
        <path d="M0,485.84933 L247.35,387.43192 L355.227857,350.213504 C363.542143,347.371875 370.886429,342.312388 376.637143,335.658817 L456.800714,242.300893 C459.433571,239.251339 461.650714,235.924554 463.452143,232.389844 L523.176429,114.081027 C528.511429,103.546205 537.449286,95.2292411 548.327143,90.7242188 C558.927857,86.2885045 567.657857,78.3873884 572.992857,68.2684152 L606.457857,5.33671875 C609.298571,0.0693080357 616.157857,-1.45546875 620.938571,2.14854911 L683.572857,49.6245536 C692.718571,56.5553571 699.231429,66.5357143 701.864286,77.694308 L729.509286,194.894196 C731.449286,203.072545 735.398571,210.557813 741.010714,216.795536 L836.555714,322.282366 C838.287857,324.222991 840.227857,326.025 842.237143,327.619085 L970,430.402902 L970,621 L0,621 L0,485.84933 Z" id="path-31"></path>
        <linearGradient x1="49.9709784%" y1="100.012933%" x2="49.9709784%" y2="-0.0208864602%" id="linearGradient-33">
            <stop stop-color="#80DCEB" offset="0%"></stop>
            <stop stop-color="#B9F2F0" offset="100%"></stop>
        </linearGradient>
        <path d="M0,485.84933 L247.35,387.43192 L355.227857,350.213504 C363.542143,347.371875 370.886429,342.312388 376.637143,335.658817 L456.800714,242.300893 C459.433571,239.251339 461.650714,235.924554 463.452143,232.389844 L523.176429,114.081027 C528.511429,103.546205 537.449286,95.2292411 548.327143,90.7242188 C558.927857,86.2885045 567.657857,78.3873884 572.992857,68.2684152 L606.457857,5.33671875 C609.298571,0.0693080357 616.157857,-1.45546875 620.938571,2.14854911 L683.572857,49.6245536 C692.718571,56.5553571 699.231429,66.5357143 701.864286,77.694308 L729.509286,194.894196 C731.449286,203.072545 735.398571,210.557813 741.010714,216.795536 L836.555714,322.282366 C838.287857,324.222991 840.227857,326.025 842.237143,327.619085 L970,430.402902 L970,621 L0,621 L0,485.84933 Z" id="path-34"></path>
        <path d="M0,485.84933 L247.35,387.43192 L355.227857,350.213504 C363.542143,347.371875 370.886429,342.312388 376.637143,335.658817 L456.800714,242.300893 C459.433571,239.251339 461.650714,235.924554 463.452143,232.389844 L523.176429,114.081027 C528.511429,103.546205 537.449286,95.2292411 548.327143,90.7242188 C558.927857,86.2885045 567.657857,78.3873884 572.992857,68.2684152 L606.457857,5.33671875 C609.298571,0.0693080357 616.157857,-1.45546875 620.938571,2.14854911 L683.572857,49.6245536 C692.718571,56.5553571 699.231429,66.5357143 701.864286,77.694308 L729.509286,194.894196 C731.449286,203.072545 735.398571,210.557813 741.010714,216.795536 L836.555714,322.282366 C838.287857,324.222991 840.227857,326.025 842.237143,327.619085 L970,430.402902 L970,621 L0,621 L0,485.84933 Z" id="path-36"></path>
        <linearGradient x1="49.9955247%" y1="100.0116%" x2="49.9955247%" y2="-0.00537056928%" id="linearGradient-38">
            <stop stop-color="#80DCEB" offset="0%"></stop>
            <stop stop-color="#B9F2F0" offset="100%"></stop>
        </linearGradient>
        <path d="M0,485.84933 L247.35,387.43192 L355.227857,350.213504 C363.542143,347.371875 370.886429,342.312388 376.637143,335.658817 L456.800714,242.300893 C459.433571,239.251339 461.650714,235.924554 463.452143,232.389844 L523.176429,114.081027 C528.511429,103.546205 537.449286,95.2292411 548.327143,90.7242188 C558.927857,86.2885045 567.657857,78.3873884 572.992857,68.2684152 L606.457857,5.33671875 C609.298571,0.0693080357 616.157857,-1.45546875 620.938571,2.14854911 L683.572857,49.6245536 C692.718571,56.5553571 699.231429,66.5357143 701.864286,77.694308 L729.509286,194.894196 C731.449286,203.072545 735.398571,210.557813 741.010714,216.795536 L836.555714,322.282366 C838.287857,324.222991 840.227857,326.025 842.237143,327.619085 L970,430.402902 L970,621 L0,621 L0,485.84933 Z" id="path-39"></path>
        <linearGradient x1="50.0055862%" y1="100%" x2="50.0055862%" y2="0%" id="linearGradient-41">
            <stop stop-color="#80DCEB" offset="0%"></stop>
            <stop stop-color="#B9F2F0" offset="100%"></stop>
        </linearGradient>
        <path d="M0,485.84933 L247.35,387.43192 L355.227857,350.213504 C363.542143,347.371875 370.886429,342.312388 376.637143,335.658817 L456.800714,242.300893 C459.433571,239.251339 461.650714,235.924554 463.452143,232.389844 L523.176429,114.081027 C528.511429,103.546205 537.449286,95.2292411 548.327143,90.7242188 C558.927857,86.2885045 567.657857,78.3873884 572.992857,68.2684152 L606.457857,5.33671875 C609.298571,0.0693080357 616.157857,-1.45546875 620.938571,2.14854911 L683.572857,49.6245536 C692.718571,56.5553571 699.231429,66.5357143 701.864286,77.694308 L729.509286,194.894196 C731.449286,203.072545 735.398571,210.557813 741.010714,216.795536 L836.555714,322.282366 C838.287857,324.222991 840.227857,326.025 842.237143,327.619085 L970,430.402902 L970,621 L0,621 L0,485.84933 Z" id="path-42"></path>
        <linearGradient x1="49.9377484%" y1="99.9467982%" x2="49.9377484%" y2="0.000705945854%" id="linearGradient-44">
            <stop stop-color="#80DCEB" offset="0%"></stop>
            <stop stop-color="#B9F2F0" offset="100%"></stop>
        </linearGradient>
        <path d="M0,485.84933 L247.35,387.43192 L355.227857,350.213504 C363.542143,347.371875 370.886429,342.312388 376.637143,335.658817 L456.800714,242.300893 C459.433571,239.251339 461.650714,235.924554 463.452143,232.389844 L523.176429,114.081027 C528.511429,103.546205 537.449286,95.2292411 548.327143,90.7242188 C558.927857,86.2885045 567.657857,78.3873884 572.992857,68.2684152 L606.457857,5.33671875 C609.298571,0.0693080357 616.157857,-1.45546875 620.938571,2.14854911 L683.572857,49.6245536 C692.718571,56.5553571 699.231429,66.5357143 701.864286,77.694308 L729.509286,194.894196 C731.449286,203.072545 735.398571,210.557813 741.010714,216.795536 L836.555714,322.282366 C838.287857,324.222991 840.227857,326.025 842.237143,327.619085 L970,430.402902 L970,621 L0,621 L0,485.84933 Z" id="path-45"></path>
        <linearGradient x1="49.8855346%" y1="100.144296%" x2="49.8855346%" y2="0.0853011869%" id="linearGradient-47">
            <stop stop-color="#80DCEB" offset="0%"></stop>
            <stop stop-color="#B9F2F0" offset="100%"></stop>
        </linearGradient>
        <path d="M0,485.84933 L247.35,387.43192 L355.227857,350.213504 C363.542143,347.371875 370.886429,342.312388 376.637143,335.658817 L456.800714,242.300893 C459.433571,239.251339 461.650714,235.924554 463.452143,232.389844 L523.176429,114.081027 C528.511429,103.546205 537.449286,95.2292411 548.327143,90.7242188 C558.927857,86.2885045 567.657857,78.3873884 572.992857,68.2684152 L606.457857,5.33671875 C609.298571,0.0693080357 616.157857,-1.45546875 620.938571,2.14854911 L683.572857,49.6245536 C692.718571,56.5553571 699.231429,66.5357143 701.864286,77.694308 L729.509286,194.894196 C731.449286,203.072545 735.398571,210.557813 741.010714,216.795536 L836.555714,322.282366 C838.287857,324.222991 840.227857,326.025 842.237143,327.619085 L970,430.402902 L970,621 L0,621 L0,485.84933 Z" id="path-48"></path>
        <linearGradient x1="49.8264706%" y1="99.6106667%" x2="49.8264706%" y2="-0.665333333%" id="linearGradient-50">
            <stop stop-color="#80DCEB" offset="0%"></stop>
            <stop stop-color="#B9F2F0" offset="100%"></stop>
        </linearGradient>
        <path d="M0,485.84933 L247.35,387.43192 L355.227857,350.213504 C363.542143,347.371875 370.886429,342.312388 376.637143,335.658817 L456.800714,242.300893 C459.433571,239.251339 461.650714,235.924554 463.452143,232.389844 L523.176429,114.081027 C528.511429,103.546205 537.449286,95.2292411 548.327143,90.7242188 C558.927857,86.2885045 567.657857,78.3873884 572.992857,68.2684152 L606.457857,5.33671875 C609.298571,0.0693080357 616.157857,-1.45546875 620.938571,2.14854911 L683.572857,49.6245536 C692.718571,56.5553571 699.231429,66.5357143 701.864286,77.694308 L729.509286,194.894196 C731.449286,203.072545 735.398571,210.557813 741.010714,216.795536 L836.555714,322.282366 C838.287857,324.222991 840.227857,326.025 842.237143,327.619085 L970,430.402902 L970,621 L0,621 L0,485.84933 Z" id="path-51"></path>
        <linearGradient x1="50.2000681%" y1="100.091537%" x2="50.2000681%" y2="-0.000123094614%" id="linearGradient-53">
            <stop stop-color="#80DCEB" offset="0%"></stop>
            <stop stop-color="#B9F2F0" offset="100%"></stop>
        </linearGradient>
        <path d="M0,485.84933 L247.35,387.43192 L355.227857,350.213504 C363.542143,347.371875 370.886429,342.312388 376.637143,335.658817 L456.800714,242.300893 C459.433571,239.251339 461.650714,235.924554 463.452143,232.389844 L523.176429,114.081027 C528.511429,103.546205 537.449286,95.2292411 548.327143,90.7242188 C558.927857,86.2885045 567.657857,78.3873884 572.992857,68.2684152 L606.457857,5.33671875 C609.298571,0.0693080357 616.157857,-1.45546875 620.938571,2.14854911 L683.572857,49.6245536 C692.718571,56.5553571 699.231429,66.5357143 701.864286,77.694308 L729.509286,194.894196 C731.449286,203.072545 735.398571,210.557813 741.010714,216.795536 L836.555714,322.282366 C838.287857,324.222991 840.227857,326.025 842.237143,327.619085 L970,430.402902 L970,621 L0,621 L0,485.84933 Z" id="path-54"></path>
        <linearGradient x1="49.9958519%" y1="100%" x2="49.9958519%" y2="0.061355401%" id="linearGradient-56">
            <stop stop-color="#FFFFFF" offset="0%"></stop>
            <stop stop-color="#E2E7E9" offset="19.26%"></stop>
            <stop stop-color="#DFDFDF" offset="46.5%"></stop>
            <stop stop-color="#E6EEF0" offset="78.33%"></stop>
            <stop stop-color="#FFFFFF" offset="100%"></stop>
        </linearGradient>
        <linearGradient x1="100%" y1="100%" x2="0%" y2="0%" id="linearGradient-57">
            <stop stop-color="#D7D7D7" offset="0%"></stop>
            <stop stop-color="#FFFFFF" offset="100%"></stop>
        </linearGradient>
    </defs>
    <g id="Home" stroke="none" stroke-width="1" fill="none" fill-rule="evenodd">
        <g transform="translate(-475.000000, -2726.000000)" id="Testimonials">
            <g transform="translate(86.000000, 2714.000000)">
                <g id="Group-9" transform="translate(389.000000, 0.000000)">
                    <rect id="Rectangle-7" fill="#01B8C0" opacity="0.1" x="16" y="72" width="949" height="549"></rect>
                    <path d="M0,497.84933 L247.35,399.43192 L355.227857,362.213504 C363.542143,359.371875 370.886429,354.312388 376.637143,347.658817 L456.800714,254.300893 C459.433571,251.251339 461.650714,247.924554 463.452143,244.389844 L523.176429,126.081027 C528.511429,115.546205 537.449286,107.229241 548.327143,102.724219 C558.927857,98.2885045 567.657857,90.3873884 572.992857,80.2684152 L606.457857,17.3367187 C609.298571,12.069308 616.157857,10.5445312 620.938571,14.1485491 L683.572857,61.6245536 C692.718571,68.5553571 699.231429,78.5357143 701.864286,89.694308 L729.509286,206.894196 C731.449286,215.072545 735.398571,222.557812 741.010714,228.795536 L836.555714,334.282366 C838.287857,336.222991 840.227857,338.025 842.237143,339.619085 L970,442.402902 L970,633 L0,633 L0,497.84933 Z" id="XMLID_1_" fill="url(#linearGradient-1)" fill-rule="nonzero"></path>
                    <g id="Group" opacity="0.31238511" transform="translate(0.000000, 12.000000)">
                        <g id="XMLID_1_-link" fill="url(#linearGradient-3)" fill-rule="nonzero">
                            <path d="M0,485.84933 L247.35,387.43192 L355.227857,350.213504 C363.542143,347.371875 370.886429,342.312388 376.637143,335.658817 L456.800714,242.300893 C459.433571,239.251339 461.650714,235.924554 463.452143,232.389844 L523.176429,114.081027 C528.511429,103.546205 537.449286,95.2292411 548.327143,90.7242188 C558.927857,86.2885045 567.657857,78.3873884 572.992857,68.2684152 L606.457857,5.33671875 C609.298571,0.0693080357 616.157857,-1.45546875 620.938571,2.14854911 L683.572857,49.6245536 C692.718571,56.5553571 699.231429,66.5357143 701.864286,77.694308 L729.509286,194.894196 C731.449286,203.072545 735.398571,210.557813 741.010714,216.795536 L836.555714,322.282366 C838.287857,324.222991 840.227857,326.025 842.237143,327.619085 L970,430.402902 L970,621 L0,621 L0,485.84933 Z" id="XMLID_1_"></path>
                        </g>
                        <g id="Clipped">
                            <mask id="mask-5" fill="white">
                                <use xlink:href="#path-4"></use>
                            </mask>
                            <g id="XMLID_1_"></g>
                            <path d="M600.707143,-14.5546875 L612.901429,30.0796875 C620.869286,59.3969866 613.871429,90.7935268 594.125,113.873103 C583.039286,126.903013 575.764286,142.705246 573.200714,159.616406 L549.505,314.311942 C546.733571,332.193415 538.835,348.827344 526.71,362.203795 L396.037143,505.879353 C393.889286,508.235826 391.672143,510.453683 389.316429,512.532924 L268.135714,621 L0,621 L0,485.84933 L373.45,322.282366 L451.05,232.18192 L514.792857,64.4564732 C514.792857,64.4564732 541.121429,70.0011161 546.664286,64.4564732 C552.207143,58.9118304 600.707143,-14.5546875 600.707143,-14.5546875 Z" id="Shape" fill="url(#linearGradient-6)" fill-rule="nonzero" mask="url(#mask-5)"></path>
                        </g>
                        <g id="Clipped">
                            <mask id="mask-8" fill="white">
                                <use xlink:href="#path-7"></use>
                            </mask>
                            <g id="XMLID_1_"></g>
                            <path d="M492.829286,352.639286 C491.928571,352.362054 491.305,352.154129 490.889286,352.154129 C487.286429,352.154129 409.132143,370.451451 380.378571,377.17433 C373.657857,378.768415 366.590714,377.728795 360.632143,374.332701 L334.442143,359.431473 C327.236429,355.342299 318.506429,354.718527 310.815714,357.76808 L18.2221429,470.32433 C31.1785714,473.789732 44.2735714,477.116518 57.5071429,480.304687 C76.2142857,484.46317 94.2285714,482.383929 112.935714,480.997768 C115.014286,480.997768 117.785714,478.225446 119.864286,478.225446 C179.45,474.066964 239.035714,458.819196 291.692857,426.24442 C314.557143,412.382812 340.885714,403.372768 363.75,417.234375 C373.45,422.779018 377.607143,447.729911 392.85,444.957589 C397.007143,444.264509 400.471429,443.571429 403.935714,442.185268 C408.092857,440.106027 410.864286,441.492187 413.635714,439.412946 C421.257143,434.561384 429.571429,431.789062 435.807143,424.858259 C436.5,424.165179 438.578571,425.551339 439.964286,424.858259 C460.057143,411.689732 478.071429,399.214286 500.935714,393.669643 C503.083571,393.184487 505.231429,392.907254 507.31,392.69933 C516.04,378.491183 510.081429,358.391853 492.829286,352.639286 Z" id="Shape" fill="url(#linearGradient-9)" fill-rule="nonzero" mask="url(#mask-8)"></path>
                        </g>
                        <g id="Clipped">
                            <mask id="mask-11" fill="white">
                                <use xlink:href="#path-10"></use>
                            </mask>
                            <g id="XMLID_1_"></g>
                            <path d="M397.007143,479.611607 C378.992857,488.621652 367.907143,462.284598 352.664286,457.433036 C347.814286,456.046875 342.964286,453.274554 337.421429,456.046875 C314.557143,467.829241 300.007143,488.621652 276.45,499.017857 C276.103571,499.156473 275.757143,499.295089 275.48,499.503013 L328.067857,516.414174 C333.887857,518.285491 340.192857,518.146875 345.874286,516.067634 L426.730714,486.195871 C434.005714,483.492857 439.825714,477.809598 442.666429,470.601563 L450.842143,449.947768 C438.578571,461.52221 426.037857,470.948103 410.864286,478.225446 C406.707143,480.304688 401.164286,477.532366 397.007143,479.611607 Z" id="Shape" fill="url(#linearGradient-12)" fill-rule="nonzero" mask="url(#mask-11)"></path>
                        </g>
                        <g id="Clipped">
                            <mask id="mask-14" fill="white">
                                <use xlink:href="#path-13"></use>
                            </mask>
                            <g id="XMLID_1_"></g>
                            <path d="M462.620714,430.12567 L500.866429,399.976674 C503.568571,397.897433 505.716429,395.402344 507.31,392.768638 C505.231429,392.976563 503.083571,393.323103 500.935714,393.738951 C478.071429,399.283594 460.057143,411.75904 439.964286,424.927567 C438.578571,425.620647 436.5,424.234487 435.807143,424.927567 C429.571429,431.858371 421.257143,434.630692 413.635714,439.482254 C410.864286,441.561496 408.092857,440.175335 403.935714,442.254576 C400.471429,443.640737 397.007143,444.333817 392.85,445.026897 C377.607143,447.799219 373.45,422.848326 363.75,417.303683 C340.885714,403.442076 314.557143,412.452121 291.692857,426.313728 C239.035714,458.888504 179.45,474.136272 119.864286,478.294754 C117.785714,478.294754 115.014286,481.067076 112.935714,481.067076 C94.2285714,482.453237 76.2142857,484.532478 57.5071429,480.373996 C44.2735714,477.185826 31.1785714,473.85904 18.2221429,470.393638 L0,477.39375 L0,542.68192 L234.74,489.661272 C239.105,488.898884 243.539286,489.245424 247.765714,490.562277 L275.48,499.503013 C275.826429,499.295089 276.172857,499.156473 276.45,499.017857 C300.007143,488.621652 314.557143,467.829241 337.421429,456.046875 C342.964286,453.274554 347.814286,456.046875 352.664286,457.433036 C367.907143,462.284598 378.992857,488.621652 397.007143,479.611607 C401.164286,477.532366 406.707143,480.304687 410.864286,478.225446 C426.037857,470.948103 438.578571,461.52221 450.772857,449.947768 L454.098571,441.492187 C455.9,436.987165 458.81,433.105915 462.620714,430.12567 Z" id="Shape" fill="url(#linearGradient-15)" fill-rule="nonzero" mask="url(#mask-14)"></path>
                        </g>
                        <g id="Clipped">
                            <mask id="mask-17" fill="white">
                                <use xlink:href="#path-16"></use>
                            </mask>
                            <g id="XMLID_1_"></g>
                            <path d="M959.607143,560.008929 C958.221429,559.315848 958.914286,555.850446 957.528571,553.771205 C951.985714,545.454241 952.678571,536.444196 951.292857,527.434152 C950.6,526.741071 949.214286,524.66183 948.521429,525.354911 C939.514286,526.741071 929.814286,523.27567 922.885714,527.434152 C913.185714,532.978795 904.871429,539.909598 897.942857,548.226562 C880.621429,568.325893 861.914286,584.959821 839.742857,596.742188 C827.063571,603.742299 823.668571,588.009375 817.294286,578.375558 C816.324286,578.375558 815.354286,578.30625 814.384286,578.30625 L812.097857,578.167634 C803.367857,577.61317 794.707143,579.068638 786.600714,582.395424 L693.55,621 L970,621 L970,557.236607 C968.822143,558.137612 967.644286,559.038616 966.535714,560.008929 C964.457143,561.395089 961.685714,561.395089 959.607143,560.008929 Z" id="Shape" fill="url(#linearGradient-18)" fill-rule="nonzero" mask="url(#mask-17)"></path>
                        </g>
                        <g id="Clipped">
                            <mask id="mask-20" fill="white">
                                <use xlink:href="#path-19"></use>
                            </mask>
                            <g id="XMLID_1_"></g>
                            <path d="M963.764286,419.175 C931.269286,396.857813 886.441429,413.283817 876.048571,451.403237 L868.15,480.304687 L874.108571,509.691295 C881.383571,545.662165 853.530714,578.860714 817.294286,578.444866 C823.668571,588.078683 827.063571,603.811607 839.742857,596.811496 C861.914286,585.029129 880.621429,568.395201 897.942857,548.295871 C904.871429,539.978906 913.185714,533.048103 922.885714,527.50346 C929.814286,523.344978 939.514286,526.810379 948.521429,525.424219 C949.214286,524.731138 950.6,526.810379 951.292857,527.50346 C952.678571,536.513504 951.985714,545.523549 957.528571,553.840513 C958.914286,555.919754 958.221429,559.385156 959.607143,560.078237 C961.685714,561.464397 964.457143,561.464397 966.535714,560.078237 C967.644286,559.177232 968.822143,558.20692 970,557.305915 L970,423.472098 L963.764286,419.175 Z" id="Shape" fill="url(#linearGradient-21)" fill-rule="nonzero" mask="url(#mask-20)"></path>
                        </g>
                        <g id="Clipped">
                            <mask id="mask-23" fill="white">
                                <use xlink:href="#path-22"></use>
                            </mask>
                            <g id="XMLID_1_"></g>
                            <path d="M729.44,194.824888 L750.502857,289.499665 C750.78,290.885826 750.572143,292.341295 749.879286,293.519531 L713.088571,355.480915 C712.118571,357.144308 710.247857,358.183929 708.307857,358.183929 L678.168571,358.183929 C672.487143,358.183929 670.477857,365.738504 675.397143,368.510826 L726.045,397.758817 C728.054286,398.937054 730.617857,398.729129 732.419286,397.204353 L834.130714,310.5 L729.44,194.824888 Z" id="Shape" fill="url(#linearGradient-24)" fill-rule="nonzero" mask="url(#mask-23)"></path>
                        </g>
                        <g id="Clipped">
                            <mask id="mask-26" fill="white">
                                <use xlink:href="#path-25"></use>
                            </mask>
                            <g id="XMLID_1_"></g>
                            <path d="M606.457857,5.26741071 L642.347857,70.2783482 C642.694286,70.9714286 642.971429,71.6645089 643.040714,72.4268973 L645.881429,94.1896205 C650.800714,94.1896205 655.512143,94.8133929 659.6,97.03125 C665.835714,100.496652 671.378571,101.189732 676.921429,104.655134 C694.242857,117.823661 697.707143,137.922991 704.635714,156.636161 C707.407143,166.339286 713.642857,175.34933 724.035714,178.814732 C725.906429,179.299888 727.5,179.785045 729.44,180.478125 L729.44,123.229688 C729.44,123.229688 661.470714,-121.01183 606.457857,5.26741071 Z" id="Shape" fill="url(#linearGradient-27)" fill-rule="nonzero" mask="url(#mask-26)"></path>
                        </g>
                        <g id="Clipped">
                            <mask id="mask-29" fill="white">
                                <use xlink:href="#path-28"></use>
                            </mask>
                            <g id="XMLID_1_"></g>
                            <path d="M683.157143,176.042411 C681.078571,173.96317 676.228571,173.96317 674.842857,176.042411 C671.655714,179.923661 668.122143,183.666295 664.311429,186.64654 L693.480714,250.479241 C695.628571,255.192187 702.28,255.122879 704.427857,250.479241 L723.342857,208.339955 C708.515714,200.508147 697.637857,186.022768 683.157143,176.042411 Z" id="Shape" fill="url(#linearGradient-30)" fill-rule="nonzero" mask="url(#mask-29)"></path>
                        </g>
                        <g id="Clipped">
                            <mask id="mask-32" fill="white">
                                <use xlink:href="#path-31"></use>
                            </mask>
                            <g id="XMLID_1_"></g>
                            <path d="M674.842857,176.042411 C676.228571,173.96317 681.078571,173.96317 683.157143,176.042411 C697.637857,186.022768 708.515714,200.508147 723.342857,208.339955 L729.44,194.824888 L729.44,180.478125 C727.5,179.785045 725.975714,179.299888 724.035714,178.814732 C713.642857,175.34933 707.407143,166.339286 704.635714,156.636161 C697.707143,137.922991 694.242857,117.823661 676.921429,104.655134 C671.378571,101.189732 665.835714,100.496652 659.6,97.03125 C655.442857,94.8133929 650.731429,94.1896205 645.881429,94.1896205 L655.373571,166.89375 L664.380714,186.64654 C668.122143,183.666295 671.655714,179.923661 674.842857,176.042411 Z" id="Shape" fill="url(#linearGradient-33)" fill-rule="nonzero" mask="url(#mask-32)"></path>
                        </g>
                        <g id="Clipped">
                            <mask id="mask-35" fill="white">
                                <use xlink:href="#path-34"></use>
                            </mask>
                            <g id="XMLID_1_"></g>
                        </g>
                        <g id="Clipped">
                            <mask id="mask-37" fill="white">
                                <use xlink:href="#path-36"></use>
                            </mask>
                            <g id="XMLID_1_"></g>
                            <path d="M766.992857,542.127455 L716.414286,534.572879 C715.582857,534.434263 714.682143,534.503571 713.850714,534.780804 L543.407857,593.346094 C544.655,594.17779 545.971429,594.870871 547.357143,595.356027 C564.678571,602.979911 583.385714,596.742188 602.092857,591.890625 C606.942857,590.504464 611.1,589.811384 615.95,589.118304 C627.728571,589.118304 636.042857,579.415179 647.821429,577.335938 C651.285714,577.335938 656.135714,576.642857 656.828571,578.029018 C658.907143,582.1875 656.828571,588.425223 658.214286,593.969866 C659.115,597.01942 661.193571,598.474888 663.757143,599.029353 L744.821429,555.434598 C745.306429,555.226674 745.791429,555.088058 746.345714,555.01875 L766.785,552.731585 C773.020714,552.107813 773.228571,543.02846 766.992857,542.127455 Z" id="Shape" fill="url(#linearGradient-38)" fill-rule="nonzero" mask="url(#mask-37)"></path>
                        </g>
                        <g id="Clipped">
                            <mask id="mask-40" fill="white">
                                <use xlink:href="#path-39"></use>
                            </mask>
                            <g id="XMLID_1_"></g>
                            <path d="M658.214286,593.969866 C656.828571,588.425223 658.907143,582.1875 656.828571,578.029018 C656.135714,576.642857 651.285714,577.335937 647.821429,577.335937 C636.042857,579.415179 627.728571,589.118304 615.95,589.118304 C611.1,589.811384 606.942857,590.504464 602.092857,591.890625 C583.385714,596.742187 564.678571,602.979911 547.357143,595.356027 C545.971429,594.870871 544.655,594.17779 543.407857,593.346094 L462.828571,621 L622.878571,621 L663.757143,599.029353 C661.193571,598.474888 659.115,597.01942 658.214286,593.969866 Z" id="Shape" fill="url(#linearGradient-41)" fill-rule="nonzero" mask="url(#mask-40)"></path>
                        </g>
                        <g id="Clipped">
                            <mask id="mask-43" fill="white">
                                <use xlink:href="#path-42"></use>
                            </mask>
                            <g id="XMLID_1_"></g>
                            <path d="M674.15,259.905134 C674.842857,258.518973 673.457143,255.746652 674.15,254.360491 C674.842857,253.667411 677.614286,253.667411 678.307143,254.360491 C681.078571,257.825893 681.078571,263.370536 684.542857,266.142857 C685.997857,267.45971 687.452857,268.845871 688.907857,270.162723 C689.600714,268.291406 689.462143,266.212165 688.561429,264.340848 L665.212143,217.627232 C662.925714,213.052902 656.897857,212.082589 653.295,215.686607 C651.562857,217.419308 650.800714,219.914397 651.216429,222.270871 L655.927857,247.776228 C659.807857,251.172321 663.757143,254.568415 667.914286,257.825893 C668.607143,258.518973 672.071429,261.291295 674.15,259.905134 Z" id="Shape" fill="url(#linearGradient-44)" fill-rule="nonzero" mask="url(#mask-43)"></path>
                        </g>
                        <g id="Clipped">
                            <mask id="mask-46" fill="white">
                                <use xlink:href="#path-45"></use>
                            </mask>
                            <g id="XMLID_1_"></g>
                            <path d="M684.542857,266.142857 C681.078571,263.370536 681.078571,257.825893 678.307143,254.360491 C677.614286,253.667411 674.842857,253.667411 674.15,254.360491 C673.457143,255.746652 674.842857,258.518973 674.15,259.905134 C672.071429,261.291295 668.607143,258.518973 667.914286,257.825893 C663.757143,254.568415 659.807857,251.241629 655.927857,247.776228 L660.223571,270.786496 C660.431429,272.103348 661.055,273.281585 661.955714,274.321205 L671.032143,284.717411 C674.635,288.806585 681.286429,287.836272 683.434286,282.776786 L688.769286,270.578571 C688.838571,270.439955 688.907857,270.232031 688.977143,270.093415 C687.452857,268.845871 685.997857,267.45971 684.542857,266.142857 Z" id="Shape" fill="url(#linearGradient-47)" fill-rule="nonzero" mask="url(#mask-46)"></path>
                        </g>
                        <g id="Clipped">
                            <mask id="mask-49" fill="white">
                                <use xlink:href="#path-48"></use>
                            </mask>
                            <g id="XMLID_1_"></g>
                            <path d="M435.183571,487.928571 C434.213571,488.483036 433.520714,489.314732 433.105,490.215737 C435.668571,488.968192 437.955,487.027567 440.172143,485.017634 L435.183571,487.928571 Z" id="Shape" fill="url(#linearGradient-50)" fill-rule="nonzero" mask="url(#mask-49)"></path>
                        </g>
                        <g id="Clipped">
                            <mask id="mask-52" fill="white">
                                <use xlink:href="#path-51"></use>
                            </mask>
                            <g id="XMLID_1_"></g>
                            <path d="M464.214286,475.453125 C461.442857,473.373884 453.821429,474.760045 449.664286,480.304687 C449.317857,480.651228 448.694286,480.512612 447.932143,480.304687 L440.102857,484.948326 C437.885714,487.027567 435.668571,488.968192 433.035714,490.146429 C431.857857,492.502902 432.481429,495.621763 434.975714,497.215848 L444.883571,503.592188 C446.685,504.770424 449.040714,504.770424 450.842143,503.522879 L465.669286,493.819754 C466.985714,492.91875 467.886429,491.532589 468.094286,490.007812 L468.856429,484.532478 C466.292857,482.591853 466.015714,477.255134 464.214286,475.453125 Z" id="Shape" fill="url(#linearGradient-53)" fill-rule="nonzero" mask="url(#mask-52)"></path>
                        </g>
                        <g id="Clipped">
                            <mask id="mask-55" fill="white">
                                <use xlink:href="#path-54"></use>
                            </mask>
                            <g id="XMLID_1_" opacity="0.789774816"></g>
                        </g>
                    </g>
                    <path d="M916,292.140183 C914,290.140183 915,286.140183 913,285.140183 C903,277.140183 890,282.140183 880,290.140183 C880,287.140183 881,282.140183 879,281.140183 C872,276.140183 871,265.140183 867,264.140183 C846,258.140183 824,273.140183 802,279.140183 C801,279.140183 798,283.140183 797,282.140183 C788.4,266.240183 775,255.140183 760,247.540183 C761.1,250.540183 762,252.140183 762,252.140183 C762,252.140183 752,229.340183 738,237.340183 C724,245.340183 720.2,253.640183 716,260.140183 C701.1,282.740183 714.1,289.340183 715.8,290.040183 C715.9,290.040183 716,290.140183 716,290.140183 C716,290.140183 715.9,290.140183 715.8,290.040183 C711.7,288.340183 636,257.640183 636,312.140183 L842,312.140183 L927.7,312.140183 C925.7,304.640183 921.9,297.740183 916,292.140183 Z" id="Shape" fill="url(#linearGradient-56)" fill-rule="nonzero"></path>
                    <path d="M1024,222.140183 C956,242.140183 944,265.940183 944,265.940183 C944,265.940183 920,120.140183 824,154.140183 C743.5,182.640183 754.4,232.240183 760,247.540183 C775,255.140183 788.3,266.340183 797,282.140183 C798,283.140183 801,279.140183 802,279.140183 C824,273.140183 846,258.140183 867,264.140183 C871,265.140183 872,276.140183 879,281.140183 C881,282.140183 880,287.140183 880,290.140183 C890,282.140183 903,277.140183 913,285.140183 C915,286.140183 914,290.140183 916,292.140183 C921.9,297.740183 925.7,304.640183 927.7,312.140183 L1094,312.140183 C1094,312.140183 1092,202.140183 1024,222.140183 Z" id="Shape" fill="url(#linearGradient-57)" fill-rule="nonzero"></path>
                    <path d="M313.969432,155.324518 C315.519651,153.642952 314.744541,150.279819 316.29476,149.439036 C324.045852,142.71277 334.122271,146.916686 341.873362,153.642952 C341.873362,151.120602 341.098253,146.916686 342.648472,146.075903 C348.074236,141.871986 348.849345,132.62337 351.949782,131.782587 C368.227074,126.737888 385.279476,139.349636 402.331878,144.394336 C403.106987,144.394336 405.432314,147.757469 406.207424,146.916686 C412.873362,133.548232 423.259825,124.215538 434.886463,117.825585 C434.033843,120.347935 433.336245,121.693188 433.336245,121.693188 C433.336245,121.693188 441.087336,102.52333 451.938865,109.249596 C462.790393,115.975862 465.735808,122.954363 468.991266,128.335376 C480.540393,147.337077 470.463974,152.886247 469.146288,153.474795 C469.068777,153.474795 468.991266,153.558874 468.991266,153.558874 C468.991266,153.558874 469.068777,153.558874 469.146288,153.474795 C472.324236,152.045464 531,126.233418 531,172.056105 L371.327511,172.056105 L304.900655,172.056105 C306.450873,165.834309 309.396288,159.948826 313.969432,155.324518 Z" id="Shape" fill="url(#linearGradient-57)" fill-rule="nonzero"></path>
                    <path d="M230.257642,96.4696905 C282.965066,113.285356 292.266376,133.295997 292.266376,133.295997 C292.266376,133.295997 310.868996,10.7097984 385.279476,39.2964291 C447.675764,63.2587519 439.227074,104.961601 434.886463,117.825585 C423.259825,124.215538 412.950873,133.63231 406.207424,146.916686 C405.432314,147.757469 403.106987,144.394336 402.331878,144.394336 C385.279476,139.349636 368.227074,126.737888 351.949782,131.782587 C348.849345,132.62337 348.074236,141.871986 342.648472,146.075903 C341.098253,146.916686 341.873362,151.120602 341.873362,153.642952 C334.122271,146.916686 324.045852,142.71277 316.29476,149.439036 C314.744541,150.279819 315.519651,153.642952 313.969432,155.324518 C309.396288,160.032905 306.450873,165.834309 304.900655,172.140183 L176,172.140183 C176,172.140183 177.550218,79.6540253 230.257642,96.4696905 Z" id="Shape" fill="url(#linearGradient-57)" fill-rule="nonzero"></path>
                </g>
            </g>
        </g>
    </g>
</svg>