<?xml version="1.0" encoding="utf-8"?>
<!-- Generator: Adobe Illustrator 16.0.0, SVG Export Plug-In . SVG Version: 6.00 Build 0)  -->
<!DOCTYPE svg PUBLIC "-//W3C//DTD SVG 1.1//EN" "http://www.w3.org/Graphics/SVG/1.1/DTD/svg11.dtd">
<svg version="1.1" xmlns="http://www.w3.org/2000/svg" xmlns:xlink="http://www.w3.org/1999/xlink" x="0px" y="0px"
	 width="323.983px" height="310.327px" viewBox="0 0 323.983 310.327" enable-background="new 0 0 323.983 310.327"
	 xml:space="preserve">
<g id="Layer_1">
</g>
<g id="Colors">
</g>
<g id="Dock">
</g>
<g id="Fun_wheel">
</g>
<g id="Orange">
</g>
<g id="Coaster">
</g>
<g id="Fencing_1_">
</g>
<g id="Carousel">
</g>
<g id="Second_Image">
	<g id="Wheel_1_">
		<g id="Cart_29_">
			<path fill="#06B7BF" d="M60.355,196.596c0-0.829-0.671-1.5-1.5-1.5h-8c-0.828,0-1.5,0.671-1.5,1.5l-2,5.805l2,5.805
				c0,0.829,0.672,1.5,1.5,1.5h8c0.829,0,1.5-0.671,1.5-1.5l2-5.805L60.355,196.596z M59.98,204.045H49.73c-0.552,0-1-0.448-1-1
				l1-4.906c0-0.552,0.448-1,1-1h8.25c0.553,0,1,0.448,1,1l1,4.906C60.98,203.598,60.533,204.045,59.98,204.045z"/>
			<path fill="#06B7BF" d="M56.855,200.827c0,0.552-0.447,1-1,1h-2c-0.552,0-1-0.448-1-1v-0.969c0-0.552,0.448-1,1-1h2
				c0.553,0,1,0.448,1,1V200.827z"/>
			<g>
				<defs>
					<path id="SVGID_111_" d="M60.355,208.206c0,0.829-0.671,1.5-1.5,1.5h-8c-0.828,0-1.5-0.671-1.5-1.5l-2-5.805l2-5.805
						c0-0.829,0.672-1.5,1.5-1.5h8c0.829,0,1.5,0.671,1.5,1.5l2,5.805L60.355,208.206z"/>
				</defs>
				<clipPath id="SVGID_2_">
					<use xlink:href="#SVGID_111_"  overflow="visible"/>
				</clipPath>
				
					<line clip-path="url(#SVGID_2_)" fill="none" stroke="#076E73" stroke-width="0.8173" stroke-miterlimit="10" x1="54.855" y1="195.142" x2="54.855" y2="205.327"/>
				
					<line clip-path="url(#SVGID_2_)" fill="none" stroke="#076E73" stroke-width="0.4086" stroke-miterlimit="10" x1="57.904" y1="195.142" x2="57.904" y2="205.327"/>
				
					<line clip-path="url(#SVGID_2_)" fill="none" stroke="#076E73" stroke-width="0.4086" stroke-miterlimit="10" x1="51.904" y1="195.142" x2="51.904" y2="205.327"/>
				<path clip-path="url(#SVGID_2_)" fill="#076E73" d="M62.355,206.181c0,0.552-0.447,1-1,1h-13c-0.552,0-1-0.448-1-1l0,0
					c0-0.552,0.448-1,1-1h13C61.908,205.181,62.355,205.628,62.355,206.181L62.355,206.181z"/>
				<path display="none" clip-path="url(#SVGID_2_)" fill="#232563" d="M60.98,203.045c0,0.552-0.447,1-1,1H49.73
					c-0.552,0-1-0.448-1-1l1-4.906c0-0.552,0.448-1,1-1h8.25c0.553,0,1,0.448,1,1L60.98,203.045z"/>
			</g>
			<path fill="#076E73" d="M61.654,194.985c0,0.74-0.6,1.34-1.34,1.34H49.396c-0.74,0-1.34-0.6-1.34-1.34l0,0
				c0-0.74,0.6-1.34,1.34-1.34h10.918C61.055,193.645,61.654,194.245,61.654,194.985L61.654,194.985z"/>
		</g>
		<g id="Cart_28_">
			<path fill="#06B7BF" d="M124.55,226.512c0-0.829-0.671-1.5-1.5-1.5h-8c-0.829,0-1.5,0.671-1.5,1.5l-2,5.805l2,5.805
				c0,0.829,0.671,1.5,1.5,1.5h8c0.829,0,1.5-0.671,1.5-1.5l2-5.805L124.55,226.512z M124.175,233.962h-10.25c-0.552,0-1-0.448-1-1
				l1-4.906c0-0.552,0.448-1,1-1h8.25c0.552,0,1,0.448,1,1l1,4.906C125.175,233.514,124.727,233.962,124.175,233.962z"/>
			<path fill="#06B7BF" d="M121.05,230.743c0,0.552-0.448,1-1,1h-2c-0.552,0-1-0.448-1-1v-0.969c0-0.552,0.448-1,1-1h2
				c0.552,0,1,0.448,1,1V230.743z"/>
			<g>
				<defs>
					<path id="SVGID_113_" d="M124.55,238.123c0,0.829-0.671,1.5-1.5,1.5h-8c-0.829,0-1.5-0.671-1.5-1.5l-2-5.805l2-5.805
						c0-0.829,0.671-1.5,1.5-1.5h8c0.829,0,1.5,0.671,1.5,1.5l2,5.805L124.55,238.123z"/>
				</defs>
				<clipPath id="SVGID_4_">
					<use xlink:href="#SVGID_113_"  overflow="visible"/>
				</clipPath>
				
					<line clip-path="url(#SVGID_4_)" fill="none" stroke="#076E73" stroke-width="0.8173" stroke-miterlimit="10" x1="119.05" y1="225.059" x2="119.05" y2="235.243"/>
				
					<line clip-path="url(#SVGID_4_)" fill="none" stroke="#076E73" stroke-width="0.4086" stroke-miterlimit="10" x1="122.098" y1="225.059" x2="122.098" y2="235.243"/>
				
					<line clip-path="url(#SVGID_4_)" fill="none" stroke="#076E73" stroke-width="0.4086" stroke-miterlimit="10" x1="116.098" y1="225.059" x2="116.098" y2="235.243"/>
				<path clip-path="url(#SVGID_4_)" fill="#076E73" d="M126.55,236.097c0,0.552-0.448,1-1,1h-13c-0.552,0-1-0.448-1-1l0,0
					c0-0.552,0.448-1,1-1h13C126.102,235.097,126.55,235.545,126.55,236.097L126.55,236.097z"/>
				<path display="none" clip-path="url(#SVGID_4_)" fill="#232563" d="M125.175,232.962c0,0.552-0.448,1-1,1h-10.25
					c-0.552,0-1-0.448-1-1l1-4.906c0-0.552,0.448-1,1-1h8.25c0.552,0,1,0.448,1,1L125.175,232.962z"/>
			</g>
			<path fill="#076E73" d="M125.849,224.901c0,0.74-0.601,1.34-1.34,1.34h-10.918c-0.74,0-1.34-0.6-1.34-1.34l0,0
				c0-0.74,0.6-1.34,1.34-1.34h10.918C125.248,223.562,125.849,224.161,125.849,224.901L125.849,224.901z"/>
		</g>
		<g id="Cart_27_">
			<path fill="#06B7BF" d="M187.654,269.756c0-0.829-0.671-1.5-1.5-1.5h-8c-0.829,0-1.5,0.671-1.5,1.5l-2,5.805l2,5.805
				c0,0.829,0.671,1.5,1.5,1.5h8c0.829,0,1.5-0.671,1.5-1.5l2-5.805L187.654,269.756z M187.279,277.206h-10.25c-0.552,0-1-0.448-1-1
				l1-4.906c0-0.552,0.448-1,1-1h8.25c0.552,0,1,0.448,1,1l1,4.906C188.279,276.758,187.831,277.206,187.279,277.206z"/>
			<path fill="#06B7BF" d="M184.154,273.987c0,0.552-0.448,1-1,1h-2c-0.552,0-1-0.448-1-1v-0.969c0-0.552,0.448-1,1-1h2
				c0.552,0,1,0.448,1,1V273.987z"/>
			<g>
				<defs>
					<path id="SVGID_115_" d="M187.654,281.366c0,0.829-0.671,1.5-1.5,1.5h-8c-0.829,0-1.5-0.671-1.5-1.5l-2-5.805l2-5.805
						c0-0.829,0.671-1.5,1.5-1.5h8c0.829,0,1.5,0.671,1.5,1.5l2,5.805L187.654,281.366z"/>
				</defs>
				<clipPath id="SVGID_6_">
					<use xlink:href="#SVGID_115_"  overflow="visible"/>
				</clipPath>
				
					<line clip-path="url(#SVGID_6_)" fill="none" stroke="#076E73" stroke-width="0.8173" stroke-miterlimit="10" x1="182.154" y1="268.302" x2="182.154" y2="278.487"/>
				
					<line clip-path="url(#SVGID_6_)" fill="none" stroke="#076E73" stroke-width="0.4086" stroke-miterlimit="10" x1="185.202" y1="268.302" x2="185.202" y2="278.487"/>
				
					<line clip-path="url(#SVGID_6_)" fill="none" stroke="#076E73" stroke-width="0.4086" stroke-miterlimit="10" x1="179.202" y1="268.302" x2="179.202" y2="278.487"/>
				<path clip-path="url(#SVGID_6_)" fill="#076E73" d="M189.654,279.341c0,0.552-0.448,1-1,1h-13c-0.552,0-1-0.448-1-1l0,0
					c0-0.552,0.448-1,1-1h13C189.206,278.341,189.654,278.789,189.654,279.341L189.654,279.341z"/>
				<path display="none" clip-path="url(#SVGID_6_)" fill="#232563" d="M188.279,276.206c0,0.552-0.448,1-1,1h-10.25
					c-0.552,0-1-0.448-1-1l1-4.906c0-0.552,0.448-1,1-1h8.25c0.552,0,1,0.448,1,1L188.279,276.206z"/>
			</g>
			<path fill="#076E73" d="M188.953,268.145c0,0.74-0.601,1.34-1.34,1.34h-10.918c-0.74,0-1.34-0.6-1.34-1.34l0,0
				c0-0.74,0.6-1.34,1.34-1.34h10.918C188.353,266.805,188.953,267.405,188.953,268.145L188.953,268.145z"/>
		</g>
		<g id="Cart_26_">
			<path fill="#06B7BF" d="M239.1,208.271c0-0.829-0.671-1.5-1.5-1.5h-8c-0.829,0-1.5,0.671-1.5,1.5l-2,5.805l2,5.805
				c0,0.829,0.671,1.5,1.5,1.5h8c0.829,0,1.5-0.671,1.5-1.5l2-5.805L239.1,208.271z M238.725,215.72h-10.25c-0.552,0-1-0.448-1-1
				l1-4.906c0-0.552,0.448-1,1-1h8.25c0.552,0,1,0.448,1,1l1,4.906C239.725,215.272,239.276,215.72,238.725,215.72z"/>
			<path fill="#06B7BF" d="M235.6,212.501c0,0.552-0.448,1-1,1h-2c-0.552,0-1-0.448-1-1v-0.969c0-0.552,0.448-1,1-1h2
				c0.552,0,1,0.448,1,1V212.501z"/>
			<g>
				<defs>
					<path id="SVGID_117_" d="M239.1,219.881c0,0.829-0.671,1.5-1.5,1.5h-8c-0.829,0-1.5-0.671-1.5-1.5l-2-5.805l2-5.805
						c0-0.829,0.671-1.5,1.5-1.5h8c0.829,0,1.5,0.671,1.5,1.5l2,5.805L239.1,219.881z"/>
				</defs>
				<clipPath id="SVGID_8_">
					<use xlink:href="#SVGID_117_"  overflow="visible"/>
				</clipPath>
				
					<line clip-path="url(#SVGID_8_)" fill="none" stroke="#076E73" stroke-width="0.8173" stroke-miterlimit="10" x1="233.6" y1="206.817" x2="233.6" y2="217.001"/>
				
					<line clip-path="url(#SVGID_8_)" fill="none" stroke="#076E73" stroke-width="0.4086" stroke-miterlimit="10" x1="236.647" y1="206.817" x2="236.647" y2="217.001"/>
				
					<line clip-path="url(#SVGID_8_)" fill="none" stroke="#076E73" stroke-width="0.4086" stroke-miterlimit="10" x1="230.647" y1="206.817" x2="230.647" y2="217.001"/>
				<path clip-path="url(#SVGID_8_)" fill="#076E73" d="M241.1,217.855c0,0.552-0.448,1-1,1h-13c-0.552,0-1-0.448-1-1l0,0
					c0-0.552,0.448-1,1-1h13C240.651,216.855,241.1,217.303,241.1,217.855L241.1,217.855z"/>
				<path display="none" clip-path="url(#SVGID_8_)" fill="#232563" d="M239.725,214.72c0,0.552-0.448,1-1,1h-10.25
					c-0.552,0-1-0.448-1-1l1-4.906c0-0.552,0.448-1,1-1h8.25c0.552,0,1,0.448,1,1L239.725,214.72z"/>
			</g>
			<path fill="#076E73" d="M240.398,206.66c0,0.74-0.601,1.34-1.34,1.34h-10.918c-0.74,0-1.34-0.6-1.34-1.34l0,0
				c0-0.74,0.6-1.34,1.34-1.34h10.918C239.798,205.32,240.398,205.919,240.398,206.66L240.398,206.66z"/>
		</g>
		<g id="Cart_25_">
			<path fill="#06B7BF" d="M280.098,156.082c0-0.829-0.671-1.5-1.5-1.5h-8c-0.829,0-1.5,0.671-1.5,1.5l-2,5.805l2,5.805
				c0,0.829,0.671,1.5,1.5,1.5h8c0.829,0,1.5-0.671,1.5-1.5l2-5.805L280.098,156.082z M279.723,163.532h-10.25c-0.552,0-1-0.448-1-1
				l1-4.906c0-0.552,0.448-1,1-1h8.25c0.552,0,1,0.448,1,1l1,4.906C280.723,163.084,280.274,163.532,279.723,163.532z"/>
			<path fill="#06B7BF" d="M276.598,160.313c0,0.552-0.448,1-1,1h-2c-0.552,0-1-0.448-1-1v-0.969c0-0.552,0.448-1,1-1h2
				c0.552,0,1,0.448,1,1V160.313z"/>
			<g>
				<defs>
					<path id="SVGID_119_" d="M280.098,167.692c0,0.829-0.671,1.5-1.5,1.5h-8c-0.829,0-1.5-0.671-1.5-1.5l-2-5.805l2-5.805
						c0-0.829,0.671-1.5,1.5-1.5h8c0.829,0,1.5,0.671,1.5,1.5l2,5.805L280.098,167.692z"/>
				</defs>
				<clipPath id="SVGID_10_">
					<use xlink:href="#SVGID_119_"  overflow="visible"/>
				</clipPath>
				
					<line clip-path="url(#SVGID_10_)" fill="none" stroke="#076E73" stroke-width="0.8173" stroke-miterlimit="10" x1="274.598" y1="154.628" x2="274.598" y2="164.813"/>
				
					<line clip-path="url(#SVGID_10_)" fill="none" stroke="#076E73" stroke-width="0.4086" stroke-miterlimit="10" x1="277.646" y1="154.628" x2="277.646" y2="164.813"/>
				
					<line clip-path="url(#SVGID_10_)" fill="none" stroke="#076E73" stroke-width="0.4086" stroke-miterlimit="10" x1="271.646" y1="154.628" x2="271.646" y2="164.813"/>
				<path clip-path="url(#SVGID_10_)" fill="#076E73" d="M282.098,165.667c0,0.552-0.448,1-1,1h-13c-0.552,0-1-0.448-1-1l0,0
					c0-0.552,0.448-1,1-1h13C281.649,164.667,282.098,165.115,282.098,165.667L282.098,165.667z"/>
				<path display="none" clip-path="url(#SVGID_10_)" fill="#232563" d="M280.723,162.532c0,0.552-0.448,1-1,1h-10.25
					c-0.552,0-1-0.448-1-1l1-4.906c0-0.552,0.448-1,1-1h8.25c0.552,0,1,0.448,1,1L280.723,162.532z"/>
			</g>
			<path fill="#076E73" d="M281.396,154.471c0,0.74-0.601,1.34-1.34,1.34h-10.918c-0.74,0-1.34-0.6-1.34-1.34l0,0
				c0-0.74,0.6-1.34,1.34-1.34h10.918C280.796,153.131,281.396,153.731,281.396,154.471L281.396,154.471z"/>
		</g>
		<g id="Cart_24_">
			<path fill="#06B7BF" d="M247.303,122.746c0-0.829-0.671-1.5-1.5-1.5h-8c-0.829,0-1.5,0.671-1.5,1.5l-2,5.805l2,5.805
				c0,0.829,0.671,1.5,1.5,1.5h8c0.829,0,1.5-0.671,1.5-1.5l2-5.805L247.303,122.746z M246.928,130.195h-10.25c-0.552,0-1-0.448-1-1
				l1-4.906c0-0.552,0.448-1,1-1h8.25c0.552,0,1,0.448,1,1l1,4.906C247.928,129.748,247.479,130.195,246.928,130.195z"/>
			<path fill="#06B7BF" d="M243.803,126.977c0,0.552-0.448,1-1,1h-2c-0.552,0-1-0.448-1-1v-0.969c0-0.552,0.448-1,1-1h2
				c0.552,0,1,0.448,1,1V126.977z"/>
			<g>
				<defs>
					<path id="SVGID_121_" d="M247.303,134.356c0,0.829-0.671,1.5-1.5,1.5h-8c-0.829,0-1.5-0.671-1.5-1.5l-2-5.805l2-5.805
						c0-0.829,0.671-1.5,1.5-1.5h8c0.829,0,1.5,0.671,1.5,1.5l2,5.805L247.303,134.356z"/>
				</defs>
				<clipPath id="SVGID_12_">
					<use xlink:href="#SVGID_121_"  overflow="visible"/>
				</clipPath>
				
					<line clip-path="url(#SVGID_12_)" fill="none" stroke="#076E73" stroke-width="0.8173" stroke-miterlimit="10" x1="241.803" y1="121.292" x2="241.803" y2="131.477"/>
				
					<line clip-path="url(#SVGID_12_)" fill="none" stroke="#076E73" stroke-width="0.4086" stroke-miterlimit="10" x1="244.851" y1="121.292" x2="244.851" y2="131.477"/>
				
					<line clip-path="url(#SVGID_12_)" fill="none" stroke="#076E73" stroke-width="0.4086" stroke-miterlimit="10" x1="238.851" y1="121.292" x2="238.851" y2="131.477"/>
				<path clip-path="url(#SVGID_12_)" fill="#076E73" d="M249.303,132.331c0,0.552-0.448,1-1,1h-13c-0.552,0-1-0.448-1-1l0,0
					c0-0.552,0.448-1,1-1h13C248.854,131.331,249.303,131.778,249.303,132.331L249.303,132.331z"/>
				<path display="none" clip-path="url(#SVGID_12_)" fill="#232563" d="M247.928,129.195c0,0.552-0.448,1-1,1h-10.25
					c-0.552,0-1-0.448-1-1l1-4.906c0-0.552,0.448-1,1-1h8.25c0.552,0,1,0.448,1,1L247.928,129.195z"/>
			</g>
			<path fill="#076E73" d="M248.602,121.135c0,0.74-0.601,1.34-1.34,1.34h-10.918c-0.74,0-1.34-0.6-1.34-1.34l0,0
				c0-0.74,0.6-1.34,1.34-1.34h10.918C248.001,119.795,248.602,120.395,248.602,121.135L248.602,121.135z"/>
		</g>
		<g id="Cart_23_">
			<path fill="#06B7BF" d="M223.611,59.937c0-0.829-0.671-1.5-1.5-1.5h-8c-0.829,0-1.5,0.671-1.5,1.5l-2,5.805l2,5.805
				c0,0.829,0.671,1.5,1.5,1.5h8c0.829,0,1.5-0.671,1.5-1.5l2-5.805L223.611,59.937z M223.236,67.386h-10.25c-0.552,0-1-0.448-1-1
				l1-4.906c0-0.552,0.448-1,1-1h8.25c0.552,0,1,0.448,1,1l1,4.906C224.236,66.938,223.788,67.386,223.236,67.386z"/>
			<path fill="#06B7BF" d="M220.111,64.167c0,0.552-0.448,1-1,1h-2c-0.552,0-1-0.448-1-1v-0.969c0-0.552,0.448-1,1-1h2
				c0.552,0,1,0.448,1,1V64.167z"/>
			<g>
				<defs>
					<path id="SVGID_123_" d="M223.611,71.547c0,0.829-0.671,1.5-1.5,1.5h-8c-0.829,0-1.5-0.671-1.5-1.5l-2-5.805l2-5.805
						c0-0.829,0.671-1.5,1.5-1.5h8c0.829,0,1.5,0.671,1.5,1.5l2,5.805L223.611,71.547z"/>
				</defs>
				<clipPath id="SVGID_14_">
					<use xlink:href="#SVGID_123_"  overflow="visible"/>
				</clipPath>
				
					<line clip-path="url(#SVGID_14_)" fill="none" stroke="#076E73" stroke-width="0.8173" stroke-miterlimit="10" x1="218.111" y1="58.483" x2="218.111" y2="68.667"/>
				
					<line clip-path="url(#SVGID_14_)" fill="none" stroke="#076E73" stroke-width="0.4086" stroke-miterlimit="10" x1="221.159" y1="58.483" x2="221.159" y2="68.667"/>
				
					<line clip-path="url(#SVGID_14_)" fill="none" stroke="#076E73" stroke-width="0.4086" stroke-miterlimit="10" x1="215.159" y1="58.483" x2="215.159" y2="68.667"/>
				<path clip-path="url(#SVGID_14_)" fill="#076E73" d="M225.611,69.521c0,0.552-0.448,1-1,1h-13c-0.552,0-1-0.448-1-1l0,0
					c0-0.552,0.448-1,1-1h13C225.163,68.521,225.611,68.969,225.611,69.521L225.611,69.521z"/>
				<path display="none" clip-path="url(#SVGID_14_)" fill="#232563" d="M224.236,66.386c0,0.552-0.448,1-1,1h-10.25
					c-0.552,0-1-0.448-1-1l1-4.906c0-0.552,0.448-1,1-1h8.25c0.552,0,1,0.448,1,1L224.236,66.386z"/>
			</g>
			<path fill="#076E73" d="M224.91,58.326c0,0.74-0.601,1.34-1.34,1.34h-10.918c-0.74,0-1.34-0.6-1.34-1.34l0,0
				c0-0.74,0.6-1.34,1.34-1.34h10.918C224.31,56.986,224.91,57.585,224.91,58.326L224.91,58.326z"/>
		</g>
		<g id="Cart_22_">
			<path fill="#06B7BF" d="M156.942,76.702c0-0.829-0.671-1.5-1.5-1.5h-8c-0.829,0-1.5,0.671-1.5,1.5l-2,5.805l2,5.805
				c0,0.829,0.671,1.5,1.5,1.5h8c0.829,0,1.5-0.671,1.5-1.5l2-5.805L156.942,76.702z M156.567,84.151h-10.25c-0.552,0-1-0.448-1-1
				l1-4.906c0-0.552,0.448-1,1-1h8.25c0.552,0,1,0.448,1,1l1,4.906C157.567,83.704,157.119,84.151,156.567,84.151z"/>
			<path fill="#06B7BF" d="M153.442,80.933c0,0.552-0.448,1-1,1h-2c-0.552,0-1-0.448-1-1v-0.969c0-0.552,0.448-1,1-1h2
				c0.552,0,1,0.448,1,1V80.933z"/>
			<g>
				<defs>
					<path id="SVGID_125_" d="M156.942,88.312c0,0.829-0.671,1.5-1.5,1.5h-8c-0.829,0-1.5-0.671-1.5-1.5l-2-5.805l2-5.805
						c0-0.829,0.671-1.5,1.5-1.5h8c0.829,0,1.5,0.671,1.5,1.5l2,5.805L156.942,88.312z"/>
				</defs>
				<clipPath id="SVGID_16_">
					<use xlink:href="#SVGID_125_"  overflow="visible"/>
				</clipPath>
				
					<line clip-path="url(#SVGID_16_)" fill="none" stroke="#076E73" stroke-width="0.8173" stroke-miterlimit="10" x1="151.442" y1="75.248" x2="151.442" y2="85.433"/>
				
					<line clip-path="url(#SVGID_16_)" fill="none" stroke="#076E73" stroke-width="0.4086" stroke-miterlimit="10" x1="154.49" y1="75.248" x2="154.49" y2="85.433"/>
				
					<line clip-path="url(#SVGID_16_)" fill="none" stroke="#076E73" stroke-width="0.4086" stroke-miterlimit="10" x1="148.49" y1="75.248" x2="148.49" y2="85.433"/>
				<path clip-path="url(#SVGID_16_)" fill="#076E73" d="M158.942,86.287c0,0.552-0.448,1-1,1h-13c-0.552,0-1-0.448-1-1l0,0
					c0-0.552,0.448-1,1-1h13C158.494,85.287,158.942,85.734,158.942,86.287L158.942,86.287z"/>
				<path display="none" clip-path="url(#SVGID_16_)" fill="#232563" d="M157.567,83.151c0,0.552-0.448,1-1,1h-10.25
					c-0.552,0-1-0.448-1-1l1-4.906c0-0.552,0.448-1,1-1h8.25c0.552,0,1,0.448,1,1L157.567,83.151z"/>
			</g>
			<path fill="#076E73" d="M158.241,75.091c0,0.74-0.601,1.34-1.34,1.34h-10.918c-0.74,0-1.34-0.6-1.34-1.34l0,0
				c0-0.74,0.6-1.34,1.34-1.34h10.918C157.641,73.751,158.241,74.351,158.241,75.091L158.241,75.091z"/>
		</g>
		<g id="Cart_21_">
			<path fill="#06B7BF" d="M90.943,81.915c0-0.829-0.671-1.5-1.5-1.5h-8c-0.829,0-1.5,0.671-1.5,1.5l-2,5.805l2,5.805
				c0,0.829,0.671,1.5,1.5,1.5h8c0.829,0,1.5-0.671,1.5-1.5l2-5.805L90.943,81.915z M90.568,89.364h-10.25c-0.552,0-1-0.448-1-1
				l1-4.906c0-0.552,0.448-1,1-1h8.25c0.552,0,1,0.448,1,1l1,4.906C91.568,88.917,91.12,89.364,90.568,89.364z"/>
			<path fill="#06B7BF" d="M87.443,86.146c0,0.552-0.448,1-1,1h-2c-0.552,0-1-0.448-1-1v-0.969c0-0.552,0.448-1,1-1h2
				c0.552,0,1,0.448,1,1V86.146z"/>
			<g>
				<defs>
					<path id="SVGID_127_" d="M90.943,93.525c0,0.829-0.671,1.5-1.5,1.5h-8c-0.829,0-1.5-0.671-1.5-1.5l-2-5.805l2-5.805
						c0-0.829,0.671-1.5,1.5-1.5h8c0.829,0,1.5,0.671,1.5,1.5l2,5.805L90.943,93.525z"/>
				</defs>
				<clipPath id="SVGID_18_">
					<use xlink:href="#SVGID_127_"  overflow="visible"/>
				</clipPath>
				
					<line clip-path="url(#SVGID_18_)" fill="none" stroke="#076E73" stroke-width="0.8173" stroke-miterlimit="10" x1="85.443" y1="80.461" x2="85.443" y2="90.646"/>
				
					<line clip-path="url(#SVGID_18_)" fill="none" stroke="#076E73" stroke-width="0.4086" stroke-miterlimit="10" x1="88.491" y1="80.461" x2="88.491" y2="90.646"/>
				
					<line clip-path="url(#SVGID_18_)" fill="none" stroke="#076E73" stroke-width="0.4086" stroke-miterlimit="10" x1="82.491" y1="80.461" x2="82.491" y2="90.646"/>
				<path clip-path="url(#SVGID_18_)" fill="#076E73" d="M92.943,91.5c0,0.552-0.448,1-1,1h-13c-0.552,0-1-0.448-1-1l0,0
					c0-0.552,0.448-1,1-1h13C92.495,90.5,92.943,90.947,92.943,91.5L92.943,91.5z"/>
				<path display="none" clip-path="url(#SVGID_18_)" fill="#232563" d="M91.568,88.364c0,0.552-0.448,1-1,1h-10.25
					c-0.552,0-1-0.448-1-1l1-4.906c0-0.552,0.448-1,1-1h8.25c0.552,0,1,0.448,1,1L91.568,88.364z"/>
			</g>
			<path fill="#076E73" d="M92.242,80.304c0,0.74-0.601,1.34-1.34,1.34H79.984c-0.74,0-1.34-0.6-1.34-1.34l0,0
				c0-0.74,0.6-1.34,1.34-1.34h10.918C91.642,78.964,92.242,79.563,92.242,80.304L92.242,80.304z"/>
		</g>
		<g id="Cart_20_">
			<path fill="#06B7BF" d="M98.443,137.032c0-0.829-0.671-1.5-1.5-1.5h-8c-0.829,0-1.5,0.671-1.5,1.5l-2,5.805l2,5.805
				c0,0.829,0.671,1.5,1.5,1.5h8c0.829,0,1.5-0.671,1.5-1.5l2-5.805L98.443,137.032z M98.068,144.481h-10.25c-0.552,0-1-0.448-1-1
				l1-4.906c0-0.552,0.448-1,1-1h8.25c0.552,0,1,0.448,1,1l1,4.906C99.068,144.034,98.62,144.481,98.068,144.481z"/>
			<path fill="#06B7BF" d="M94.943,141.263c0,0.552-0.448,1-1,1h-2c-0.552,0-1-0.448-1-1v-0.969c0-0.552,0.448-1,1-1h2
				c0.552,0,1,0.448,1,1V141.263z"/>
			<g>
				<defs>
					<path id="SVGID_129_" d="M98.443,148.642c0,0.829-0.671,1.5-1.5,1.5h-8c-0.829,0-1.5-0.671-1.5-1.5l-2-5.805l2-5.805
						c0-0.829,0.671-1.5,1.5-1.5h8c0.829,0,1.5,0.671,1.5,1.5l2,5.805L98.443,148.642z"/>
				</defs>
				<clipPath id="SVGID_20_">
					<use xlink:href="#SVGID_129_"  overflow="visible"/>
				</clipPath>
				
					<line clip-path="url(#SVGID_20_)" fill="none" stroke="#076E73" stroke-width="0.8173" stroke-miterlimit="10" x1="92.943" y1="135.578" x2="92.943" y2="145.763"/>
				
					<line clip-path="url(#SVGID_20_)" fill="none" stroke="#076E73" stroke-width="0.4086" stroke-miterlimit="10" x1="95.991" y1="135.578" x2="95.991" y2="145.763"/>
				
					<line clip-path="url(#SVGID_20_)" fill="none" stroke="#076E73" stroke-width="0.4086" stroke-miterlimit="10" x1="89.991" y1="135.578" x2="89.991" y2="145.763"/>
				<path clip-path="url(#SVGID_20_)" fill="#076E73" d="M100.443,146.617c0,0.552-0.448,1-1,1h-13c-0.552,0-1-0.448-1-1l0,0
					c0-0.552,0.448-1,1-1h13C99.995,145.617,100.443,146.064,100.443,146.617L100.443,146.617z"/>
				<path display="none" clip-path="url(#SVGID_20_)" fill="#232563" d="M99.068,143.481c0,0.552-0.448,1-1,1h-10.25
					c-0.552,0-1-0.448-1-1l1-4.906c0-0.552,0.448-1,1-1h8.25c0.552,0,1,0.448,1,1L99.068,143.481z"/>
			</g>
			<path fill="#076E73" d="M99.742,135.421c0,0.74-0.601,1.34-1.34,1.34H87.484c-0.74,0-1.34-0.6-1.34-1.34l0,0
				c0-0.74,0.6-1.34,1.34-1.34h10.918C99.142,134.081,99.742,134.681,99.742,135.421L99.742,135.421z"/>
		</g>
		<circle fill="none" stroke="#076E73" stroke-width="2" stroke-miterlimit="10" cx="164.654" cy="162.884" r="59.667"/>
		<circle fill="none" stroke="#076E73" stroke-width="1.8911" stroke-miterlimit="10" cx="164.654" cy="162.884" r="125.287"/>
		<g id="Lines_2_">
			
				<line fill="none" stroke="#076E73" stroke-width="2" stroke-miterlimit="10" x1="164.154" y1="162.931" x2="172.759" y2="37.851"/>
			
				<line fill="none" stroke="#076E73" stroke-width="2" stroke-miterlimit="10" x1="164.154" y1="162.931" x2="146.376" y2="38.822"/>
			
				<line fill="none" stroke="#076E73" stroke-width="2" stroke-miterlimit="10" x1="164.154" y1="162.931" x2="120.782" y2="45.296"/>
			
				<line fill="none" stroke="#076E73" stroke-width="2" stroke-miterlimit="10" x1="164.154" y1="162.931" x2="97.111" y2="56.986"/>
			
				<line fill="none" stroke="#076E73" stroke-width="2" stroke-miterlimit="10" x1="164.154" y1="162.931" x2="76.413" y2="73.374"/>
			
				<line fill="none" stroke="#076E73" stroke-width="2" stroke-miterlimit="10" x1="164.154" y1="162.931" x2="59.605" y2="93.732"/>
			
				<line fill="none" stroke="#076E73" stroke-width="2" stroke-miterlimit="10" x1="164.154" y1="162.931" x2="47.434" y2="117.159"/>
			
				<line fill="none" stroke="#076E73" stroke-width="2" stroke-miterlimit="10" x1="164.154" y1="162.931" x2="40.437" y2="142.615"/>
			
				<line fill="none" stroke="#076E73" stroke-width="2" stroke-miterlimit="10" x1="164.154" y1="162.931" x2="38.925" y2="168.972"/>
			
				<line fill="none" stroke="#076E73" stroke-width="2" stroke-miterlimit="10" x1="164.154" y1="162.931" x2="42.967" y2="195.061"/>
			
				<line fill="none" stroke="#076E73" stroke-width="2" stroke-miterlimit="10" x1="164.154" y1="162.931" x2="52.382" y2="219.725"/>
			
				<line fill="none" stroke="#076E73" stroke-width="2" stroke-miterlimit="10" x1="164.154" y1="162.931" x2="66.753" y2="241.871"/>
			
				<line fill="none" stroke="#076E73" stroke-width="2" stroke-miterlimit="10" x1="164.154" y1="162.931" x2="85.443" y2="260.517"/>
			
				<line fill="none" stroke="#076E73" stroke-width="2" stroke-miterlimit="10" x1="164.154" y1="162.931" x2="107.624" y2="274.835"/>
			
				<line fill="none" stroke="#076E73" stroke-width="2" stroke-miterlimit="10" x1="164.154" y1="162.931" x2="132.311" y2="284.192"/>
			
				<line fill="none" stroke="#076E73" stroke-width="2" stroke-miterlimit="10" x1="164.154" y1="162.931" x2="158.409" y2="288.171"/>
			
				<line fill="none" stroke="#076E73" stroke-width="2" stroke-miterlimit="10" x1="164.154" y1="162.931" x2="184.763" y2="286.598"/>
			
				<line fill="none" stroke="#076E73" stroke-width="2" stroke-miterlimit="10" x1="164.154" y1="162.931" x2="210.202" y2="279.541"/>
			
				<line fill="none" stroke="#076E73" stroke-width="2" stroke-miterlimit="10" x1="164.154" y1="162.931" x2="233.6" y2="267.312"/>
			
				<line fill="none" stroke="#076E73" stroke-width="2" stroke-miterlimit="10" x1="164.154" y1="162.931" x2="253.918" y2="250.456"/>
			
				<line fill="none" stroke="#076E73" stroke-width="2" stroke-miterlimit="10" x1="164.154" y1="162.931" x2="270.256" y2="229.719"/>
			
				<line fill="none" stroke="#076E73" stroke-width="2" stroke-miterlimit="10" x1="164.154" y1="162.931" x2="281.89" y2="206.02"/>
			
				<line fill="none" stroke="#076E73" stroke-width="2" stroke-miterlimit="10" x1="164.154" y1="162.931" x2="288.303" y2="180.411"/>
			
				<line fill="none" stroke="#076E73" stroke-width="2" stroke-miterlimit="10" x1="164.154" y1="162.931" x2="289.211" y2="154.026"/>
			
				<line fill="none" stroke="#076E73" stroke-width="2" stroke-miterlimit="10" x1="164.154" y1="162.931" x2="284.574" y2="128.036"/>
			
				<line fill="none" stroke="#076E73" stroke-width="2" stroke-miterlimit="10" x1="164.154" y1="162.931" x2="274.598" y2="103.593"/>
			
				<line fill="none" stroke="#076E73" stroke-width="2" stroke-miterlimit="10" x1="164.154" y1="162.931" x2="259.724" y2="81.782"/>
			
				<line fill="none" stroke="#076E73" stroke-width="2" stroke-miterlimit="10" x1="164.154" y1="162.931" x2="240.612" y2="63.568"/>
			
				<line fill="none" stroke="#076E73" stroke-width="2" stroke-miterlimit="10" x1="164.154" y1="162.931" x2="218.111" y2="49.76"/>
			
				<line fill="none" stroke="#076E73" stroke-width="2" stroke-miterlimit="10" x1="164.154" y1="162.931" x2="193.218" y2="40.97"/>
		</g>
		<g id="Base_2_">
			
				<rect x="118.403" y="174.541" transform="matrix(-0.8948 -0.4464 0.4464 -0.8948 121.9519 519.1288)" fill="#06B7BF" width="7.438" height="141.318"/>
			
				<rect x="207.323" y="174.541" transform="matrix(0.8948 -0.4464 0.4464 0.8948 -87.2591 119.987)" fill="#06B7BF" width="7.438" height="141.318"/>
			<rect x="77.488" y="303.931" fill="#232563" width="26.666" height="6.158"/>
			<rect x="228.469" y="303.931" fill="#232563" width="26.667" height="6.158"/>
		</g>
		<g id="Points_Level_2_4_">
			<polygon fill="#232563" points="167.772,144.033 149.414,150.309 142.387,99.762 			"/>
			<polygon fill="#232563" points="160.286,144.076 145.713,156.881 107.563,98.769 			"/>
			<polygon fill="#232563" points="153.384,146.971 144.798,164.369 104.16,133.498 			"/>
			<polygon fill="#232563" points="148.106,152.282 146.809,171.639 61.202,156.177 			"/>
			<polygon fill="#232563" points="145.255,159.205 151.442,177.591 100.861,184.373 			"/>
			<polygon fill="#232563" points="145.262,166.69 157.997,181.326 104.756,214.788 			"/>
			<polygon fill="#232563" points="148.124,173.608 165.479,182.277 134.41,222.764 			"/>
			<polygon fill="#232563" points="153.408,178.912 172.759,180.301 157.276,260.295 			"/>
			<polygon fill="#232563" points="160.317,181.795 178.734,175.697 185.27,226.312 			"/>
			<polygon fill="#232563" points="167.804,181.827 182.5,169.163 214.459,221.121 			"/>
			<polygon fill="#232563" points="174.736,178.997 183.49,161.685 223.821,192.952 			"/>
			<polygon fill="#232563" points="180.067,173.737 181.55,154.395 259.58,170.125 			"/>
			<polygon fill="#232563" points="182.984,166.842 176.975,148.397 227.62,142.112 			"/>
			<polygon fill="#232563" points="183.051,159.354 170.458,144.598 227.782,108.454 			"/>
			<polygon fill="#232563" points="180.255,152.41 162.984,143.573 194.45,103.396 			"/>
			<polygon fill="#232563" points="175.021,147.056 155.686,145.478 171.077,76.315 			"/>
		</g>
		<g id="Points_Level_1_4_">
			<polygon fill="#06B7BF" points="169.748,148.977 154.738,151.065 156.852,111.259 			"/>
			<polygon fill="#06B7BF" points="164.001,147.898 150.924,155.556 137.688,117.955 			"/>
			<polygon fill="#06B7BF" points="158.277,149.094 149.111,161.162 122.53,131.456 			"/>
			<polygon fill="#06B7BF" points="153.442,152.384 149.574,167.036 113.67,149.719 			"/>
			<polygon fill="#06B7BF" points="150.229,157.269 152.244,172.288 112.448,169.98 			"/>
			<polygon fill="#06B7BF" points="149.122,163.011 156.716,176.125 119.05,189.176 			"/>
			<polygon fill="#06B7BF" points="150.29,168.741 162.312,177.965 132.477,204.4 			"/>
			<polygon fill="#06B7BF" points="153.556,173.591 168.188,177.53 150.696,213.35 			"/>
			<polygon fill="#06B7BF" points="158.426,176.829 173.454,174.887 170.952,214.671 			"/>
			<polygon fill="#06B7BF" points="164.162,177.964 177.312,170.435 190.18,208.163 			"/>
			<polygon fill="#06B7BF" points="169.898,176.824 179.181,164.847 205.469,194.812 			"/>
			<polygon fill="#06B7BF" points="174.766,173.581 178.775,158.969 214.508,176.637 			"/>
			<polygon fill="#06B7BF" points="178.027,168.727 176.157,153.69 215.928,156.388 			"/>
			<polygon fill="#06B7BF" points="179.189,162.995 171.724,149.81 209.515,137.129 			"/>
			<polygon fill="#06B7BF" points="178.076,157.254 166.145,147.914 196.238,121.774 			"/>
			<polygon fill="#06B7BF" points="174.857,152.372 160.265,148.291 178.107,112.646 			"/>
		</g>
		<g id="Mickey_2_">
			<circle fill="#FFCD34" cx="164.154" cy="162.931" r="30"/>
			<circle fill="#FFCD34" cx="129.154" cy="132.431" r="17.5"/>
			<circle fill="#FFCD34" cx="199.654" cy="132.431" r="17.5"/>
		</g>
	</g>
</g>
</svg>
