<?xml version="1.0" encoding="UTF-8" standalone="no"?>
<svg width="120px" height="90px" viewBox="0 0 120 90" version="1.1" xmlns="http://www.w3.org/2000/svg" xmlns:xlink="http://www.w3.org/1999/xlink">
    <!-- Generator: Sketch 50.2 (55047) - http://www.bohemiancoding.com/sketch -->
    <title>np_fireworks_1178339_000000</title>
    <desc>Created with Sketch.</desc>
    <defs></defs>
    <g id="Home" stroke="none" stroke-width="1" fill="none" fill-rule="evenodd" opacity="0.1">
        <g transform="translate(-23.000000, -718.000000)" fill="#016E73" fill-rule="nonzero" id="CTA">
            <g transform="translate(0.000000, 718.000000)">
                <g id="np_fireworks_1178339_000000" transform="translate(23.000000, -7.000000)">
                    <path d="M58,42.9999644 C56.3442343,42.9999644 55,41.6035824 55,39.8778784 L55,21.1220859 C55,19.396382 56.3442343,18 58,18 C59.6557657,18 61,19.396382 61,21.1220859 L61,39.8778784 C61,40.7036297 60.683979,41.5015674 60.1186873,42.0861049 C59.557851,42.6706306 58.7966727,43 57.9999544,43 L58,42.9999644 Z" id="Shape"></path>
                    <path d="M58,98.9999525 C56.3442343,98.9999525 55,97.5991924 55,95.8738007 L55,77.1261518 C55,75.4007601 56.3442343,74 58,74 C59.6557657,74 61,75.4007601 61,77.1261518 L61,95.8738007 C61,96.7040453 60.683979,97.4971959 60.1186873,98.0816276 C59.557851,98.6706783 58.7966727,99 57.9999544,99 L58,98.9999525 Z" id="Shape"></path>
                    <path d="M95.8738423,61 L77.1261577,61 C75.4007628,61 74,59.6592166 74,58.0022236 C74,56.3452306 75.4007628,55 77.1261577,55 L95.8738423,55 C97.5992372,55 99,56.3452306 99,58.0022236 C99,59.6592166 97.5992372,61 95.8738423,61 Z" id="Shape"></path>
                    <path d="M39.8738423,61 L21.1261577,61 C19.4007628,61 18,59.6592166 18,58.0022236 C18,56.3452306 19.4007628,55 21.1261577,55 L39.8738423,55 C41.5992372,55 43,56.3452306 43,58.0022236 C43,59.6592166 41.5992372,61 39.8738423,61 Z" id="Shape"></path>
                    <path d="M74.6664483,48.9960995 C73.1748827,49.0601714 71.7972064,48.3297368 71.2483103,47.1850295 C70.6941506,46.0402348 71.0877648,44.7288985 72.2271486,43.9300901 L87.0181757,31.84572 C88.3853779,30.7180933 90.6072139,30.7180933 91.9745487,31.84572 C93.3418834,32.9733467 93.3417508,34.8015847 91.9745487,35.9293207 L77.317431,48.1328833 C76.6234353,48.7180857 75.6601359,49.0341754 74.6657588,48.9957277 L74.6664483,48.9960995 Z" id="Shape"></path>
                    <path d="M33.8708369,85.9998651 C32.7077014,85.9827211 31.6613443,85.27982 31.2203534,84.2126172 C30.7750014,83.1454034 31.0171368,81.9152757 31.8343424,81.092367 L44.0102947,68.851875 C45.1517349,67.7160417 47.002369,67.7160417 48.1439199,68.851875 C49.28536,69.9833196 49.28536,71.8177476 48.1439199,72.9493018 L35.9115154,85.1941826 C35.362391,85.7170698 34.6317121,86.004232 33.8706044,85.9999529 L33.8708369,85.9998651 Z" id="Shape"></path>
                    <path d="M86.0986759,85.8844259 C85.3364521,85.8758539 84.6127282,85.562993 84.0774362,85.0187065 L71.8478288,72.9500247 C70.7173904,71.8186406 70.7173904,69.9843107 71.8478288,68.848538 C72.9782673,67.717154 74.811064,67.717154 75.9416121,68.848538 L88.1756044,81.0927643 C88.9849334,81.9156289 89.2204487,83.145647 88.7836754,84.2128477 C88.3426159,85.2800044 87.3105537,85.9828844 86.1544633,86 L86.0986759,85.8844259 Z" id="Shape"></path>
                    <path d="M46.1576762,48.9968597 C45.3355813,49.0353054 44.5391358,48.7191899 43.9654232,48.133963 L31.8477443,35.9296606 C30.7174186,34.8019655 30.7174186,32.9736167 31.8477443,31.8458123 C32.97807,30.7180079 34.8149588,30.7181172 35.9453941,31.8458123 L48.1737818,43.930915 C48.9830301,44.7553725 49.2228078,45.9771041 48.7817922,47.040825 C48.3407766,48.108767 47.3088174,48.8093552 46.1571172,48.826415 L46.1576762,48.9968597 Z" id="Shape"></path>
                    <path d="M48.1184924,24.9956109 C46.4843709,25.0693602 44.9963881,24.2074138 44.4769378,22.884493 L37.1884264,4.25364983 L37.1830158,4.25364983 C36.539119,2.5390081 37.6483602,0.704479518 39.6612787,0.155902725 C41.6741141,-0.392603268 43.8330881,0.552308163 44.477068,2.26702069 L51.7655794,20.8978638 C52.1281142,21.7183219 52.0685921,22.6356333 51.5978454,23.414544 C51.1216826,24.1981273 50.2829851,24.7696431 49.2873304,24.9954929 L48.1184924,24.9956109 Z" id="Shape"></path>
                    <path d="M74.8814402,24.9954931 L73.7126747,24.9954931 C72.7170597,24.7696312 71.8783883,24.1980795 71.4021553,23.4145426 C70.9314078,22.6355604 70.8718856,21.718307 71.234421,20.89786 L78.5229462,2.26699875 C79.1668442,0.552355357 81.3257669,-0.392580593 83.3387446,0.155878735 C85.3515838,0.704385261 86.4608548,2.53886843 85.8170122,4.25362982 L78.528487,22.8844911 L78.5230764,22.8844911 C78.0036251,24.2073778 76.5156395,25.0693605 74.881515,24.9956111 L74.8814402,24.9954931 Z" id="Shape"></path>
                    <path d="M40.9748499,110.999905 L39.7778276,110.999905 C38.7581418,110.777303 37.8991941,110.197613 37.4169802,109.413912 C36.9293045,108.625534 36.8683432,107.702669 37.2396436,106.877203 L44.7043815,88.1323597 L44.7099229,88.1323597 C45.0258092,87.3439817 45.7019016,86.6947683 46.5885565,86.3283956 C47.4807868,85.9573928 48.5060622,85.8971063 49.4480745,86.1660804 C51.4098434,86.7179426 52.4627975,88.4940785 51.8033889,90.1311211 L44.3386509,108.875964 L44.3331095,108.875964 C43.8454337,110.095584 42.509805,110.93969 40.974779,111 L40.9748499,110.999905 Z" id="Shape"></path>
                    <path d="M82.2163623,111 C80.6199677,110.990725 79.2071207,110.137448 78.6953517,108.876029 L71.2029339,90.1317594 L71.1973705,90.1317594 C70.5354598,88.4947669 71.5922899,86.7186378 73.5614186,86.1668399 C75.5249086,85.6103527 77.6552859,86.4914604 78.3171396,88.1330354 L85.8095574,106.877305 L85.8151194,106.877305 C86.4547879,108.514298 85.3812549,110.276537 83.4177507,110.814445 L82.2163623,111 Z" id="Shape"></path>
                    <path d="M95.5852074,51.9532389 C93.8965482,52.276349 92.3077141,50.8908184 92.0398482,48.853642 C91.7674733,46.8164516 92.9205053,44.8996897 94.6091528,44.5710699 L112.957676,37.1943686 C114.560107,36.5426807 116.298737,37.5831886 116.838885,39.5162974 C117.379079,41.4549299 116.516586,43.5524046 114.914202,44.2041766 L96.5656779,51.5808779 L95.5852074,51.9532389 Z" id="Shape"></path>
                    <path d="M116.411545,82.5808657 L115.431084,82.5808657 L97.0838259,75.204132 L97.0883648,75.204132 C96.3167086,74.8919698 95.6812653,74.2238481 95.3181316,73.3421786 C94.9595414,72.4659487 94.900522,71.447279 95.1592591,70.5218401 C95.6994161,68.5831991 97.4378795,67.5426586 99.0448479,68.1942932 L117.392106,75.5710269 C119.080648,75.8996201 120.22908,77.8164185 119.961233,79.8536178 C119.688877,81.8908172 118.100129,83.2763819 116.411587,82.9532283 L116.411545,82.5808657 Z" id="Shape"></path>
                    <path d="M21.4357813,51.9533487 L20.4609787,51.9533487 L2.21960588,44.5721478 L2.21960588,44.5666684 C0.540808062,43.914583 -0.384373478,41.7336799 0.152620003,39.6951066 C0.689613484,37.6565333 2.48579198,36.5332979 4.16470533,37.1853272 L22.4060781,44.5665281 C24.0848759,44.8953203 25.231186,46.8132794 24.9603787,48.8517124 C24.6941117,50.8901455 23.1145213,52.2765493 21.4357235,51.9532 L21.4357813,51.9533487 Z" id="Shape"></path>
                    <path d="M3.58814677,79.9614121 C1.89972552,80.2243557 0.311115285,79.1156239 0.0387555423,77.4854473 C-0.229037759,75.8552595 0.919288547,74.3214403 2.60769818,74.0584742 L20.9536366,68.1555364 C22.5603732,67.6340468 24.298758,68.4666755 24.8389459,70.0135758 C25.3790641,71.5648961 24.5166923,73.2433243 22.909886,73.7648811 L4.56394759,79.667819 L3.58814677,79.9614121 Z" id="Shape"></path>
                </g>
            </g>
        </g>
    </g>
</svg>