<?xml version="1.0" encoding="UTF-8"?>
<svg width="1477px" height="676px" viewBox="0 0 1477 676" version="1.1" xmlns="http://www.w3.org/2000/svg" xmlns:xlink="http://www.w3.org/1999/xlink">
    <!-- Generator: Sketch 52.5 (67469) - http://www.bohemiancoding.com/sketch -->
    <title>space-mountain</title>
    <desc>Created with Sketch.</desc>
    <defs>
        <polygon id="path-1" points="1451 28 0 28 0 0 477 0 1451 0"></polygon>
    </defs>
    <g id="Page-1" stroke="none" stroke-width="1" fill="none" fill-rule="evenodd" opacity="0.1">
        <g id="space-mountain" transform="translate(0.000000, -206.000000)">
            <polygon id="Path" fill="#232563" points="1477 862 0 862 0 518 120 531 204 629 521.946 412 874.942 406.802 1252 623 1336 527 1477 518"></polygon>
            <polygon id="Path" fill="#076E73" points="465 819 1008 819 1168 819 1268.772 882 274 882 279 819"></polygon>
            <polygon id="Path" fill="#06B7BF" points="481.94 434.957 510.333 424.667 546.6 422.799 606.988 418.135 636.333 416.333 688 416 737 416 783.332 418.333 825 422.667 867 427.333 899 428 937.5 435 964 446.5 1289.562 608.086 1297.062 651 156 651 156 611"></polygon>
            <path d="M559,397 L566,297 L573,347 L580,347 L585,297 L595.098,339 C595.098,339 799.437,329.087 886.719,386.043 C974.001,442.999 874.943,401.692 874.943,401.692 L559,397 Z" id="Path" fill="#076E73"></path>
            <g id="Group" transform="translate(571.000000, 355.000000)" fill="#232563">
                <polygon id="Path" points="0.75 38 20 10 27 10 13.875 35.5"></polygon>
                <polygon id="Path" points="26.75 32 46.625 3.083 55 2.667 37.25 32"></polygon>
                <polygon id="Path" points="87.095 26.5 99.667 0 108 0 97.547 24"></polygon>
                <polygon id="Path" points="162.25 24 159.5 1.583 170 2.667 172.5 24"></polygon>
                <polygon id="Path" points="196 25 189.5 6 196 6 206 25"></polygon>
                <polygon id="Path" points="222 26.5 219 12 227 13.25 230.5 25"></polygon>
                <polygon id="Path" points="248.5 26.167 245.5 17 254 17 254 25"></polygon>
            </g>
            <g id="Group" transform="translate(156.000000, 285.000000)">
                <path d="M336.5,127 C336.5,127 395,93 514,90.5 C633,88 720.227,93.319 788,115.5 C843,133.5 788,143.5 788,143.5 C788,143.5 706,132.5 677.5,131 C649,129.5 434,116.692 382.408,138.221 C346.214,153.325 336.5,127 336.5,127 Z" id="Path" fill="#06B7BF"></path>
                <polygon id="Path" fill="#076E73" points="782 113 799 12 818 158 824 179.301 1119.039 332 807.336 197.311 763 162"></polygon>
                <polygon id="Path" fill="#076E73" points="424 127 424 142 73.116 350 22 350"></polygon>
                <polygon id="Path" fill="#076E73" points="456 127 456 140 181.111 358 118 358"></polygon>
                <polygon id="Path" fill="#076E73" points="502.095 127 317.604 358 269.606 357.5 478.096 127 487.096 0.602"></polygon>
                <polygon id="Path" fill="#076E73" points="535.093 29.101 529.094 127 439.098 357.5 478.096 358 544.093 127"></polygon>
                <polygon id="Path" fill="#076E73" points="581 121 595 121 680.586 358 646.088 372"></polygon>
                <polygon id="Path" fill="#076E73" points="637 127 859.033 357.5 805.014 358 637 147.594"></polygon>
                <polygon id="Path" fill="#076E73" points="669 142 669 127 1000.07 350 942 350"></polygon>
                <polygon id="Path" fill="#076E73" points="711 127 731.019 138.111 1112.772 350 1048.379 357.5 711 147.593"></polygon>
                <polygon id="Path" fill="#076E73" points="752 105.333 759 29 778.333 135.5 791.58 161.093 1115.563 315.642 1124.563 358 718.942 152.535"></polygon>
                <polygon id="Path" fill="#076E73" points="771.764 112.25 783.882 26.125 801.836 158.913 865.632 190.268 1133.562 323.086 1140.75 363.5 782 166"></polygon>
                <polygon id="Path" fill="#076E73" points="338 72.667 325.94 149.957 0 326 0 349.401 338 150 350.668 131"></polygon>
                <polygon id="Path" fill="#076E73" points="350.667 72.833 362.001 121.083 373.92 138.708 5 353.667 5 331.667 336.835 145.999"></polygon>
            </g>
            <polygon id="Path" fill="#076E73" points="18.196 695.366 21.14 696.131 23.318 699.254 25.566 699.24 27.863 697.06 30.207 692.805 32.375 696.346 34.625 696.233 36.884 695.768 39.088 697.709 41.302 699.193 43.547 699.375 45.88 695.641 48.091 697.351 50.431 693.33 52.628 695.62 54.844 697.15 57.021 700.391 59.367 696.161 61.535 699.872 63.906 694.611 66.022 700.573 68.422 694.019 70.565 698.773 72.912 694.515 75.059 699.092 77.307 699.132 79.574 698.382 81.816 698.691 84.124 696.079 86.407 694.582 88.618 696.272 90.881 695.634 93.044 699.442 95.311 698.652 97.628 695.642 99.794 699.325 102.021 700.361 104.259 700.842 106.511 700.77 108.854 696.719 111.136 695.345 113.262 700.955 115.523 700.522 117.75 701.633 120.124 696.209 122.323 698.53 124.584 698.07 126.859 697 129.108 697.042 131.342 697.744 133.576 698.439 135.906 694.921 138.088 697.89 140.25 701.769 142.625 696.24 144.87 696.461 147.068 698.783 149.33 698.331 151.5 701.934 153.763 701.418 156.036 700.509 158.354 697.603 160.586 698.461 162.792 700.518 165.122 696.988 167.363 697.431 169.526 701.266 171.867 697.281 174.153 695.696 176.297 700.415 178.497 702.64 180.81 699.935 182.981 703.455 185.37 697.411 187.627 697.182 189.84 698.947 192.109 698.179 194.267 702.401 196.481 703.967 198.885 697.276 201.115 698.18 203.374 697.857 205.643 697.043 207.873 698.013 209.987 704.047 212.28 702.242 214.572 700.464 216.82 700.693 219 703.948 221.341 700.003 223.636 698.089 225.888 698.073 228.106 699.507 230.317 701.117 232.556 701.483 234.816 700.869 237.137 697.575 239.278 702.241 241.634 697.431 243.753 703.066 245.973 704.29 248.371 697.72 250.578 699.588 252.765 702.424 255.108 698.36 257.267 702.573 259.464 705.011 261.725 704.613 264.099 699.229 266.372 698.134 268.56 700.844 270.854 698.888 273.052 701.099 275.326 700.055 277.483 704.104 279.825 700.061 282.092 699.356 284.309 700.941 286.524 702.632 288.791 702.118 291.109 699.197 293.271 703.186 295.551 701.893 297.808 701.602 300.021 703.27 302.229 705.124 304.459 706.117 306.864 699.453 309.042 702.834 311.233 705.624 313.527 703.818 315.756 704.816 318.097 700.887 320.345 701.109 322.624 700.008 324.767 704.916 327.028 704.649 329.376 700.507 331.486 706.754 333.808 703.734 336.146 700.028 338.392 700.454 340.595 702.726 342.765 706.461 345.078 703.844 347.381 701.707 349.606 703.047 351.819 704.918 354.173 700.52 356.414 701.148 358.592 704.576 360.786 707.281 363.171 701.572 365.446 700.735 367.638 703.387 369.944 700.943 372.15 702.945 374.305 707.396 376.548 707.946 378.919 702.753 381.072 707.218 383.452 701.856 385.585 707.196 387.864 706.256 390.159 704.539 392.5 700.87 394.616 707.092 396.946 703.928 399.111 708.051 401.351 708.692 403.63 707.677 405.953 704.924 408.19 705.954 410.45 706.021 412.792 702.594 415.347 704.715 414.91 707.285 418.247 709.511 412.475 711.736 411.996 713.965 415.142 716.19 416.455 718.417 417.484 720.644 417.795 722.871 415.428 725.098 417.498 727.325 413.402 729.552 412.124 731.775 418.429 733.998 417.298 736.222 415.55 738.449 415.757 740.676 415.006 742.9 418.196 745.127 412.099 747.355 418.135 749.582 413.818 751.812 412.367 754.039 418.241 756.269 413.677 758.497 418.385 760.727 414.65 762.956 417.554 765.182 412.861 767.411 418.221 769.643 412.333 771.874 417.569 774.106 416.431 776.342 416.45 780.035 412.753 775.942 410.507 778.385 408.261 779.937 406.015 777.791 403.769 777.528 401.522 780.656 399.276 775.498 397.03 781.219 394.784 779.268 392.537 776.957 390.291 780.95 388.044 776.149 385.797 775.547 383.549 778.99 381.302 781.476 379.053 775.419 376.805 780.048 374.556 777.096 372.306 780.26 370.056 780.362 367.806 775.622 365.557 782.179 363.308 782.44 361.059 778.301 358.811 778.938 356.562 780.562 354.314 779.577 352.067 779.85 349.82 776.514 347.572 781.263 345.325 778.446 343.078 776.454 340.831 776.028 338.583 774.709 336.336 779.347 334.088 779.827 331.841 777.052 329.592 782.406 327.344 779.432 325.095 776.18 322.846 778.308 320.595 776.938 318.345 777.535 316.095 780.664 313.845 776.171 311.596 778.577 309.347 776.787 307.098 777.399 304.85 776.415 302.602 781.138 300.354 777.343 298.105 778.037 295.857 781.848 293.609 781.644 291.361 779.278 289.113 776.29 286.864 777.849 284.615 780.365 282.365 780.051 280.115 775.961 277.864 781.429 275.613 780.188 273.363 778.667 271.114 780.783 268.865 777.783 266.616 778.639 264.367 778.865 262.118 781.003 259.87 776.316 257.621 781.51 255.372 779.699 253.123 775.566 250.874 778.414 248.624 775.987 246.373 777.514 244.122 777.673 241.871 778.044 239.621 779.339 237.371 775.623 235.122 779.182 232.873 777.594 230.624 782.229 228.375 778.148 226.125 780.084 223.875 781.563 221.625 781.972 219.375 780.163 217.123 779.312 214.873 782.236 212.622 780.224 210.372 778.154 208.123 777.632 205.873 779.146 203.627 781.973 201.382 781.245 199.138 776.021 196.893 775.175 194.648 781.253 192.403 775.879 190.158 780.706 187.912 775.262 185.665 778.365 183.417 774.955 181.168 782.391 178.918 778.071 176.666 782.332 174.415 777.345 172.165 776.286 169.916 778.693 167.667 780.001 165.42 776.703 163.173 774.678 160.926 780.645 158.679 776.028 156.431 780.188 154.183 775.621 151.933 779.785 149.682 782.198 147.43 777.934 145.177 782.088 142.927 781.798 140.677 781.061 138.428 782.354 136.179 779.733 133.93 776.229 131.68 780.018 129.43 775.12 127.178 775.516 124.925 776.281 122.673 774.872 120.421 775.946 118.171 781.549 115.921 776.056 113.67 778.566 111.419 775.986 109.166 775.153 106.913 781.955 104.661 781.669 102.41 781.655 100.158 780.905 97.906 777.872 95.652 776.564 93.399 775.028 91.147 780.827 88.895 780.897 86.642 775.283 84.388 781.218 82.135 780.75 79.882 775.834 77.628 778.636 75.374 777.558 73.121 778.589 70.868 780.341 68.614 777.115 66.363 777.598 64.114 780.358 61.864 781.467 59.61 780.848 57.356 777.205 55.105 776.027 52.852 779.526 50.597 776.82 48.344 776.947 46.088 781.435 43.833 775.174 41.577 777.063 39.322 781.945 37.065 779.147 34.809 777.161 32.557 776.776 30.301 779.478 28.043 775.387 25.784 777.564 23.525 778.154 21.263 777.736 16.508 781.113 17.705 776.354 19.443 774.123 18.324 771.896 22.388 769.662 18.383 767.44 16.846 765.215 17.266 762.985 19.661 760.753 17.611 758.527 17.841 756.299 16.78 754.071 16.728 751.842 15.428 749.615 17.197 747.384 20.6 745.15 16.036 742.931 15.928 740.706 15.632 738.48 20.512 736.245 16.033 734.022 18.279 731.793 15.587 729.568 17.166 727.335 18.196 725.105 16.76 722.876 17.907 720.645 21.564 718.408 19.002 716.182 15.513 713.953 22.167 711.714 17.164 709.492 19.281 707.258 20.134 705.023 21.459 702.789 17.03 700.561 16.054 698.705"></polygon>
            <polygon id="Path" fill="#076E73" points="1458.303 696.798 1456.753 696.135 1454.437 693.113 1452.19 693.229 1449.995 695.513 1447.846 699.869 1445.52 696.43 1443.277 696.644 1441.042 697.211 1438.752 695.371 1436.472 693.99 1434.223 693.91 1432.061 697.746 1429.775 696.138 1427.619 700.26 1425.319 698.071 1423.038 696.644 1420.716 693.506 1418.563 697.837 1416.23 694.228 1414.1 699.59 1411.715 693.731 1409.615 700.388 1407.259 695.734 1405.107 700.095 1402.756 695.619 1400.507 695.682 1398.276 696.534 1396.022 696.326 1393.834 699.04 1391.621 700.639 1389.336 699.05 1387.105 699.791 1384.771 696.084 1382.543 696.977 1380.363 700.089 1378.033 696.507 1375.763 695.572 1373.504 695.193 1371.259 695.369 1369.101 699.521 1366.884 700.997 1364.507 695.489 1362.268 696.023 1359.993 695.016 1357.865 700.541 1355.564 698.321 1353.326 698.884 1351.103 700.057 1348.854 700.116 1346.59 699.516 1344.327 698.922 1342.159 702.543 1339.845 699.677 1337.509 695.899 1335.386 701.529 1333.134 701.41 1330.833 699.19 1328.594 699.745 1326.264 696.244 1324.025 696.861 1321.796 697.873 1319.611 700.882 1317.343 700.125 1315.048 698.17 1312.879 701.802 1310.62 701.461 1308.285 697.729 1306.127 701.814 1303.916 703.501 1301.561 698.885 1299.262 696.763 1297.074 699.569 1294.745 696.15 1292.633 702.297 1290.388 702.628 1288.097 700.965 1285.865 701.835 1283.519 697.715 1281.235 696.251 1279.138 703.044 1276.868 702.242 1274.627 702.666 1272.396 703.583 1270.125 702.715 1267.74 696.783 1265.531 698.689 1263.321 700.57 1261.065 700.443 1258.741 697.29 1256.582 701.337 1254.375 703.354 1252.126 703.471 1249.845 702.14 1247.559 700.631 1245.307 700.366 1243.076 701.082 1240.907 704.478 1238.557 699.914 1236.422 704.827 1234.049 699.293 1231.776 698.171 1229.678 704.843 1227.389 703.076 1225.076 700.342 1222.919 704.508 1220.572 700.397 1218.267 698.062 1216.024 698.561 1213.898 704.049 1211.676 705.245 1209.368 702.637 1207.165 704.694 1204.868 702.585 1202.646 703.73 1200.307 699.784 1198.151 703.93 1195.917 704.735 1193.632 703.252 1191.342 701.665 1189.102 702.28 1186.918 705.303 1184.578 701.416 1182.359 702.812 1180.117 703.205 1177.831 701.639 1175.541 699.886 1173.268 698.995 1171.168 705.762 1168.838 702.482 1166.523 699.794 1164.313 701.703 1162.042 700.807 1159.881 704.838 1157.626 704.717 1155.4 705.922 1153.037 701.115 1150.79 701.483 1148.633 705.729 1146.24 699.584 1144.059 702.705 1141.891 706.513 1139.628 706.19 1137.323 704.021 1134.987 700.387 1132.795 703.106 1130.592 705.346 1128.307 704.107 1126.013 702.339 1123.86 706.84 1121.594 706.312 1119.262 702.987 1116.949 700.385 1114.825 706.195 1112.59 707.135 1110.28 704.586 1108.088 707.131 1105.792 705.23 1103.438 700.881 1101.172 700.435 1099.039 705.729 1096.687 701.366 1094.553 706.831 1092.18 701.593 1089.945 702.635 1087.73 704.455 1085.558 708.226 1083.162 702.105 1080.979 705.373 1078.63 701.352 1076.362 700.812 1074.131 701.931 1071.936 704.785 1069.655 703.856 1067.395 703.894 1065.211 707.422 1063.239 705.404 1062.803 707.285 1066.14 709.511 1060.367 711.736 1059.888 713.965 1063.035 716.19 1064.348 718.417 1065.377 720.644 1065.688 722.871 1063.32 725.098 1065.39 727.325 1061.295 729.552 1060.016 731.775 1066.321 733.998 1065.19 736.222 1063.443 738.449 1063.65 740.676 1062.898 742.9 1066.089 745.127 1059.992 747.355 1066.028 749.582 1061.711 751.812 1060.26 754.039 1066.134 756.269 1061.569 758.497 1066.277 760.727 1062.543 762.956 1065.447 765.182 1060.753 767.411 1066.113 769.643 1060.226 771.874 1065.462 774.106 1064.323 776.342 1064.343 777.121 1065.139 781.214 1067.386 778.771 1069.632 777.22 1071.878 779.365 1074.123 779.628 1076.369 776.5 1078.615 781.658 1080.862 775.938 1083.108 777.889 1085.354 780.199 1087.602 776.206 1089.848 781.007 1092.095 781.609 1094.343 778.166 1096.591 775.681 1098.839 781.737 1101.088 777.108 1103.336 780.061 1105.586 776.896 1107.836 776.794 1110.086 781.534 1112.336 774.978 1114.585 774.716 1116.834 778.855 1119.082 778.219 1121.33 776.594 1123.578 777.579 1125.825 777.307 1128.072 780.643 1130.319 775.894 1132.566 778.71 1134.814 780.702 1137.062 781.128 1139.309 782.447 1141.557 777.81 1143.804 777.329 1146.052 780.104 1148.3 774.75 1150.549 777.725 1152.797 780.977 1155.047 778.849 1157.297 780.218 1159.547 779.621 1161.798 776.492 1164.047 780.985 1166.296 778.579 1168.545 780.369 1170.794 779.757 1173.042 780.741 1175.29 776.019 1177.538 779.813 1179.786 779.119 1182.034 775.309 1184.282 775.513 1186.53 777.878 1188.779 780.866 1191.027 779.308 1193.276 776.791 1195.526 777.105 1197.776 781.195 1200.027 775.728 1202.278 776.968 1204.528 778.489 1206.777 776.373 1209.026 779.373 1211.275 778.518 1213.525 778.291 1215.773 776.153 1218.022 780.84 1220.271 775.646 1222.52 777.457 1224.77 781.59 1227.019 778.742 1229.269 781.169 1231.52 779.643 1233.771 779.483 1236.021 779.112 1238.271 777.817 1240.521 781.533 1242.771 777.975 1245.02 779.562 1247.269 774.928 1249.519 779.008 1251.768 777.072 1254.018 775.593 1256.268 775.185 1258.519 776.993 1260.771 777.844 1263.021 774.92 1265.271 776.933 1267.521 779.002 1269.771 779.524 1272.021 778.011 1274.267 775.184 1276.511 775.911 1278.756 781.136 1281.001 781.981 1283.245 775.903 1285.49 781.277 1287.736 776.45 1289.981 781.895 1292.229 778.791 1294.477 782.201 1296.725 774.766 1298.976 779.085 1301.228 774.824 1303.479 779.812 1305.729 780.87 1307.978 778.463 1310.226 777.155 1312.474 780.453 1314.721 782.479 1316.968 776.512 1319.215 781.128 1321.463 776.969 1323.711 781.535 1325.961 777.371 1328.211 774.958 1330.464 779.223 1332.716 775.068 1334.967 775.358 1337.216 776.096 1339.466 774.802 1341.714 777.423 1343.963 780.928 1346.213 777.139 1348.463 782.036 1350.715 781.641 1352.968 780.875 1355.221 782.284 1357.471 781.211 1359.722 775.607 1361.972 781.101 1364.223 778.59 1366.474 781.17 1368.727 782.003 1370.98 775.201 1373.231 775.487 1375.483 775.501 1377.734 776.251 1379.986 779.284 1382.24 780.592 1384.493 782.128 1386.746 776.329 1388.998 776.259 1391.251 781.873 1393.505 775.938 1395.758 776.406 1398.011 781.322 1400.265 778.521 1402.519 779.599 1404.771 778.567 1407.025 776.815 1409.279 780.041 1411.529 779.559 1413.778 776.798 1416.029 775.689 1418.283 776.309 1420.536 779.951 1422.787 781.129 1425.041 777.63 1427.296 780.336 1429.549 780.209 1431.805 775.722 1434.06 781.982 1436.315 780.093 1438.571 775.211 1440.827 778.009 1443.084 779.995 1445.336 780.38 1447.592 777.679 1449.85 781.77 1452.108 779.592 1454.367 779.002 1456.63 779.42 1456.4 776.043 1457.604 776.35 1459.347 774.125 1458.233 771.895 1462.305 769.672 1458.305 767.438 1456.773 765.209 1457.199 762.981 1459.6 760.755 1457.556 758.523 1457.792 756.295 1456.737 754.065 1456.69 751.836 1455.396 749.605 1457.171 747.38 1460.579 745.154 1456.021 742.923 1455.919 740.698 1455.63 738.473 1460.514 736.249 1456.041 734.015 1458.293 731.791 1455.606 729.559 1457.191 727.331 1458.227 725.104 1456.798 722.87 1457.95 720.643 1461.613 718.416 1459.057 716.182 1455.574 713.944 1462.232 711.722 1457.235 709.488 1459.359 707.26 1460.218 705.027 1461.549 702.795 1457.125 700.555 1456.177 698.839"></polygon>
            <polygon id="Path" fill="#06B7BF" points="1454 765 1178 765 1008 765 1008 819 1174.887 839 1454 839"></polygon>
            <polygon id="Path" fill="#06B7BF" points="19 765 295 765 465 765 465 819 298.113 839 19 839"></polygon>
            <polygon id="Path" fill="#06B7BF" points="1464 657 13 657 13 629 490 629 1464 629"></polygon>
            <g id="Clipped" transform="translate(13.000000, 629.000000)">
                <mask id="mask-2" fill="white">
                    <use xlink:href="#path-1"></use>
                </mask>
                <g id="SVGID_1_"></g>
                <g id="Group" mask="url(#mask-2)">
                    <g transform="translate(8.000000, -5.000000)">
                        <g>
                            <polygon id="Path" fill="#076E73" points="14.963 35.938 12.863 36.064 10.723 35.751 8.58 36.162 6.437 36.209 4.294 35.916 2.147 35.888 0.068 35.964 1.341 34.189 2.143 32.073 3.536 30.294 4.386 28.201 5.634 26.339 6.688 24.362 7.474 22.234 8.916 20.478 9.786 18.397 11.397 16.737 12.201 14.617 13.545 12.811 14.606 10.839 15.473 8.752 16.826 6.942 17.623 4.815 18.645 2.812 19.95 0.917 22.137 0.653 24.277 1.243 26.42 0.936 28.563 1.096 30.706 1.281 32.853 1.071 34.922 1.042 33.875 2.934 33.009 5.013 31.62 6.795 30.82 8.916 29.312 10.63 28.193 12.57 27.247 14.605 26.022 16.486 24.88 18.412 23.99 20.483 22.875 22.426 21.492 24.211 20.587 26.272 19.257 28.094 18.367 30.167 17.067 32.007 16.367 34.198"></polygon>
                            <polygon id="Path" fill="#076E73" points="76.361 0.973 74.977 2.784 74.241 4.887 73.271 6.866 71.858 8.612 71.35 10.838 70.135 12.689 69.177 14.677 68.013 16.557 66.926 18.475 66.105 20.538 65.079 22.491 63.834 24.323 62.475 26.097 61.442 28.048 60.817 30.218 59.372 31.95 58.531 34.009 57.409 35.75 55.425 36.021 53.285 36.105 51.143 35.683 49 35.873 46.856 36.011 44.709 36.11 42.461 36.058 43.295 33.893 44.459 32.019 45.722 30.197 46.451 28.085 47.693 26.252 49.044 24.474 49.959 22.464 50.593 20.3 51.679 18.381 53.048 16.61 54.028 14.633 54.932 12.618 56.307 10.854 57.37 8.919 58.159 6.836 59.2 4.888 60.07 2.845 61.409 1.158 63.45 1.209 65.59 1.307 67.732 0.666 69.875 0.756 72.019 0.863 74.165 0.904"></polygon>
                            <polygon id="Path" fill="#076E73" points="117.332 1.16 116.451 2.981 115.347 4.999 114.795 7.295 113.235 9.086 112.222 11.151 111.264 13.244 110.297 15.334 109.288 17.401 108.232 19.448 107.276 21.543 106.312 23.631 105.096 25.595 104.423 27.834 102.936 29.667 102.148 31.851 101.254 33.983 100.22 36.146 97.988 35.703 95.848 36.303 93.705 36.046 91.562 35.819 89.419 36.089 87.272 35.711 85.219 35.949 86.219 33.979 87.27 31.935 88.342 29.898 89.54 27.927 90.474 25.821 91.526 23.775 92.022 21.45 93.291 19.512 94.31 17.448 95.679 15.56 96.431 13.366 97.711 11.434 98.572 9.288 99.502 7.177 100.28 4.989 101.345 2.94 102.589 0.944 104.762 1.324 106.902 1.135 109.045 0.932 111.188 0.801 113.331 0.959 115.467 1.271"></polygon>
                            <polygon id="Path" fill="#076E73" points="158.791 1.085 157.895 3.014 156.778 4.993 155.982 7.125 154.874 9.111 154.058 11.233 153.066 13.273 152.114 15.334 151.028 17.332 150.45 19.566 149.379 21.571 148.346 23.591 147.319 25.615 146.767 27.863 145.512 29.787 144.781 31.953 143.814 34.014 142.644 35.935 140.55 36.216 138.41 35.805 136.268 35.774 134.125 35.67 131.981 36.089 129.834 36.081 127.489 36.115 128.555 33.905 129.451 31.822 130.44 29.78 131.66 27.847 132.772 25.862 133.464 23.683 134.508 21.664 135.265 19.514 136.189 17.44 137.497 15.545 138.446 13.487 139.372 11.416 139.905 9.158 141.185 7.247 142.171 5.198 142.702 2.936 144.079 1.212 146.075 0.98 148.215 0.909 150.357 0.967 152.5 1.125 154.644 0.725 156.79 1.03"></polygon>
                            <polygon id="Path" fill="#076E73" points="200.492 0.852 199.101 2.939 198.26 5.013 197.74 7.226 196.492 9.124 195.842 11.281 195.233 13.456 194.36 15.519 193.173 17.446 192.441 19.569 191.729 21.701 190.312 23.527 189.415 25.578 189.042 27.857 188.17 29.924 187.3 31.991 185.971 33.865 185.322 36.105 183.113 36.116 180.973 35.87 178.83 35.702 176.687 35.761 174.544 36.127 172.397 35.69 170.356 35.935 171.366 34.046 172.061 31.91 172.959 29.86 173.737 27.759 174.36 25.591 175.626 23.697 176.413 21.598 177.589 19.666 178.377 17.566 178.993 15.394 180.026 13.403 180.862 11.325 181.542 9.178 182.449 7.127 183.24 5.026 184.649 3.187 185.17 0.883 187.387 0.872 189.527 0.988 191.67 1.324 193.813 1.177 195.956 0.945 198.097 0.804"></polygon>
                            <polygon id="Path" fill="#076E73" points="241.626 0.958 240.511 2.959 240.187 5.204 239.385 7.265 238.566 9.316 237.528 11.284 236.442 13.232 235.635 15.292 234.92 17.387 234.064 19.428 233.213 21.47 232.974 23.748 231.572 25.573 230.866 27.674 230.393 29.868 229.118 31.746 228.369 33.835 227.837 36.035 225.675 35.656 223.535 36.309 221.393 36.189 219.25 35.704 217.106 35.759 214.959 36.059 212.954 35.908 213.304 33.821 214.562 31.942 215.553 29.957 216.171 27.825 217.162 25.84 217.737 23.69 218.354 21.557 218.972 19.424 220.043 17.468 220.975 15.457 222.022 13.496 222.231 11.202 223.437 9.298 224.318 7.265 224.995 5.15 226.077 3.192 226.437 0.82 228.7 0.97 230.84 1.331 232.982 1.235 235.125 1.162 237.269 0.723 239.418 1.258"></polygon>
                            <polygon id="Path" fill="#076E73" points="282.963 0.939 281.961 2.99 281.3 5.072 280.396 7.069 279.903 9.212 279.194 11.279 278.273 13.271 277.576 15.343 277.216 17.534 276.395 19.563 275.321 21.501 274.907 23.671 274.309 25.777 273.168 27.693 272.34 29.722 271.613 31.787 270.869 33.849 270.426 36.07 268.238 36.202 266.098 36.182 263.955 35.878 261.812 35.689 259.669 35.678 257.522 36.14 255.145 36.158 255.936 33.884 256.946 31.927 257.697 29.874 258.319 27.777 258.825 25.639 260.047 23.755 260.557 21.615 261.424 19.604 262.101 17.524 262.494 15.344 263.644 13.437 264.408 11.39 265.246 9.365 265.393 7.094 266.403 5.13 267.168 3.075 268.041 1.231 270.012 1.043 272.152 1.288 274.295 0.817 276.438 1.102 278.581 1.035 280.725 0.768"></polygon>
                            <polygon id="Path" fill="#076E73" points="324.317 0.914 323.8 3.285 322.522 5.286 322.339 7.638 321.624 9.82 320.903 12 319.673 14.018 319.579 16.399 318.378 18.427 318.062 20.739 317.151 22.855 316.548 25.074 315.47 27.143 315.119 29.444 314.336 31.609 313.482 33.755 312.801 35.823 310.8 35.99 308.66 36.333 306.518 35.868 304.375 36.055 302.231 35.913 300.084 36.32 297.852 36.057 298.732 33.846 299.35 31.632 300.144 29.478 300.548 27.195 301.15 24.977 302.322 22.94 303.001 20.746 303.568 18.516 304.039 16.254 304.692 14.055 305.955 12.048 306.06 9.666 307.164 7.606 307.575 5.322 308.357 3.153 309.233 1.059 311.325 0.926 313.465 0.914 315.607 1.332 317.75 0.75 319.894 0.805 322.039 0.927"></polygon>
                            <polygon id="Path" fill="#076E73" points="365.63 0.909 364.947 3.204 364.187 5.352 363.4 7.49 363.088 9.766 362.495 11.96 361.706 14.101 361.3 16.35 360.5 18.486 359.635 20.605 359.479 22.923 358.933 25.132 357.906 27.206 357.561 29.475 356.556 31.557 355.802 33.714 355.611 36.14 353.363 35.743 351.223 36.273 349.08 35.77 346.937 35.793 344.794 36 342.647 36 340.682 35.857 340.803 33.717 341.958 31.686 342.163 29.384 343.042 27.271 343.521 25.043 344.193 22.87 345.13 20.773 345.301 18.457 346.175 16.341 346.427 14.051 347.633 12.03 348.17 9.815 348.837 7.638 348.963 5.306 349.662 3.133 350.426 0.906 352.637 1.253 354.777 0.902 356.92 0.66 359.063 0.861 361.206 0.94 363.356 1.147"></polygon>
                            <polygon id="Path" fill="#076E73" points="406.822 0.993 406.367 3.209 405.976 5.434 405.374 7.604 404.955 9.823 404.384 12.002 403.809 14.183 403.321 16.383 402.523 18.508 401.653 20.614 401.397 22.871 400.802 25.045 400.157 27.21 399.746 29.433 398.903 31.549 398.275 33.723 398.107 36.055 395.925 35.898 393.785 35.796 391.643 35.798 389.5 35.736 387.356 36.131 385.209 36.316 383.175 35.918 383.524 33.795 384.246 31.652 384.583 29.416 385.032 27.205 386.086 25.146 386.333 22.884 386.825 20.684 387.322 18.484 388.113 16.358 388.832 14.218 389.253 12 389.717 9.79 389.836 7.493 390.705 5.384 390.997 3.127 391.947 1.164 393.95 1.096 396.09 1.343 398.232 0.752 400.375 0.997 402.519 0.714 404.665 0.82"></polygon>
                            <polygon id="Path" fill="#076E73" points="448.027 1.075 447.753 3.204 447.236 5.38 446.992 7.613 446.384 9.77 446.068 11.987 445.12 14.072 444.962 16.326 444.199 18.449 444.228 20.743 443.248 22.817 443.139 25.08 442.562 27.247 442.197 29.459 441.537 31.607 440.777 33.738 440.729 36.124 438.488 35.924 436.348 36.342 434.205 35.668 432.062 36.325 429.919 36.043 427.772 35.662 425.59 36.026 426.388 33.88 426.77 31.675 427.171 29.476 427.313 27.219 428.229 25.13 428.352 22.868 428.992 20.718 429.073 18.448 429.761 16.308 429.971 14.069 430.542 11.904 431.031 9.72 431.839 7.603 431.988 5.345 432.982 3.264 433.253 1.152 435.262 1.057 437.402 1.013 439.545 1.263 441.688 1.121 443.831 1.01 445.973 1.274"></polygon>
                            <polygon id="Path" fill="#076E73" points="489.185 1.203 488.963 3.169 488.621 5.363 488.106 7.525 487.93 9.751 487.594 11.946 486.988 14.095 487.025 16.357 486.038 18.438 486.106 20.707 485.413 22.837 485.204 25.056 485.072 27.291 484.214 29.397 484.027 31.623 483.873 33.859 483.099 35.898 481.05 35.717 478.91 35.962 476.768 36.11 474.625 36.303 472.481 36.219 470.334 36.048 468.117 36.057 468.767 33.851 469.004 31.637 469.482 29.468 469.755 27.26 470.071 25.062 470.741 22.924 471.15 20.74 471.073 18.471 471.703 16.325 471.943 14.115 472.614 11.979 472.836 9.759 473.259 7.576 473.387 5.339 474.126 3.208 474.497 1.068 476.575 0.947 478.715 1.087 480.857 1.006 483 0.957 485.144 0.71 487.306 0.694"></polygon>
                            <polygon id="Path" fill="#076E73" points="531.016 0.776 530.203 3.15 530.118 5.369 529.476 7.507 529.427 9.73 529.338 11.948 528.979 14.129 528.562 16.301 528.472 18.519 527.857 20.663 527.971 22.907 527.152 25.021 526.74 27.197 526.956 29.462 526.144 31.58 526.264 33.835 525.602 35.834 523.613 36.111 521.473 35.829 519.33 35.864 517.187 36.036 515.044 35.699 512.897 36.198 510.625 36.104 510.742 33.771 511.64 31.668 511.492 29.417 511.775 27.227 512.361 25.08 512.43 22.858 513.212 20.738 512.915 18.465 513.745 16.352 513.773 14.127 514.234 11.962 514.409 9.753 514.727 7.565 514.786 5.339 515.744 3.237 515.735 0.983 517.887 1.07 520.027 0.681 522.17 0.696 524.313 1.347 526.456 1.126 528.62 1.346"></polygon>
                            <polygon id="Path" fill="#076E73" points="571.888 1.153 571.862 3.188 571.275 5.336 571.694 7.591 571.123 9.741 570.975 11.936 570.636 14.112 570.523 16.311 570.142 18.482 569.847 20.663 570.016 22.89 569.62 25.06 569.021 27.21 568.749 29.395 569.096 31.646 568.303 33.78 568.28 35.966 566.175 36.185 564.035 36.114 561.893 36.099 559.75 36.332 557.606 35.821 555.459 36.242 553.224 36.078 553.309 33.791 553.663 31.617 554.168 29.462 554.148 27.248 554.507 25.076 554.978 22.914 554.89 20.692 555.292 18.524 555.705 16.355 555.873 14.165 555.962 11.963 555.817 9.732 556.297 7.57 556.605 5.388 557.148 3.228 557.193 1.142 559.2 1.236 561.34 1.146 563.482 0.877 565.625 1.149 567.769 1.336 569.916 0.981"></polygon>
                            <polygon id="Path" fill="#076E73" points="613.481 0.902 612.996 3.168 613.313 5.388 613.078 7.566 612.565 9.728 612.752 11.938 612.638 14.129 612.098 16.287 612.047 18.481 611.796 20.662 611.532 22.838 611.536 25.036 611.248 27.216 611.234 29.415 610.91 31.594 611.067 33.81 610.846 35.97 608.738 36.177 606.598 36.019 604.455 35.763 602.312 35.964 600.169 36.183 598.022 35.965 595.855 36.019 595.995 33.813 596.26 31.635 596.215 29.437 596.476 27.257 596.589 25.068 597.015 22.9 597.241 20.719 597.062 18.508 596.94 16.301 597.262 14.129 597.919 11.979 598.036 9.786 598.227 7.6 598.147 5.393 598.523 3.215 598.219 0.837 600.512 1.155 602.652 0.924 604.795 0.959 606.938 0.667 609.081 1.331 611.227 0.931"></polygon>
                            <polygon id="Path" fill="#076E73" points="654.523 1.156 654.639 3.185 654.345 5.363 654.746 7.565 654.592 9.749 654.025 11.917 654.126 14.111 653.84 16.29 654.062 18.487 653.667 20.663 653.812 22.855 653.629 25.038 653.899 27.239 653.891 29.432 653.902 31.624 653.33 33.8 653.445 36.008 651.3 35.887 649.16 36.031 647.018 36.057 644.875 36.112 642.731 35.878 640.584 36.111 638.585 35.86 638.335 33.81 638.542 31.628 638.434 29.437 638.988 27.268 639.152 25.085 639.074 22.892 639.108 20.705 638.727 18.501 638.982 16.319 639.2 14.141 639.331 11.956 639.292 9.763 639.381 7.574 639.645 5.391 639.456 3.188 639.466 0.776 641.825 0.841 643.965 0.666 646.107 0.851 648.25 0.935 650.394 0.721 652.53 1.281"></polygon>
                            <polygon id="Path" fill="#076E73" points="695.948 35.949 693.863 36.064 691.723 35.751 689.58 36.162 687.438 36.209 685.294 35.916 683.147 35.888 681.055 35.946 681.266 33.816 680.912 31.63 681.239 29.445 680.938 27.259 681.099 25.073 681.033 22.886 680.659 20.699 681.04 18.513 680.763 16.325 681.339 14.142 680.984 11.955 681.255 9.766 681.198 7.576 680.916 5.387 681.192 3.193 680.877 0.88 683.137 0.723 685.277 0.903 687.42 0.653 689.563 1.243 691.706 0.936 693.853 1.096 695.8 1.197 695.929 3.184 695.911 5.37 695.983 7.555 696.262 9.741 695.94 11.927 696.298 14.114 695.839 16.301 695.831 18.487 696.019 20.675 695.888 22.858 695.852 25.045 696.107 27.234 696.103 29.424 695.788 31.613 696.025 33.807"></polygon>
                        </g>
                        <g transform="translate(716.000000, 0.000000)">
                            <polygon id="Path" fill="#076E73" points="681.963 36.062 684.137 35.936 686.277 36.249 688.42 35.838 690.563 35.791 692.706 36.084 694.854 36.112 697.067 36.036 696.121 33.926 694.705 32.161 693.879 30.058 692.508 28.262 691.538 26.241 690.369 24.329 688.935 22.572 688.153 20.438 686.803 18.632 686.191 16.402 684.772 14.633 683.898 12.557 682.738 10.642 681.38 8.836 680.508 6.752 679.079 4.985 677.874 3.088 676.95 1.083 674.863 1.347 672.723 0.757 670.58 1.064 668.438 0.904 666.294 0.719 664.146 0.929 661.922 0.958 663.095 2.951 664.446 4.753 665.276 6.854 666.698 8.621 667.409 10.79 668.512 12.738 669.785 14.588 670.783 16.598 671.863 18.559 673.195 20.376 674.303 22.324 675.14 24.422 676.456 26.247 677.35 28.318 678.684 30.138 679.609 32.192 681.143 33.908"></polygon>
                            <polygon id="Path" fill="#076E73" points="620.736 1.027 621.432 3.101 622.775 4.879 623.887 6.782 624.557 8.925 626.129 10.582 626.996 12.619 628.121 14.518 629.04 16.527 630.035 18.496 631.299 20.322 632.355 22.259 633.191 24.31 633.914 26.424 634.967 28.364 636.427 30.088 637.069 32.249 638.316 34.091 639.284 36.25 641.575 35.979 643.715 35.895 645.857 36.317 648 36.127 650.145 35.989 652.291 35.89 654.337 35.942 653.089 34.223 652.174 32.216 651.356 30.154 650.003 28.378 649.164 26.328 648.433 24.218 647.266 22.343 645.816 20.616 644.82 18.648 644.105 16.529 643.002 14.617 641.825 12.749 641.117 10.627 640.096 8.669 638.799 6.859 637.754 4.913 636.535 3.056 635.784 0.842 633.55 0.791 631.41 0.693 629.268 1.334 627.125 1.244 624.981 1.137 622.835 1.096"></polygon>
                            <polygon id="Path" fill="#076E73" points="579.082 0.84 580.256 3.128 581.207 5.222 582.713 7.041 583.21 9.363 584.255 11.413 585.354 13.436 586.445 15.463 587.495 17.511 588.498 19.583 589.601 21.605 590.691 23.629 591.534 25.78 592.921 27.662 593.495 29.952 594.77 31.891 595.939 33.888 596.971 35.854 599.012 36.297 601.152 35.697 603.295 35.954 605.438 36.181 607.582 35.911 609.729 36.289 611.969 36.051 610.914 33.912 609.909 31.845 608.924 29.766 608.065 27.624 606.941 25.614 605.936 23.545 604.373 21.753 603.584 19.574 602.544 17.521 601.854 15.292 600.551 13.374 599.773 11.191 598.574 9.216 597.443 7.204 596.159 5.269 595.159 3.188 594.339 1.056 592.238 0.676 590.098 0.865 587.955 1.068 585.812 1.199 583.669 1.041 581.531 0.729"></polygon>
                            <polygon id="Path" fill="#076E73" points="537.915 0.915 538.928 3.096 539.719 5.228 540.835 7.211 541.636 9.338 542.73 11.331 543.649 13.406 544.609 15.463 545.435 17.582 546.768 19.465 547.609 21.577 548.485 23.669 549.369 25.761 550.73 27.634 551.389 29.832 552.572 31.789 553.521 33.857 554.27 36.065 556.449 35.784 558.59 36.195 560.732 36.226 562.875 36.33 565.02 35.911 567.166 35.919 569.114 35.885 568.272 33.985 567.26 31.957 566.338 29.884 565.648 27.704 564.85 25.573 563.632 23.638 562.763 21.539 561.608 19.572 560.621 17.528 560.017 15.307 559.058 13.253 558.072 11.209 556.691 9.346 556.058 7.134 555.13 5.06 553.745 3.193 553.204 0.788 550.925 1.02 548.785 1.091 546.643 1.033 544.5 0.875 542.356 1.275 540.21 0.97"></polygon>
                            <polygon id="Path" fill="#076E73" points="496.991 1.148 497.361 3.17 498.283 5.208 499.527 7.11 500.04 9.325 501.156 11.283 502.311 13.224 503.202 15.278 503.778 17.468 504.812 19.462 505.864 21.447 506.208 23.732 507.075 25.798 508.469 27.64 509.364 29.695 510.261 31.751 510.702 34.006 511.822 35.895 513.887 35.884 516.027 36.13 518.17 36.298 520.313 36.239 522.456 35.873 524.604 36.31 526.856 36.065 526.104 33.845 525.037 31.869 524.172 29.804 523.188 27.792 522.047 25.845 521.549 23.623 520.57 21.605 519.983 19.421 519.008 17.402 517.858 15.458 517.13 13.337 516.201 11.299 515.114 9.325 514.256 7.254 513.279 5.231 512.919 2.942 511.67 1.117 509.613 1.128 507.473 1.012 505.33 0.676 503.188 0.823 501.044 1.055 498.903 1.196"></polygon>
                            <polygon id="Path" fill="#076E73" points="455.502 1.042 456 3.15 457.291 5.017 458.106 7.071 458.903 9.133 459.481 11.28 460.012 13.447 460.823 15.505 461.726 17.526 462.487 19.604 463.254 21.679 464.629 23.512 464.845 25.803 465.758 27.823 466.904 29.751 467.248 31.996 468.122 34.036 469.212 35.965 471.324 36.344 473.465 35.691 475.607 35.811 477.75 36.296 479.894 36.241 482.041 35.941 484.329 36.092 483.065 34.069 482.706 31.837 482.081 29.707 481.084 27.726 480.457 25.596 479.417 23.63 478.416 21.646 477.417 19.663 476.869 17.501 476.184 15.395 475.617 13.244 474.208 11.422 473.795 9.206 473.058 7.116 472.114 5.107 471.574 2.937 470.312 1.18 468.3 1.03 466.16 0.669 464.018 0.765 461.875 0.838 459.731 1.277 457.581 0.742"></polygon>
                            <polygon id="Path" fill="#076E73" points="414.213 1.061 414.679 3.119 415.485 5.148 416.052 7.268 417.028 9.237 417.79 11.285 418.337 13.409 419.11 15.454 420.221 17.379 420.87 19.468 421.267 21.647 422.32 23.589 423.193 25.598 423.524 27.803 424.168 29.897 424.914 31.955 425.645 34.022 426.676 35.93 428.762 35.798 430.902 35.818 433.045 36.122 435.188 36.311 437.331 36.322 439.479 35.86 441.395 35.842 440.719 34.007 440.261 31.853 439.54 29.79 438.693 27.773 437.73 25.797 437.482 23.565 436.521 21.588 435.92 19.482 435.126 17.444 434.048 15.508 433.729 13.304 433.023 11.235 432.391 9.139 431.064 7.287 430.603 5.129 429.893 3.054 429.291 0.769 426.988 0.957 424.848 0.712 422.705 1.183 420.562 0.898 418.419 0.965 416.274 1.232"></polygon>
                            <polygon id="Path" fill="#076E73" points="372.942 1.086 373.829 3.083 373.956 5.454 375.178 7.472 375.867 9.662 376.552 11.854 376.729 14.211 378.039 16.2 378.245 18.548 379.336 20.61 379.828 22.861 380.631 25.016 380.96 27.326 382.016 29.402 382.642 31.617 383.197 33.858 383.926 36.177 386.199 36.01 388.34 35.667 390.482 36.132 392.625 35.945 394.769 36.087 396.916 35.68 398.977 35.943 398.453 33.787 397.666 31.628 397.056 29.413 396.054 27.322 395.251 25.17 395.017 22.831 394.291 20.652 393.45 18.51 392.516 16.396 391.766 14.229 391.623 11.862 390.319 9.865 390.017 7.547 389.021 5.451 388.393 3.233 387.857 0.941 385.675 1.074 383.535 1.086 381.393 0.668 379.25 1.25 377.106 1.195 374.961 1.073"></polygon>
                            <polygon id="Path" fill="#076E73" points="331.631 1.091 332.195 3.163 332.684 5.389 333.145 7.619 334.082 9.717 334.739 11.894 335.198 14.128 336.043 16.252 336.493 18.488 336.878 20.744 337.97 22.794 338.673 24.958 338.896 27.263 339.803 29.372 340.049 31.67 340.549 33.899 341.611 35.86 343.637 36.257 345.777 35.727 347.92 36.23 350.062 36.207 352.206 36 354.354 36 356.682 36.143 355.555 33.916 355.461 31.574 354.417 29.507 354.047 27.247 353.276 25.104 352.699 22.901 352.387 20.625 351.309 18.568 350.933 16.31 349.938 14.232 349.894 11.88 349.18 9.716 348.595 7.515 347.471 5.468 346.916 3.254 346.426 1.094 344.363 0.747 342.223 1.098 340.08 1.34 337.938 1.139 335.794 1.06 333.644 0.853"></polygon>
                            <polygon id="Path" fill="#076E73" points="290.197 1.007 290.834 3.158 291.536 5.307 292.026 7.505 292.701 9.659 293.222 11.852 293.741 14.046 294.347 16.218 294.643 18.467 294.865 20.735 295.702 22.846 296.2 25.045 296.649 27.259 297.332 29.413 297.585 31.678 298.053 33.891 298.982 35.945 301.075 36.102 303.215 36.204 305.357 36.202 307.5 36.264 309.645 35.869 311.791 35.684 314.05 36.082 313.307 33.838 312.936 31.607 312.181 29.475 311.536 27.312 311.498 25 310.651 22.888 310.05 20.715 309.453 18.541 309.15 16.292 308.777 14.065 308.105 11.91 307.475 9.741 306.5 7.66 306.273 5.39 305.469 3.26 305.321 0.836 303.05 0.904 300.91 0.657 298.768 1.248 296.625 1.003 294.481 1.286 292.334 1.18"></polygon>
                            <polygon id="Path" fill="#076E73" points="248.777 0.925 249.439 3.163 249.858 5.36 250.551 7.496 250.88 9.713 251.501 11.866 251.491 14.156 252.27 16.276 252.443 18.525 253.409 20.606 253.365 22.899 254.193 25.01 254.555 27.222 255.129 29.389 255.406 31.619 255.588 33.875 256.479 35.876 258.513 36.076 260.652 35.658 262.795 36.332 264.938 35.675 267.081 35.957 269.229 36.338 271.341 35.974 271.203 33.753 270.646 31.585 270.113 29.415 269.317 27.299 269.297 25.017 268.48 22.903 268.185 20.681 267.328 18.577 267.079 16.343 266.353 14.214 265.987 12.006 265.538 9.812 265.408 7.55 264.619 5.429 264.673 3.123 264.004 0.848 261.738 0.943 259.598 0.987 257.455 0.737 255.312 0.879 253.169 0.99 251.026 0.726"></polygon>
                            <polygon id="Path" fill="#076E73" points="207.311 0.797 207.868 3.198 208.307 5.377 208.572 7.583 209.177 9.731 209.621 11.907 209.796 14.134 210.614 16.244 210.408 18.537 211.259 20.643 211.345 22.88 211.917 25.034 212.566 27.178 212.49 29.45 213.086 31.604 213.715 33.754 213.725 36.102 215.949 36.283 218.09 36.038 220.232 35.89 222.375 35.697 224.519 35.781 226.666 35.952 228.742 35.943 228.611 33.782 228.068 31.623 227.766 29.423 227.259 27.258 226.793 25.085 226.683 22.848 226.311 20.658 225.452 18.555 225.301 16.325 224.762 14.168 224.651 11.932 224.092 9.772 223.732 7.577 223.078 5.435 223.034 3.179 222.622 0.932 220.425 1.053 218.285 0.913 216.143 0.994 214 1.043 211.856 1.29 209.695 1.306"></polygon>
                            <polygon id="Path" fill="#076E73" points="166.516 1.224 166.327 3.217 166.866 5.371 166.849 7.603 167.426 9.752 167.961 11.905 168.227 14.1 168.434 16.301 168.968 18.456 168.978 20.687 169.716 22.81 169.521 25.068 169.736 27.271 170.577 29.386 170.391 31.646 171.137 33.778 171.102 36.166 173.388 35.889 175.527 36.171 177.67 36.136 179.812 35.964 181.956 36.301 184.104 35.802 186.125 35.896 185.617 33.862 185.892 31.592 185.118 29.474 184.777 27.291 184.74 25.066 184.184 22.913 184.341 20.66 183.419 18.561 183.624 16.299 183.027 14.156 182.865 11.948 182.413 9.778 182.105 7.588 181.539 5.435 181.871 3.149 181.234 1.017 179.112 0.93 176.973 1.319 174.83 1.304 172.687 0.653 170.544 0.874 168.377 0.654"></polygon>
                            <polygon id="Path" fill="#076E73" points="124.763 0.847 125.206 3.18 125.086 5.404 125.974 7.519 125.871 9.741 126.19 11.918 126.322 14.116 126.677 16.289 126.764 18.492 126.937 20.687 127.574 22.827 127.647 25.03 127.519 27.259 127.714 29.451 128.53 31.58 128.208 33.833 128.655 36.034 130.824 35.815 132.965 35.886 135.107 35.901 137.25 35.668 139.394 36.179 141.541 35.758 143.599 35.922 143.216 33.842 143.102 31.643 143.14 29.429 142.88 27.27 143 25.07 143 22.857 142.215 20.707 142.034 18.501 141.921 16.295 141.592 14.118 141.199 11.947 140.578 9.799 140.586 7.584 140.422 5.386 140.494 3.159 140.068 0.858 137.8 0.764 135.66 0.854 133.518 1.123 131.375 0.851 129.231 0.664 127.083 1.019"></polygon>
                            <polygon id="Path" fill="#076E73" points="83.731 1.097 83.559 3.199 84.188 5.353 84.265 7.542 84.063 9.755 84.562 11.916 84.761 14.1 84.533 16.314 84.796 18.493 84.857 20.688 84.904 22.879 85.221 25.054 85.245 27.253 85.545 29.431 85.533 31.633 86.005 33.804 86.097 36.03 88.263 35.823 90.402 35.981 92.545 36.237 94.688 36.036 96.831 35.817 98.979 36.035 101.105 35.981 100.932 33.819 100.886 31.625 100.529 29.454 100.478 27.261 100.278 25.078 100.392 22.871 100.306 20.681 99.814 18.518 99.38 16.35 99.39 14.154 99.733 11.932 99.538 9.745 99.416 7.555 99.023 5.381 99.086 3.172 98.469 1.163 96.487 0.845 94.348 1.076 92.205 1.041 90.062 1.333 87.919 0.669 85.773 1.069"></polygon>
                            <polygon id="Path" fill="#076E73" points="42.148 0.844 42.42 3.183 42.282 5.377 42.84 7.544 42.842 9.733 42.431 11.937 42.688 14.117 42.559 16.312 42.937 18.487 42.697 20.687 42.998 22.861 42.971 25.052 43.398 27.229 43.546 29.416 43.714 31.603 43.298 33.813 43.57 35.992 45.7 36.113 47.84 35.969 49.982 35.943 52.125 35.888 54.269 36.122 56.416 35.889 58.71 36.14 58.304 33.823 58.354 31.631 58.09 29.454 58.488 27.25 58.496 25.062 58.262 22.88 58.14 20.694 57.602 18.524 57.701 16.331 57.764 14.143 57.738 11.954 57.542 9.769 57.475 7.579 57.582 5.383 57.237 3.199 57.091 1.224 55.175 1.159 53.035 1.334 50.893 1.149 48.75 1.065 46.606 1.279 44.469 0.719"></polygon>
                            <polygon id="Path" fill="#076E73" points="0.948 36.051 3.138 35.936 5.277 36.249 7.42 35.838 9.562 35.791 11.706 36.084 13.854 36.112 16.055 36.054 16.266 33.816 15.912 31.63 16.239 29.445 15.938 27.259 16.099 25.073 16.033 22.886 15.658 20.699 16.04 18.513 15.764 16.325 16.339 14.142 15.984 11.955 16.255 9.766 16.198 7.576 15.915 5.387 16.192 3.193 15.877 1.12 13.862 1.277 11.723 1.097 9.58 1.347 7.438 0.757 5.294 1.064 3.146 0.904 0.8 0.803 0.929 3.184 0.911 5.37 0.983 7.555 1.262 9.741 0.94 11.927 1.298 14.114 0.839 16.301 0.831 18.487 1.019 20.675 0.888 22.858 0.852 25.045 1.107 27.234 1.103 29.424 0.788 31.613 1.025 33.807"></polygon>
                        </g>
                    </g>
                </g>
            </g>
            <g id="Group" transform="translate(612.000000, 206.000000)" fill="#076E73">
                <polygon id="Path" points="21.5 138 30.5 0.5 35.596 140"></polygon>
                <polygon id="Path" points="14 137 6.5 91.5 0 137"></polygon>
            </g>
        </g>
    </g>
</svg>