<?xml version="1.0" encoding="UTF-8"?>
<svg width="253px" height="275px" viewBox="0 0 253 275" version="1.1" xmlns="http://www.w3.org/2000/svg" xmlns:xlink="http://www.w3.org/1999/xlink">
    <!-- Generator: Sketch 52.5 (67469) - http://www.bohemiancoding.com/sketch -->
    <title>wheel</title>
    <desc>Created with Sketch.</desc>
    <defs>
        <path d="M13.355,13.206 C13.355,14.035 12.684,14.706 11.855,14.706 L3.855,14.706 C3.027,14.706 2.355,14.035 2.355,13.206 L0.355,7.401 L2.355,1.596 C2.355,0.767 3.027,0.096 3.855,0.096 L11.855,0.096 C12.684,0.096 13.355,0.767 13.355,1.596 L15.355,7.401 L13.355,13.206 Z" id="path-1"></path>
        <path d="M13.355,13.206 C13.355,14.035 12.684,14.706 11.855,14.706 L3.855,14.706 C3.027,14.706 2.355,14.035 2.355,13.206 L0.355,7.401 L2.355,1.596 C2.355,0.767 3.027,0.096 3.855,0.096 L11.855,0.096 C12.684,0.096 13.355,0.767 13.355,1.596 L15.355,7.401 L13.355,13.206 Z" id="path-3"></path>
        <path d="M13.355,13.206 C13.355,14.035 12.684,14.706 11.855,14.706 L3.855,14.706 C3.027,14.706 2.355,14.035 2.355,13.206 L0.355,7.401 L2.355,1.596 C2.355,0.767 3.027,0.096 3.855,0.096 L11.855,0.096 C12.684,0.096 13.355,0.767 13.355,1.596 L15.355,7.401 L13.355,13.206 Z" id="path-5"></path>
        <path d="M13.355,13.206 C13.355,14.035 12.684,14.706 11.855,14.706 L3.855,14.706 C3.027,14.706 2.355,14.035 2.355,13.206 L0.355,7.401 L2.355,1.596 C2.355,0.767 3.027,0.096 3.855,0.096 L11.855,0.096 C12.684,0.096 13.355,0.767 13.355,1.596 L15.355,7.401 L13.355,13.206 Z" id="path-7"></path>
        <path d="M13.355,13.206 C13.355,14.035 12.684,14.706 11.855,14.706 L3.855,14.706 C3.027,14.706 2.355,14.035 2.355,13.206 L0.355,7.401 L2.355,1.596 C2.355,0.767 3.027,0.096 3.855,0.096 L11.855,0.096 C12.684,0.096 13.355,0.767 13.355,1.596 L15.355,7.401 L13.355,13.206 Z" id="path-9"></path>
        <path d="M13.55,13.123 C13.55,13.952 12.879,14.623 12.05,14.623 L4.05,14.623 C3.221,14.623 2.55,13.952 2.55,13.123 L0.55,7.318 L2.55,1.513 C2.55,0.684 3.221,0.013 4.05,0.013 L12.05,0.013 C12.879,0.013 13.55,0.684 13.55,1.513 L15.55,7.318 L13.55,13.123 Z" id="path-11"></path>
        <path d="M13.55,13.123 C13.55,13.952 12.879,14.623 12.05,14.623 L4.05,14.623 C3.221,14.623 2.55,13.952 2.55,13.123 L0.55,7.318 L2.55,1.513 C2.55,0.684 3.221,0.013 4.05,0.013 L12.05,0.013 C12.879,0.013 13.55,0.684 13.55,1.513 L15.55,7.318 L13.55,13.123 Z" id="path-13"></path>
        <path d="M13.55,13.123 C13.55,13.952 12.879,14.623 12.05,14.623 L4.05,14.623 C3.221,14.623 2.55,13.952 2.55,13.123 L0.55,7.318 L2.55,1.513 C2.55,0.684 3.221,0.013 4.05,0.013 L12.05,0.013 C12.879,0.013 13.55,0.684 13.55,1.513 L15.55,7.318 L13.55,13.123 Z" id="path-15"></path>
        <path d="M13.55,13.123 C13.55,13.952 12.879,14.623 12.05,14.623 L4.05,14.623 C3.221,14.623 2.55,13.952 2.55,13.123 L0.55,7.318 L2.55,1.513 C2.55,0.684 3.221,0.013 4.05,0.013 L12.05,0.013 C12.879,0.013 13.55,0.684 13.55,1.513 L15.55,7.318 L13.55,13.123 Z" id="path-17"></path>
        <path d="M13.55,13.123 C13.55,13.952 12.879,14.623 12.05,14.623 L4.05,14.623 C3.221,14.623 2.55,13.952 2.55,13.123 L0.55,7.318 L2.55,1.513 C2.55,0.684 3.221,0.013 4.05,0.013 L12.05,0.013 C12.879,0.013 13.55,0.684 13.55,1.513 L15.55,7.318 L13.55,13.123 Z" id="path-19"></path>
        <path d="M13.654,13.366 C13.654,14.195 12.983,14.866 12.154,14.866 L4.154,14.866 C3.325,14.866 2.654,14.195 2.654,13.366 L0.654,7.561 L2.654,1.756 C2.654,0.927 3.325,0.256 4.154,0.256 L12.154,0.256 C12.983,0.256 13.654,0.927 13.654,1.756 L15.654,7.561 L13.654,13.366 Z" id="path-21"></path>
        <path d="M13.654,13.366 C13.654,14.195 12.983,14.866 12.154,14.866 L4.154,14.866 C3.325,14.866 2.654,14.195 2.654,13.366 L0.654,7.561 L2.654,1.756 C2.654,0.927 3.325,0.256 4.154,0.256 L12.154,0.256 C12.983,0.256 13.654,0.927 13.654,1.756 L15.654,7.561 L13.654,13.366 Z" id="path-23"></path>
        <path d="M13.654,13.366 C13.654,14.195 12.983,14.866 12.154,14.866 L4.154,14.866 C3.325,14.866 2.654,14.195 2.654,13.366 L0.654,7.561 L2.654,1.756 C2.654,0.927 3.325,0.256 4.154,0.256 L12.154,0.256 C12.983,0.256 13.654,0.927 13.654,1.756 L15.654,7.561 L13.654,13.366 Z" id="path-25"></path>
        <path d="M13.654,13.366 C13.654,14.195 12.983,14.866 12.154,14.866 L4.154,14.866 C3.325,14.866 2.654,14.195 2.654,13.366 L0.654,7.561 L2.654,1.756 C2.654,0.927 3.325,0.256 4.154,0.256 L12.154,0.256 C12.983,0.256 13.654,0.927 13.654,1.756 L15.654,7.561 L13.654,13.366 Z" id="path-27"></path>
        <path d="M13.654,13.366 C13.654,14.195 12.983,14.866 12.154,14.866 L4.154,14.866 C3.325,14.866 2.654,14.195 2.654,13.366 L0.654,7.561 L2.654,1.756 C2.654,0.927 3.325,0.256 4.154,0.256 L12.154,0.256 C12.983,0.256 13.654,0.927 13.654,1.756 L15.654,7.561 L13.654,13.366 Z" id="path-29"></path>
        <path d="M13.1,13.881 C13.1,14.71 12.429,15.381 11.6,15.381 L3.6,15.381 C2.771,15.381 2.1,14.71 2.1,13.881 L0.1,8.076 L2.1,2.271 C2.1,1.442 2.771,0.771 3.6,0.771 L11.6,0.771 C12.429,0.771 13.1,1.442 13.1,2.271 L15.1,8.076 L13.1,13.881 Z" id="path-31"></path>
        <path d="M13.1,13.881 C13.1,14.71 12.429,15.381 11.6,15.381 L3.6,15.381 C2.771,15.381 2.1,14.71 2.1,13.881 L0.1,8.076 L2.1,2.271 C2.1,1.442 2.771,0.771 3.6,0.771 L11.6,0.771 C12.429,0.771 13.1,1.442 13.1,2.271 L15.1,8.076 L13.1,13.881 Z" id="path-33"></path>
        <path d="M13.1,13.881 C13.1,14.71 12.429,15.381 11.6,15.381 L3.6,15.381 C2.771,15.381 2.1,14.71 2.1,13.881 L0.1,8.076 L2.1,2.271 C2.1,1.442 2.771,0.771 3.6,0.771 L11.6,0.771 C12.429,0.771 13.1,1.442 13.1,2.271 L15.1,8.076 L13.1,13.881 Z" id="path-35"></path>
        <path d="M13.1,13.881 C13.1,14.71 12.429,15.381 11.6,15.381 L3.6,15.381 C2.771,15.381 2.1,14.71 2.1,13.881 L0.1,8.076 L2.1,2.271 C2.1,1.442 2.771,0.771 3.6,0.771 L11.6,0.771 C12.429,0.771 13.1,1.442 13.1,2.271 L15.1,8.076 L13.1,13.881 Z" id="path-37"></path>
        <path d="M13.1,13.881 C13.1,14.71 12.429,15.381 11.6,15.381 L3.6,15.381 C2.771,15.381 2.1,14.71 2.1,13.881 L0.1,8.076 L2.1,2.271 C2.1,1.442 2.771,0.771 3.6,0.771 L11.6,0.771 C12.429,0.771 13.1,1.442 13.1,2.271 L15.1,8.076 L13.1,13.881 Z" id="path-39"></path>
        <path d="M13.098,13.692 C13.098,14.521 12.427,15.192 11.598,15.192 L3.598,15.192 C2.769,15.192 2.098,14.521 2.098,13.692 L0.098,7.887 L2.098,2.082 C2.098,1.253 2.769,0.582 3.598,0.582 L11.598,0.582 C12.427,0.582 13.098,1.253 13.098,2.082 L15.098,7.887 L13.098,13.692 Z" id="path-41"></path>
        <path d="M13.098,13.692 C13.098,14.521 12.427,15.192 11.598,15.192 L3.598,15.192 C2.769,15.192 2.098,14.521 2.098,13.692 L0.098,7.887 L2.098,2.082 C2.098,1.253 2.769,0.582 3.598,0.582 L11.598,0.582 C12.427,0.582 13.098,1.253 13.098,2.082 L15.098,7.887 L13.098,13.692 Z" id="path-43"></path>
        <path d="M13.098,13.692 C13.098,14.521 12.427,15.192 11.598,15.192 L3.598,15.192 C2.769,15.192 2.098,14.521 2.098,13.692 L0.098,7.887 L2.098,2.082 C2.098,1.253 2.769,0.582 3.598,0.582 L11.598,0.582 C12.427,0.582 13.098,1.253 13.098,2.082 L15.098,7.887 L13.098,13.692 Z" id="path-45"></path>
        <path d="M13.098,13.692 C13.098,14.521 12.427,15.192 11.598,15.192 L3.598,15.192 C2.769,15.192 2.098,14.521 2.098,13.692 L0.098,7.887 L2.098,2.082 C2.098,1.253 2.769,0.582 3.598,0.582 L11.598,0.582 C12.427,0.582 13.098,1.253 13.098,2.082 L15.098,7.887 L13.098,13.692 Z" id="path-47"></path>
        <path d="M13.098,13.692 C13.098,14.521 12.427,15.192 11.598,15.192 L3.598,15.192 C2.769,15.192 2.098,14.521 2.098,13.692 L0.098,7.887 L2.098,2.082 C2.098,1.253 2.769,0.582 3.598,0.582 L11.598,0.582 C12.427,0.582 13.098,1.253 13.098,2.082 L15.098,7.887 L13.098,13.692 Z" id="path-49"></path>
        <path d="M13.303,13.356 C13.303,14.185 12.632,14.856 11.803,14.856 L3.803,14.856 C2.974,14.856 2.303,14.185 2.303,13.356 L0.303,7.551 L2.303,1.746 C2.303,0.917 2.974,0.246 3.803,0.246 L11.803,0.246 C12.632,0.246 13.303,0.917 13.303,1.746 L15.303,7.551 L13.303,13.356 Z" id="path-51"></path>
        <path d="M13.303,13.356 C13.303,14.185 12.632,14.856 11.803,14.856 L3.803,14.856 C2.974,14.856 2.303,14.185 2.303,13.356 L0.303,7.551 L2.303,1.746 C2.303,0.917 2.974,0.246 3.803,0.246 L11.803,0.246 C12.632,0.246 13.303,0.917 13.303,1.746 L15.303,7.551 L13.303,13.356 Z" id="path-53"></path>
        <path d="M13.303,13.356 C13.303,14.185 12.632,14.856 11.803,14.856 L3.803,14.856 C2.974,14.856 2.303,14.185 2.303,13.356 L0.303,7.551 L2.303,1.746 C2.303,0.917 2.974,0.246 3.803,0.246 L11.803,0.246 C12.632,0.246 13.303,0.917 13.303,1.746 L15.303,7.551 L13.303,13.356 Z" id="path-55"></path>
        <path d="M13.303,13.356 C13.303,14.185 12.632,14.856 11.803,14.856 L3.803,14.856 C2.974,14.856 2.303,14.185 2.303,13.356 L0.303,7.551 L2.303,1.746 C2.303,0.917 2.974,0.246 3.803,0.246 L11.803,0.246 C12.632,0.246 13.303,0.917 13.303,1.746 L15.303,7.551 L13.303,13.356 Z" id="path-57"></path>
        <path d="M13.303,13.356 C13.303,14.185 12.632,14.856 11.803,14.856 L3.803,14.856 C2.974,14.856 2.303,14.185 2.303,13.356 L0.303,7.551 L2.303,1.746 C2.303,0.917 2.974,0.246 3.803,0.246 L11.803,0.246 C12.632,0.246 13.303,0.917 13.303,1.746 L15.303,7.551 L13.303,13.356 Z" id="path-59"></path>
        <path d="M13.611,13.547 C13.611,14.376 12.94,15.047 12.111,15.047 L4.111,15.047 C3.282,15.047 2.611,14.376 2.611,13.547 L0.611,7.742 L2.611,1.937 C2.611,1.108 3.282,0.437 4.111,0.437 L12.111,0.437 C12.94,0.437 13.611,1.108 13.611,1.937 L15.611,7.742 L13.611,13.547 Z" id="path-61"></path>
        <path d="M13.611,13.547 C13.611,14.376 12.94,15.047 12.111,15.047 L4.111,15.047 C3.282,15.047 2.611,14.376 2.611,13.547 L0.611,7.742 L2.611,1.937 C2.611,1.108 3.282,0.437 4.111,0.437 L12.111,0.437 C12.94,0.437 13.611,1.108 13.611,1.937 L15.611,7.742 L13.611,13.547 Z" id="path-63"></path>
        <path d="M13.611,13.547 C13.611,14.376 12.94,15.047 12.111,15.047 L4.111,15.047 C3.282,15.047 2.611,14.376 2.611,13.547 L0.611,7.742 L2.611,1.937 C2.611,1.108 3.282,0.437 4.111,0.437 L12.111,0.437 C12.94,0.437 13.611,1.108 13.611,1.937 L15.611,7.742 L13.611,13.547 Z" id="path-65"></path>
        <path d="M13.611,13.547 C13.611,14.376 12.94,15.047 12.111,15.047 L4.111,15.047 C3.282,15.047 2.611,14.376 2.611,13.547 L0.611,7.742 L2.611,1.937 C2.611,1.108 3.282,0.437 4.111,0.437 L12.111,0.437 C12.94,0.437 13.611,1.108 13.611,1.937 L15.611,7.742 L13.611,13.547 Z" id="path-67"></path>
        <path d="M13.611,13.547 C13.611,14.376 12.94,15.047 12.111,15.047 L4.111,15.047 C3.282,15.047 2.611,14.376 2.611,13.547 L0.611,7.742 L2.611,1.937 C2.611,1.108 3.282,0.437 4.111,0.437 L12.111,0.437 C12.94,0.437 13.611,1.108 13.611,1.937 L15.611,7.742 L13.611,13.547 Z" id="path-69"></path>
        <path d="M13.942,13.312 C13.942,14.141 13.271,14.812 12.442,14.812 L4.442,14.812 C3.613,14.812 2.942,14.141 2.942,13.312 L0.942,7.507 L2.942,1.702 C2.942,0.873 3.613,0.202 4.442,0.202 L12.442,0.202 C13.271,0.202 13.942,0.873 13.942,1.702 L15.942,7.507 L13.942,13.312 Z" id="path-71"></path>
        <path d="M13.942,13.312 C13.942,14.141 13.271,14.812 12.442,14.812 L4.442,14.812 C3.613,14.812 2.942,14.141 2.942,13.312 L0.942,7.507 L2.942,1.702 C2.942,0.873 3.613,0.202 4.442,0.202 L12.442,0.202 C13.271,0.202 13.942,0.873 13.942,1.702 L15.942,7.507 L13.942,13.312 Z" id="path-73"></path>
        <path d="M13.942,13.312 C13.942,14.141 13.271,14.812 12.442,14.812 L4.442,14.812 C3.613,14.812 2.942,14.141 2.942,13.312 L0.942,7.507 L2.942,1.702 C2.942,0.873 3.613,0.202 4.442,0.202 L12.442,0.202 C13.271,0.202 13.942,0.873 13.942,1.702 L15.942,7.507 L13.942,13.312 Z" id="path-75"></path>
        <path d="M13.942,13.312 C13.942,14.141 13.271,14.812 12.442,14.812 L4.442,14.812 C3.613,14.812 2.942,14.141 2.942,13.312 L0.942,7.507 L2.942,1.702 C2.942,0.873 3.613,0.202 4.442,0.202 L12.442,0.202 C13.271,0.202 13.942,0.873 13.942,1.702 L15.942,7.507 L13.942,13.312 Z" id="path-77"></path>
        <path d="M13.942,13.312 C13.942,14.141 13.271,14.812 12.442,14.812 L4.442,14.812 C3.613,14.812 2.942,14.141 2.942,13.312 L0.942,7.507 L2.942,1.702 C2.942,0.873 3.613,0.202 4.442,0.202 L12.442,0.202 C13.271,0.202 13.942,0.873 13.942,1.702 L15.942,7.507 L13.942,13.312 Z" id="path-79"></path>
        <path d="M13.943,13.525 C13.943,14.354 13.272,15.025 12.443,15.025 L4.443,15.025 C3.614,15.025 2.943,14.354 2.943,13.525 L0.943,7.72 L2.943,1.915 C2.943,1.086 3.614,0.415 4.443,0.415 L12.443,0.415 C13.272,0.415 13.943,1.086 13.943,1.915 L15.943,7.72 L13.943,13.525 Z" id="path-81"></path>
        <path d="M13.943,13.525 C13.943,14.354 13.272,15.025 12.443,15.025 L4.443,15.025 C3.614,15.025 2.943,14.354 2.943,13.525 L0.943,7.72 L2.943,1.915 C2.943,1.086 3.614,0.415 4.443,0.415 L12.443,0.415 C13.272,0.415 13.943,1.086 13.943,1.915 L15.943,7.72 L13.943,13.525 Z" id="path-83"></path>
        <path d="M13.943,13.525 C13.943,14.354 13.272,15.025 12.443,15.025 L4.443,15.025 C3.614,15.025 2.943,14.354 2.943,13.525 L0.943,7.72 L2.943,1.915 C2.943,1.086 3.614,0.415 4.443,0.415 L12.443,0.415 C13.272,0.415 13.943,1.086 13.943,1.915 L15.943,7.72 L13.943,13.525 Z" id="path-85"></path>
        <path d="M13.943,13.525 C13.943,14.354 13.272,15.025 12.443,15.025 L4.443,15.025 C3.614,15.025 2.943,14.354 2.943,13.525 L0.943,7.72 L2.943,1.915 C2.943,1.086 3.614,0.415 4.443,0.415 L12.443,0.415 C13.272,0.415 13.943,1.086 13.943,1.915 L15.943,7.72 L13.943,13.525 Z" id="path-87"></path>
        <path d="M13.943,13.525 C13.943,14.354 13.272,15.025 12.443,15.025 L4.443,15.025 C3.614,15.025 2.943,14.354 2.943,13.525 L0.943,7.72 L2.943,1.915 C2.943,1.086 3.614,0.415 4.443,0.415 L12.443,0.415 C13.272,0.415 13.943,1.086 13.943,1.915 L15.943,7.72 L13.943,13.525 Z" id="path-89"></path>
        <path d="M13.443,13.642 C13.443,14.471 12.772,15.142 11.943,15.142 L3.943,15.142 C3.114,15.142 2.443,14.471 2.443,13.642 L0.443,7.837 L2.443,2.032 C2.443,1.203 3.114,0.532 3.943,0.532 L11.943,0.532 C12.772,0.532 13.443,1.203 13.443,2.032 L15.443,7.837 L13.443,13.642 Z" id="path-91"></path>
        <path d="M13.443,13.642 C13.443,14.471 12.772,15.142 11.943,15.142 L3.943,15.142 C3.114,15.142 2.443,14.471 2.443,13.642 L0.443,7.837 L2.443,2.032 C2.443,1.203 3.114,0.532 3.943,0.532 L11.943,0.532 C12.772,0.532 13.443,1.203 13.443,2.032 L15.443,7.837 L13.443,13.642 Z" id="path-93"></path>
        <path d="M13.443,13.642 C13.443,14.471 12.772,15.142 11.943,15.142 L3.943,15.142 C3.114,15.142 2.443,14.471 2.443,13.642 L0.443,7.837 L2.443,2.032 C2.443,1.203 3.114,0.532 3.943,0.532 L11.943,0.532 C12.772,0.532 13.443,1.203 13.443,2.032 L15.443,7.837 L13.443,13.642 Z" id="path-95"></path>
        <path d="M13.443,13.642 C13.443,14.471 12.772,15.142 11.943,15.142 L3.943,15.142 C3.114,15.142 2.443,14.471 2.443,13.642 L0.443,7.837 L2.443,2.032 C2.443,1.203 3.114,0.532 3.943,0.532 L11.943,0.532 C12.772,0.532 13.443,1.203 13.443,2.032 L15.443,7.837 L13.443,13.642 Z" id="path-97"></path>
        <path d="M13.443,13.642 C13.443,14.471 12.772,15.142 11.943,15.142 L3.943,15.142 C3.114,15.142 2.443,14.471 2.443,13.642 L0.443,7.837 L2.443,2.032 C2.443,1.203 3.114,0.532 3.943,0.532 L11.943,0.532 C12.772,0.532 13.443,1.203 13.443,2.032 L15.443,7.837 L13.443,13.642 Z" id="path-99"></path>
    </defs>
    <g id="Page-1" stroke="none" stroke-width="1" fill="none" fill-rule="evenodd">
        <g id="wheel" transform="translate(0.000000, 1.000000)">
            <g id="Cart_29_" transform="translate(9.000000, 156.000000)">
                <path d="M13.355,3.596 C13.355,2.767 12.684,2.096 11.855,2.096 L3.855,2.096 C3.027,2.096 2.355,2.767 2.355,3.596 L0.355,9.401 L2.355,15.206 C2.355,16.035 3.027,16.706 3.855,16.706 L11.855,16.706 C12.684,16.706 13.355,16.035 13.355,15.206 L15.355,9.401 L13.355,3.596 Z M12.98,11.045 L2.73,11.045 C2.178,11.045 1.73,10.597 1.73,10.045 L2.73,5.139 C2.73,4.587 3.178,4.139 3.73,4.139 L11.98,4.139 C12.533,4.139 12.98,4.587 12.98,5.139 L13.98,10.045 C13.98,10.598 13.533,11.045 12.98,11.045 Z" id="Shape" fill="#06B7BF" fill-rule="nonzero"></path>
                <path d="M9.855,7.827 C9.855,8.379 9.408,8.827 8.855,8.827 L6.855,8.827 C6.303,8.827 5.855,8.379 5.855,7.827 L5.855,6.858 C5.855,6.306 6.303,5.858 6.855,5.858 L8.855,5.858 C9.408,5.858 9.855,6.306 9.855,6.858 L9.855,7.827 Z" id="Path" fill="#06B7BF"></path>
                <g id="Group" transform="translate(0.000000, 2.000000)">
                    <g id="Clipped">
                        <mask id="mask-2" fill="white">
                            <use xlink:href="#path-1"></use>
                        </mask>
                        <g id="SVGID_111_"></g>
                        <path d="M7.855,0.142 L7.855,10.327" id="Path" stroke="#076E73" stroke-width="0.8173" mask="url(#mask-2)"></path>
                    </g>
                    <g id="Clipped">
                        <mask id="mask-4" fill="white">
                            <use xlink:href="#path-3"></use>
                        </mask>
                        <g id="SVGID_111_"></g>
                        <path d="M10.904,0.142 L10.904,10.327" id="Path" stroke="#076E73" stroke-width="0.4086" mask="url(#mask-4)"></path>
                    </g>
                    <g id="Clipped">
                        <mask id="mask-6" fill="white">
                            <use xlink:href="#path-5"></use>
                        </mask>
                        <g id="SVGID_111_"></g>
                        <path d="M4.904,0.142 L4.904,10.327" id="Path" stroke="#076E73" stroke-width="0.4086" mask="url(#mask-6)"></path>
                    </g>
                    <g id="Clipped">
                        <mask id="mask-8" fill="white">
                            <use xlink:href="#path-7"></use>
                        </mask>
                        <g id="SVGID_111_"></g>
                        <path d="M15.355,11.181 C15.355,11.733 14.908,12.181 14.355,12.181 L1.355,12.181 C0.803,12.181 0.355,11.733 0.355,11.181 C0.355,10.629 0.803,10.181 1.355,10.181 L14.355,10.181 C14.908,10.181 15.355,10.628 15.355,11.181 Z" id="Path" fill="#076E73" mask="url(#mask-8)"></path>
                    </g>
                    <g id="Clipped">
                        <mask id="mask-10" fill="white">
                            <use xlink:href="#path-9"></use>
                        </mask>
                        <g id="SVGID_111_"></g>
                    </g>
                </g>
                <path d="M14.654,1.985 C14.654,2.725 14.054,3.325 13.314,3.325 L2.396,3.325 C1.656,3.325 1.056,2.725 1.056,1.985 C1.056,1.245 1.656,0.645 2.396,0.645 L13.314,0.645 C14.055,0.645 14.654,1.245 14.654,1.985 Z" id="Path" fill="#076E73"></path>
            </g>
            <g id="Cart_28_" transform="translate(73.000000, 186.000000)">
                <path d="M13.55,3.512 C13.55,2.683 12.879,2.012 12.05,2.012 L4.05,2.012 C3.221,2.012 2.55,2.683 2.55,3.512 L0.55,9.317 L2.55,15.122 C2.55,15.951 3.221,16.622 4.05,16.622 L12.05,16.622 C12.879,16.622 13.55,15.951 13.55,15.122 L15.55,9.317 L13.55,3.512 Z M13.175,10.962 L2.925,10.962 C2.373,10.962 1.925,10.514 1.925,9.962 L2.925,5.056 C2.925,4.504 3.373,4.056 3.925,4.056 L12.175,4.056 C12.727,4.056 13.175,4.504 13.175,5.056 L14.175,9.962 C14.175,10.514 13.727,10.962 13.175,10.962 Z" id="Shape" fill="#06B7BF" fill-rule="nonzero"></path>
                <path d="M10.05,7.743 C10.05,8.295 9.602,8.743 9.05,8.743 L7.05,8.743 C6.498,8.743 6.05,8.295 6.05,7.743 L6.05,6.774 C6.05,6.222 6.498,5.774 7.05,5.774 L9.05,5.774 C9.602,5.774 10.05,6.222 10.05,6.774 L10.05,7.743 Z" id="Path" fill="#06B7BF"></path>
                <g id="Group" transform="translate(0.000000, 2.000000)">
                    <g id="Clipped">
                        <mask id="mask-12" fill="white">
                            <use xlink:href="#path-11"></use>
                        </mask>
                        <g id="SVGID_113_"></g>
                        <path d="M8.05,0.059 L8.05,10.243" id="Path" stroke="#076E73" stroke-width="0.8173" mask="url(#mask-12)"></path>
                    </g>
                    <g id="Clipped">
                        <mask id="mask-14" fill="white">
                            <use xlink:href="#path-13"></use>
                        </mask>
                        <g id="SVGID_113_"></g>
                        <path d="M11.098,0.059 L11.098,10.243" id="Path" stroke="#076E73" stroke-width="0.4086" mask="url(#mask-14)"></path>
                    </g>
                    <g id="Clipped">
                        <mask id="mask-16" fill="white">
                            <use xlink:href="#path-15"></use>
                        </mask>
                        <g id="SVGID_113_"></g>
                        <path d="M5.098,0.059 L5.098,10.243" id="Path" stroke="#076E73" stroke-width="0.4086" mask="url(#mask-16)"></path>
                    </g>
                    <g id="Clipped">
                        <mask id="mask-18" fill="white">
                            <use xlink:href="#path-17"></use>
                        </mask>
                        <g id="SVGID_113_"></g>
                        <path d="M15.55,11.097 C15.55,11.649 15.102,12.097 14.55,12.097 L1.55,12.097 C0.998,12.097 0.55,11.649 0.55,11.097 C0.55,10.545 0.998,10.097 1.55,10.097 L14.55,10.097 C15.102,10.097 15.55,10.545 15.55,11.097 Z" id="Path" fill="#076E73" mask="url(#mask-18)"></path>
                    </g>
                    <g id="Clipped">
                        <mask id="mask-20" fill="white">
                            <use xlink:href="#path-19"></use>
                        </mask>
                        <g id="SVGID_113_"></g>
                    </g>
                </g>
                <path d="M14.849,1.901 C14.849,2.641 14.248,3.241 13.509,3.241 L2.591,3.241 C1.851,3.241 1.251,2.641 1.251,1.901 C1.251,1.161 1.851,0.561 2.591,0.561 L13.509,0.561 C14.248,0.562 14.849,1.161 14.849,1.901 Z" id="Path" fill="#076E73"></path>
            </g>
            <g id="Cart_27_" transform="translate(136.000000, 229.000000)">
                <path d="M13.654,3.756 C13.654,2.927 12.983,2.256 12.154,2.256 L4.154,2.256 C3.325,2.256 2.654,2.927 2.654,3.756 L0.654,9.561 L2.654,15.366 C2.654,16.195 3.325,16.866 4.154,16.866 L12.154,16.866 C12.983,16.866 13.654,16.195 13.654,15.366 L15.654,9.561 L13.654,3.756 Z M13.279,11.206 L3.029,11.206 C2.477,11.206 2.029,10.758 2.029,10.206 L3.029,5.3 C3.029,4.748 3.477,4.3 4.029,4.3 L12.279,4.3 C12.831,4.3 13.279,4.748 13.279,5.3 L14.279,10.206 C14.279,10.758 13.831,11.206 13.279,11.206 Z" id="Shape" fill="#06B7BF" fill-rule="nonzero"></path>
                <path d="M10.154,7.987 C10.154,8.539 9.706,8.987 9.154,8.987 L7.154,8.987 C6.602,8.987 6.154,8.539 6.154,7.987 L6.154,7.018 C6.154,6.466 6.602,6.018 7.154,6.018 L9.154,6.018 C9.706,6.018 10.154,6.466 10.154,7.018 L10.154,7.987 Z" id="Path" fill="#06B7BF"></path>
                <g id="Group" transform="translate(0.000000, 2.000000)">
                    <g id="Clipped">
                        <mask id="mask-22" fill="white">
                            <use xlink:href="#path-21"></use>
                        </mask>
                        <g id="SVGID_115_"></g>
                        <path d="M8.154,0.302 L8.154,10.487" id="Path" stroke="#076E73" stroke-width="0.8173" mask="url(#mask-22)"></path>
                    </g>
                    <g id="Clipped">
                        <mask id="mask-24" fill="white">
                            <use xlink:href="#path-23"></use>
                        </mask>
                        <g id="SVGID_115_"></g>
                        <path d="M11.202,0.302 L11.202,10.487" id="Path" stroke="#076E73" stroke-width="0.4086" mask="url(#mask-24)"></path>
                    </g>
                    <g id="Clipped">
                        <mask id="mask-26" fill="white">
                            <use xlink:href="#path-25"></use>
                        </mask>
                        <g id="SVGID_115_"></g>
                        <path d="M5.202,0.302 L5.202,10.487" id="Path" stroke="#076E73" stroke-width="0.4086" mask="url(#mask-26)"></path>
                    </g>
                    <g id="Clipped">
                        <mask id="mask-28" fill="white">
                            <use xlink:href="#path-27"></use>
                        </mask>
                        <g id="SVGID_115_"></g>
                        <path d="M15.654,11.341 C15.654,11.893 15.206,12.341 14.654,12.341 L1.654,12.341 C1.102,12.341 0.654,11.893 0.654,11.341 C0.654,10.789 1.102,10.341 1.654,10.341 L14.654,10.341 C15.206,10.341 15.654,10.789 15.654,11.341 Z" id="Path" fill="#076E73" mask="url(#mask-28)"></path>
                    </g>
                    <g id="Clipped">
                        <mask id="mask-30" fill="white">
                            <use xlink:href="#path-29"></use>
                        </mask>
                        <g id="SVGID_115_"></g>
                    </g>
                </g>
                <path d="M14.953,2.145 C14.953,2.885 14.352,3.485 13.613,3.485 L2.695,3.485 C1.955,3.485 1.355,2.885 1.355,2.145 C1.355,1.405 1.955,0.805 2.695,0.805 L13.613,0.805 C14.353,0.805 14.953,1.405 14.953,2.145 Z" id="Path" fill="#076E73"></path>
            </g>
            <g id="Cart_26_" transform="translate(188.000000, 168.000000)">
                <path d="M13.1,3.271 C13.1,2.442 12.429,1.771 11.6,1.771 L3.6,1.771 C2.771,1.771 2.1,2.442 2.1,3.271 L0.1,9.076 L2.1,14.881 C2.1,15.71 2.771,16.381 3.6,16.381 L11.6,16.381 C12.429,16.381 13.1,15.71 13.1,14.881 L15.1,9.076 L13.1,3.271 Z M12.725,10.72 L2.475,10.72 C1.923,10.72 1.475,10.272 1.475,9.72 L2.475,4.814 C2.475,4.262 2.923,3.814 3.475,3.814 L11.725,3.814 C12.277,3.814 12.725,4.262 12.725,4.814 L13.725,9.72 C13.725,10.272 13.276,10.72 12.725,10.72 Z" id="Shape" fill="#06B7BF" fill-rule="nonzero"></path>
                <path d="M9.6,7.501 C9.6,8.053 9.152,8.501 8.6,8.501 L6.6,8.501 C6.048,8.501 5.6,8.053 5.6,7.501 L5.6,6.532 C5.6,5.98 6.048,5.532 6.6,5.532 L8.6,5.532 C9.152,5.532 9.6,5.98 9.6,6.532 L9.6,7.501 Z" id="Path" fill="#06B7BF"></path>
                <g id="Group" transform="translate(0.000000, 1.000000)">
                    <g id="Clipped">
                        <mask id="mask-32" fill="white">
                            <use xlink:href="#path-31"></use>
                        </mask>
                        <g id="SVGID_117_"></g>
                        <path d="M7.6,0.817 L7.6,11.001" id="Path" stroke="#076E73" stroke-width="0.8173" mask="url(#mask-32)"></path>
                    </g>
                    <g id="Clipped">
                        <mask id="mask-34" fill="white">
                            <use xlink:href="#path-33"></use>
                        </mask>
                        <g id="SVGID_117_"></g>
                        <path d="M10.647,0.817 L10.647,11.001" id="Path" stroke="#076E73" stroke-width="0.4086" mask="url(#mask-34)"></path>
                    </g>
                    <g id="Clipped">
                        <mask id="mask-36" fill="white">
                            <use xlink:href="#path-35"></use>
                        </mask>
                        <g id="SVGID_117_"></g>
                        <path d="M4.647,0.817 L4.647,11.001" id="Path" stroke="#076E73" stroke-width="0.4086" mask="url(#mask-36)"></path>
                    </g>
                    <g id="Clipped">
                        <mask id="mask-38" fill="white">
                            <use xlink:href="#path-37"></use>
                        </mask>
                        <g id="SVGID_117_"></g>
                        <path d="M15.1,11.855 C15.1,12.407 14.652,12.855 14.1,12.855 L1.1,12.855 C0.548,12.855 0.1,12.407 0.1,11.855 C0.1,11.303 0.548,10.855 1.1,10.855 L14.1,10.855 C14.651,10.855 15.1,11.303 15.1,11.855 Z" id="Path" fill="#076E73" mask="url(#mask-38)"></path>
                    </g>
                    <g id="Clipped">
                        <mask id="mask-40" fill="white">
                            <use xlink:href="#path-39"></use>
                        </mask>
                        <g id="SVGID_117_"></g>
                    </g>
                </g>
                <path d="M14.398,1.66 C14.398,2.4 13.797,3 13.058,3 L2.14,3 C1.4,3 0.8,2.4 0.8,1.66 C0.8,0.92 1.4,0.32 2.14,0.32 L13.058,0.32 C13.798,0.32 14.398,0.919 14.398,1.66 Z" id="Path" fill="#076E73"></path>
            </g>
            <g id="Cart_25_" transform="translate(229.000000, 116.000000)">
                <path d="M13.098,3.082 C13.098,2.253 12.427,1.582 11.598,1.582 L3.598,1.582 C2.769,1.582 2.098,2.253 2.098,3.082 L0.098,8.887 L2.098,14.692 C2.098,15.521 2.769,16.192 3.598,16.192 L11.598,16.192 C12.427,16.192 13.098,15.521 13.098,14.692 L15.098,8.887 L13.098,3.082 Z M12.723,10.532 L2.473,10.532 C1.921,10.532 1.473,10.084 1.473,9.532 L2.473,4.626 C2.473,4.074 2.921,3.626 3.473,3.626 L11.723,3.626 C12.275,3.626 12.723,4.074 12.723,4.626 L13.723,9.532 C13.723,10.084 13.274,10.532 12.723,10.532 Z" id="Shape" fill="#06B7BF" fill-rule="nonzero"></path>
                <path d="M9.598,7.313 C9.598,7.865 9.15,8.313 8.598,8.313 L6.598,8.313 C6.046,8.313 5.598,7.865 5.598,7.313 L5.598,6.344 C5.598,5.792 6.046,5.344 6.598,5.344 L8.598,5.344 C9.15,5.344 9.598,5.792 9.598,6.344 L9.598,7.313 Z" id="Path" fill="#06B7BF"></path>
                <g id="Group" transform="translate(0.000000, 1.000000)">
                    <g id="Clipped">
                        <mask id="mask-42" fill="white">
                            <use xlink:href="#path-41"></use>
                        </mask>
                        <g id="SVGID_119_"></g>
                        <path d="M7.598,0.628 L7.598,10.813" id="Path" stroke="#076E73" stroke-width="0.8173" mask="url(#mask-42)"></path>
                    </g>
                    <g id="Clipped">
                        <mask id="mask-44" fill="white">
                            <use xlink:href="#path-43"></use>
                        </mask>
                        <g id="SVGID_119_"></g>
                        <path d="M10.646,0.628 L10.646,10.813" id="Path" stroke="#076E73" stroke-width="0.4086" mask="url(#mask-44)"></path>
                    </g>
                    <g id="Clipped">
                        <mask id="mask-46" fill="white">
                            <use xlink:href="#path-45"></use>
                        </mask>
                        <g id="SVGID_119_"></g>
                        <path d="M4.646,0.628 L4.646,10.813" id="Path" stroke="#076E73" stroke-width="0.4086" mask="url(#mask-46)"></path>
                    </g>
                    <g id="Clipped">
                        <mask id="mask-48" fill="white">
                            <use xlink:href="#path-47"></use>
                        </mask>
                        <g id="SVGID_119_"></g>
                        <path d="M15.098,11.667 C15.098,12.219 14.65,12.667 14.098,12.667 L1.098,12.667 C0.546,12.667 0.098,12.219 0.098,11.667 C0.098,11.115 0.546,10.667 1.098,10.667 L14.098,10.667 C14.649,10.667 15.098,11.115 15.098,11.667 Z" id="Path" fill="#076E73" mask="url(#mask-48)"></path>
                    </g>
                    <g id="Clipped">
                        <mask id="mask-50" fill="white">
                            <use xlink:href="#path-49"></use>
                        </mask>
                        <g id="SVGID_119_"></g>
                    </g>
                </g>
                <path d="M14.396,1.471 C14.396,2.211 13.795,2.811 13.056,2.811 L2.138,2.811 C1.398,2.811 0.798,2.211 0.798,1.471 C0.798,0.731 1.398,0.131 2.138,0.131 L13.056,0.131 C13.796,0.131 14.396,0.731 14.396,1.471 Z" id="Path" fill="#076E73"></path>
            </g>
            <g id="Cart_24_" transform="translate(196.000000, 82.000000)">
                <path d="M13.303,3.746 C13.303,2.917 12.632,2.246 11.803,2.246 L3.803,2.246 C2.974,2.246 2.303,2.917 2.303,3.746 L0.303,9.551 L2.303,15.356 C2.303,16.185 2.974,16.856 3.803,16.856 L11.803,16.856 C12.632,16.856 13.303,16.185 13.303,15.356 L15.303,9.551 L13.303,3.746 Z M12.928,11.195 L2.678,11.195 C2.126,11.195 1.678,10.747 1.678,10.195 L2.678,5.289 C2.678,4.737 3.126,4.289 3.678,4.289 L11.928,4.289 C12.48,4.289 12.928,4.737 12.928,5.289 L13.928,10.195 C13.928,10.748 13.479,11.195 12.928,11.195 Z" id="Shape" fill="#06B7BF" fill-rule="nonzero"></path>
                <path d="M9.803,7.977 C9.803,8.529 9.355,8.977 8.803,8.977 L6.803,8.977 C6.251,8.977 5.803,8.529 5.803,7.977 L5.803,7.008 C5.803,6.456 6.251,6.008 6.803,6.008 L8.803,6.008 C9.355,6.008 9.803,6.456 9.803,7.008 L9.803,7.977 Z" id="Path" fill="#06B7BF"></path>
                <g id="Group" transform="translate(0.000000, 2.000000)">
                    <g id="Clipped">
                        <mask id="mask-52" fill="white">
                            <use xlink:href="#path-51"></use>
                        </mask>
                        <g id="SVGID_121_"></g>
                        <path d="M7.803,0.292 L7.803,10.477" id="Path" stroke="#076E73" stroke-width="0.8173" mask="url(#mask-52)"></path>
                    </g>
                    <g id="Clipped">
                        <mask id="mask-54" fill="white">
                            <use xlink:href="#path-53"></use>
                        </mask>
                        <g id="SVGID_121_"></g>
                        <path d="M10.851,0.292 L10.851,10.477" id="Path" stroke="#076E73" stroke-width="0.4086" mask="url(#mask-54)"></path>
                    </g>
                    <g id="Clipped">
                        <mask id="mask-56" fill="white">
                            <use xlink:href="#path-55"></use>
                        </mask>
                        <g id="SVGID_121_"></g>
                        <path d="M4.851,0.292 L4.851,10.477" id="Path" stroke="#076E73" stroke-width="0.4086" mask="url(#mask-56)"></path>
                    </g>
                    <g id="Clipped">
                        <mask id="mask-58" fill="white">
                            <use xlink:href="#path-57"></use>
                        </mask>
                        <g id="SVGID_121_"></g>
                        <path d="M15.303,11.331 C15.303,11.883 14.855,12.331 14.303,12.331 L1.303,12.331 C0.751,12.331 0.303,11.883 0.303,11.331 C0.303,10.779 0.751,10.331 1.303,10.331 L14.303,10.331 C14.854,10.331 15.303,10.778 15.303,11.331 Z" id="Path" fill="#076E73" mask="url(#mask-58)"></path>
                    </g>
                    <g id="Clipped">
                        <mask id="mask-60" fill="white">
                            <use xlink:href="#path-59"></use>
                        </mask>
                        <g id="SVGID_121_"></g>
                    </g>
                </g>
                <path d="M14.602,2.135 C14.602,2.875 14.001,3.475 13.262,3.475 L2.344,3.475 C1.604,3.475 1.004,2.875 1.004,2.135 C1.004,1.395 1.604,0.795 2.344,0.795 L13.262,0.795 C14.001,0.795 14.602,1.395 14.602,2.135 Z" id="Path" fill="#076E73"></path>
            </g>
            <g id="Cart_23_" transform="translate(172.000000, 19.000000)">
                <path d="M13.611,3.937 C13.611,3.108 12.94,2.437 12.111,2.437 L4.111,2.437 C3.282,2.437 2.611,3.108 2.611,3.937 L0.611,9.742 L2.611,15.547 C2.611,16.376 3.282,17.047 4.111,17.047 L12.111,17.047 C12.94,17.047 13.611,16.376 13.611,15.547 L15.611,9.742 L13.611,3.937 Z M13.236,11.386 L2.986,11.386 C2.434,11.386 1.986,10.938 1.986,10.386 L2.986,5.48 C2.986,4.928 3.434,4.48 3.986,4.48 L12.236,4.48 C12.788,4.48 13.236,4.928 13.236,5.48 L14.236,10.386 C14.236,10.938 13.788,11.386 13.236,11.386 Z" id="Shape" fill="#06B7BF" fill-rule="nonzero"></path>
                <path d="M10.111,8.167 C10.111,8.719 9.663,9.167 9.111,9.167 L7.111,9.167 C6.559,9.167 6.111,8.719 6.111,8.167 L6.111,7.198 C6.111,6.646 6.559,6.198 7.111,6.198 L9.111,6.198 C9.663,6.198 10.111,6.646 10.111,7.198 L10.111,8.167 Z" id="Path" fill="#06B7BF"></path>
                <g id="Group" transform="translate(0.000000, 2.000000)">
                    <g id="Clipped">
                        <mask id="mask-62" fill="white">
                            <use xlink:href="#path-61"></use>
                        </mask>
                        <g id="SVGID_123_"></g>
                        <path d="M8.111,0.483 L8.111,10.667" id="Path" stroke="#076E73" stroke-width="0.8173" mask="url(#mask-62)"></path>
                    </g>
                    <g id="Clipped">
                        <mask id="mask-64" fill="white">
                            <use xlink:href="#path-63"></use>
                        </mask>
                        <g id="SVGID_123_"></g>
                        <path d="M11.159,0.483 L11.159,10.667" id="Path" stroke="#076E73" stroke-width="0.4086" mask="url(#mask-64)"></path>
                    </g>
                    <g id="Clipped">
                        <mask id="mask-66" fill="white">
                            <use xlink:href="#path-65"></use>
                        </mask>
                        <g id="SVGID_123_"></g>
                        <path d="M5.159,0.483 L5.159,10.667" id="Path" stroke="#076E73" stroke-width="0.4086" mask="url(#mask-66)"></path>
                    </g>
                    <g id="Clipped">
                        <mask id="mask-68" fill="white">
                            <use xlink:href="#path-67"></use>
                        </mask>
                        <g id="SVGID_123_"></g>
                        <path d="M15.611,11.521 C15.611,12.073 15.163,12.521 14.611,12.521 L1.611,12.521 C1.059,12.521 0.611,12.073 0.611,11.521 C0.611,10.969 1.059,10.521 1.611,10.521 L14.611,10.521 C15.163,10.521 15.611,10.969 15.611,11.521 Z" id="Path" fill="#076E73" mask="url(#mask-68)"></path>
                    </g>
                    <g id="Clipped">
                        <mask id="mask-70" fill="white">
                            <use xlink:href="#path-69"></use>
                        </mask>
                        <g id="SVGID_123_"></g>
                    </g>
                </g>
                <path d="M14.91,2.326 C14.91,3.066 14.309,3.666 13.57,3.666 L2.652,3.666 C1.912,3.666 1.312,3.066 1.312,2.326 C1.312,1.586 1.912,0.986 2.652,0.986 L13.57,0.986 C14.31,0.986 14.91,1.585 14.91,2.326 Z" id="Path" fill="#076E73"></path>
            </g>
            <g id="Cart_22_" transform="translate(105.000000, 36.000000)">
                <path d="M13.942,3.702 C13.942,2.873 13.271,2.202 12.442,2.202 L4.442,2.202 C3.613,2.202 2.942,2.873 2.942,3.702 L0.942,9.507 L2.942,15.312 C2.942,16.141 3.613,16.812 4.442,16.812 L12.442,16.812 C13.271,16.812 13.942,16.141 13.942,15.312 L15.942,9.507 L13.942,3.702 Z M13.567,11.151 L3.317,11.151 C2.765,11.151 2.317,10.703 2.317,10.151 L3.317,5.245 C3.317,4.693 3.765,4.245 4.317,4.245 L12.567,4.245 C13.119,4.245 13.567,4.693 13.567,5.245 L14.567,10.151 C14.567,10.704 14.119,11.151 13.567,11.151 Z" id="Shape" fill="#06B7BF" fill-rule="nonzero"></path>
                <path d="M10.442,7.933 C10.442,8.485 9.994,8.933 9.442,8.933 L7.442,8.933 C6.89,8.933 6.442,8.485 6.442,7.933 L6.442,6.964 C6.442,6.412 6.89,5.964 7.442,5.964 L9.442,5.964 C9.994,5.964 10.442,6.412 10.442,6.964 L10.442,7.933 Z" id="Path" fill="#06B7BF"></path>
                <g id="Group" transform="translate(0.000000, 2.000000)">
                    <g id="Clipped">
                        <mask id="mask-72" fill="white">
                            <use xlink:href="#path-71"></use>
                        </mask>
                        <g id="SVGID_125_"></g>
                        <path d="M8.442,0.248 L8.442,10.433" id="Path" stroke="#076E73" stroke-width="0.8173" mask="url(#mask-72)"></path>
                    </g>
                    <g id="Clipped">
                        <mask id="mask-74" fill="white">
                            <use xlink:href="#path-73"></use>
                        </mask>
                        <g id="SVGID_125_"></g>
                        <path d="M11.49,0.248 L11.49,10.433" id="Path" stroke="#076E73" stroke-width="0.4086" mask="url(#mask-74)"></path>
                    </g>
                    <g id="Clipped">
                        <mask id="mask-76" fill="white">
                            <use xlink:href="#path-75"></use>
                        </mask>
                        <g id="SVGID_125_"></g>
                        <path d="M5.49,0.248 L5.49,10.433" id="Path" stroke="#076E73" stroke-width="0.4086" mask="url(#mask-76)"></path>
                    </g>
                    <g id="Clipped">
                        <mask id="mask-78" fill="white">
                            <use xlink:href="#path-77"></use>
                        </mask>
                        <g id="SVGID_125_"></g>
                        <path d="M15.942,11.287 C15.942,11.839 15.494,12.287 14.942,12.287 L1.942,12.287 C1.39,12.287 0.942,11.839 0.942,11.287 C0.942,10.735 1.39,10.287 1.942,10.287 L14.942,10.287 C15.494,10.287 15.942,10.734 15.942,11.287 Z" id="Path" fill="#076E73" mask="url(#mask-78)"></path>
                    </g>
                    <g id="Clipped">
                        <mask id="mask-80" fill="white">
                            <use xlink:href="#path-79"></use>
                        </mask>
                        <g id="SVGID_125_"></g>
                    </g>
                </g>
                <path d="M15.241,2.091 C15.241,2.831 14.64,3.431 13.901,3.431 L2.983,3.431 C2.243,3.431 1.643,2.831 1.643,2.091 C1.643,1.351 2.243,0.751 2.983,0.751 L13.901,0.751 C14.641,0.751 15.241,1.351 15.241,2.091 Z" id="Path" fill="#076E73"></path>
            </g>
            <g id="Cart_21_" transform="translate(39.000000, 41.000000)">
                <path d="M13.943,3.915 C13.943,3.086 13.272,2.415 12.443,2.415 L4.443,2.415 C3.614,2.415 2.943,3.086 2.943,3.915 L0.943,9.72 L2.943,15.525 C2.943,16.354 3.614,17.025 4.443,17.025 L12.443,17.025 C13.272,17.025 13.943,16.354 13.943,15.525 L15.943,9.72 L13.943,3.915 Z M13.568,11.364 L3.318,11.364 C2.766,11.364 2.318,10.916 2.318,10.364 L3.318,5.458 C3.318,4.906 3.766,4.458 4.318,4.458 L12.568,4.458 C13.12,4.458 13.568,4.906 13.568,5.458 L14.568,10.364 C14.568,10.917 14.12,11.364 13.568,11.364 Z" id="Shape" fill="#06B7BF" fill-rule="nonzero"></path>
                <path d="M10.443,8.146 C10.443,8.698 9.995,9.146 9.443,9.146 L7.443,9.146 C6.891,9.146 6.443,8.698 6.443,8.146 L6.443,7.177 C6.443,6.625 6.891,6.177 7.443,6.177 L9.443,6.177 C9.995,6.177 10.443,6.625 10.443,7.177 L10.443,8.146 Z" id="Path" fill="#06B7BF"></path>
                <g id="Group" transform="translate(0.000000, 2.000000)">
                    <g id="Clipped">
                        <mask id="mask-82" fill="white">
                            <use xlink:href="#path-81"></use>
                        </mask>
                        <g id="SVGID_127_"></g>
                        <path d="M8.443,0.461 L8.443,10.646" id="Path" stroke="#076E73" stroke-width="0.8173" mask="url(#mask-82)"></path>
                    </g>
                    <g id="Clipped">
                        <mask id="mask-84" fill="white">
                            <use xlink:href="#path-83"></use>
                        </mask>
                        <g id="SVGID_127_"></g>
                        <path d="M11.491,0.461 L11.491,10.646" id="Path" stroke="#076E73" stroke-width="0.4086" mask="url(#mask-84)"></path>
                    </g>
                    <g id="Clipped">
                        <mask id="mask-86" fill="white">
                            <use xlink:href="#path-85"></use>
                        </mask>
                        <g id="SVGID_127_"></g>
                        <path d="M5.491,0.461 L5.491,10.646" id="Path" stroke="#076E73" stroke-width="0.4086" mask="url(#mask-86)"></path>
                    </g>
                    <g id="Clipped">
                        <mask id="mask-88" fill="white">
                            <use xlink:href="#path-87"></use>
                        </mask>
                        <g id="SVGID_127_"></g>
                        <path d="M15.943,11.5 C15.943,12.052 15.495,12.5 14.943,12.5 L1.943,12.5 C1.391,12.5 0.943,12.052 0.943,11.5 C0.943,10.948 1.391,10.5 1.943,10.5 L14.943,10.5 C15.495,10.5 15.943,10.947 15.943,11.5 Z" id="Path" fill="#076E73" mask="url(#mask-88)"></path>
                    </g>
                    <g id="Clipped">
                        <mask id="mask-90" fill="white">
                            <use xlink:href="#path-89"></use>
                        </mask>
                        <g id="SVGID_127_"></g>
                    </g>
                </g>
                <path d="M15.242,2.304 C15.242,3.044 14.641,3.644 13.902,3.644 L2.984,3.644 C2.244,3.644 1.644,3.044 1.644,2.304 C1.644,1.564 2.244,0.964 2.984,0.964 L13.902,0.964 C14.642,0.964 15.242,1.563 15.242,2.304 Z" id="Path" fill="#076E73"></path>
            </g>
            <g id="Cart_20_" transform="translate(47.000000, 97.000000)">
                <path d="M13.443,3.032 C13.443,2.203 12.772,1.532 11.943,1.532 L3.943,1.532 C3.114,1.532 2.443,2.203 2.443,3.032 L0.443,8.837 L2.443,14.642 C2.443,15.471 3.114,16.142 3.943,16.142 L11.943,16.142 C12.772,16.142 13.443,15.471 13.443,14.642 L15.443,8.837 L13.443,3.032 Z M13.068,10.481 L2.818,10.481 C2.266,10.481 1.818,10.033 1.818,9.481 L2.818,4.575 C2.818,4.023 3.266,3.575 3.818,3.575 L12.068,3.575 C12.62,3.575 13.068,4.023 13.068,4.575 L14.068,9.481 C14.068,10.034 13.62,10.481 13.068,10.481 Z" id="Shape" fill="#06B7BF" fill-rule="nonzero"></path>
                <path d="M9.943,7.263 C9.943,7.815 9.495,8.263 8.943,8.263 L6.943,8.263 C6.391,8.263 5.943,7.815 5.943,7.263 L5.943,6.294 C5.943,5.742 6.391,5.294 6.943,5.294 L8.943,5.294 C9.495,5.294 9.943,5.742 9.943,6.294 L9.943,7.263 Z" id="Path" fill="#06B7BF"></path>
                <g id="Group" transform="translate(0.000000, 1.000000)">
                    <g id="Clipped">
                        <mask id="mask-92" fill="white">
                            <use xlink:href="#path-91"></use>
                        </mask>
                        <g id="SVGID_129_"></g>
                        <path d="M7.943,0.578 L7.943,10.763" id="Path" stroke="#076E73" stroke-width="0.8173" mask="url(#mask-92)"></path>
                    </g>
                    <g id="Clipped">
                        <mask id="mask-94" fill="white">
                            <use xlink:href="#path-93"></use>
                        </mask>
                        <g id="SVGID_129_"></g>
                        <path d="M10.991,0.578 L10.991,10.763" id="Path" stroke="#076E73" stroke-width="0.4086" mask="url(#mask-94)"></path>
                    </g>
                    <g id="Clipped">
                        <mask id="mask-96" fill="white">
                            <use xlink:href="#path-95"></use>
                        </mask>
                        <g id="SVGID_129_"></g>
                        <path d="M4.991,0.578 L4.991,10.763" id="Path" stroke="#076E73" stroke-width="0.4086" mask="url(#mask-96)"></path>
                    </g>
                    <g id="Clipped">
                        <mask id="mask-98" fill="white">
                            <use xlink:href="#path-97"></use>
                        </mask>
                        <g id="SVGID_129_"></g>
                        <path d="M15.443,11.617 C15.443,12.169 14.995,12.617 14.443,12.617 L1.443,12.617 C0.891,12.617 0.443,12.169 0.443,11.617 C0.443,11.065 0.891,10.617 1.443,10.617 L14.443,10.617 C14.995,10.617 15.443,11.064 15.443,11.617 Z" id="Path" fill="#076E73" mask="url(#mask-98)"></path>
                    </g>
                    <g id="Clipped">
                        <mask id="mask-100" fill="white">
                            <use xlink:href="#path-99"></use>
                        </mask>
                        <g id="SVGID_129_"></g>
                    </g>
                </g>
                <path d="M14.742,1.421 C14.742,2.161 14.141,2.761 13.402,2.761 L2.484,2.761 C1.744,2.761 1.144,2.161 1.144,1.421 C1.144,0.681 1.744,0.081 2.484,0.081 L13.402,0.081 C14.142,0.081 14.742,0.681 14.742,1.421 Z" id="Path" fill="#076E73"></path>
            </g>
            <circle id="Oval" stroke="#076E73" stroke-width="2" cx="126.654" cy="125.884" r="59.667"></circle>
            <circle id="Oval" stroke="#076E73" stroke-width="1.8911" cx="126.654" cy="125.884" r="125.287"></circle>
            <g id="Lines_2_" stroke="#076E73" stroke-width="2">
                <path d="M126.154,125.931 L134.759,0.851" id="Path"></path>
                <path d="M126.154,125.931 L108.376,1.822" id="Path"></path>
                <path d="M126.154,125.931 L82.782,8.296" id="Path"></path>
                <path d="M126.154,125.931 L59.111,19.986" id="Path"></path>
                <path d="M126.154,125.931 L38.413,36.374" id="Path"></path>
                <path d="M126.154,125.931 L21.605,56.732" id="Path"></path>
                <path d="M126.154,125.931 L9.434,80.159" id="Path"></path>
                <path d="M126.154,125.931 L2.437,105.615" id="Path"></path>
                <path d="M126.154,125.931 L0.925,131.972" id="Path"></path>
                <path d="M126.154,125.931 L4.967,158.061" id="Path"></path>
                <path d="M126.154,125.931 L14.382,182.725" id="Path"></path>
                <path d="M126.154,125.931 L28.753,204.871" id="Path"></path>
                <path d="M126.154,125.931 L47.443,223.517" id="Path"></path>
                <path d="M126.154,125.931 L69.624,237.835" id="Path"></path>
                <path d="M126.154,125.931 L94.311,247.192" id="Path"></path>
                <path d="M126.154,125.931 L120.409,251.171" id="Path"></path>
                <path d="M126.154,125.931 L146.763,249.598" id="Path"></path>
                <path d="M126.154,125.931 L172.202,242.541" id="Path"></path>
                <path d="M126.154,125.931 L195.6,230.312" id="Path"></path>
                <path d="M126.154,125.931 L215.918,213.456" id="Path"></path>
                <path d="M126.154,125.931 L232.256,192.719" id="Path"></path>
                <path d="M126.154,125.931 L243.89,169.02" id="Path"></path>
                <path d="M126.154,125.931 L250.303,143.411" id="Path"></path>
                <path d="M126.154,125.931 L251.211,117.026" id="Path"></path>
                <path d="M126.154,125.931 L246.574,91.036" id="Path"></path>
                <path d="M126.154,125.931 L236.598,66.593" id="Path"></path>
                <path d="M126.154,125.931 L221.724,44.782" id="Path"></path>
                <path d="M126.154,125.931 L202.612,26.568" id="Path"></path>
                <path d="M126.154,125.931 L180.111,12.76" id="Path"></path>
                <path d="M126.154,125.931 L155.218,3.97" id="Path"></path>
            </g>
            <g id="Base_2_" transform="translate(39.000000, 143.000000)">
                <rect id="Rectangle" fill="#06B7BF" transform="translate(45.134414, 65.208579) rotate(-153.486197) translate(-45.134414, -65.208579) " x="41.415526" y="-5.448301" width="7.43777686" height="141.31376"></rect>
                <rect id="Rectangle" fill="#06B7BF" transform="translate(134.038562, 65.182811) rotate(-26.513803) translate(-134.038562, -65.182811) " x="130.319673" y="-5.474069" width="7.43777686" height="141.31376"></rect>
                <rect id="Rectangle" fill="#232563" x="0.488" y="123.931" width="26.666" height="6.158"></rect>
                <rect id="Rectangle" fill="#232563" x="151.469" y="123.931" width="26.667" height="6.158"></rect>
            </g>
            <g id="Points_Level_2_4_" transform="translate(23.000000, 39.000000)" fill="#232563">
                <polygon id="Path" points="106.772 68.033 88.414 74.309 81.387 23.762"></polygon>
                <polygon id="Path" points="99.286 68.076 84.713 80.881 46.563 22.769"></polygon>
                <polygon id="Path" points="92.384 70.971 83.798 88.369 43.16 57.498"></polygon>
                <polygon id="Path" points="87.106 76.282 85.809 95.639 0.202 80.177"></polygon>
                <polygon id="Path" points="84.255 83.205 90.442 101.591 39.861 108.373"></polygon>
                <polygon id="Path" points="84.262 90.69 96.997 105.326 43.756 138.788"></polygon>
                <polygon id="Path" points="87.124 97.608 104.479 106.277 73.41 146.764"></polygon>
                <polygon id="Path" points="92.408 102.912 111.759 104.301 96.276 184.295"></polygon>
                <polygon id="Path" points="99.317 105.795 117.734 99.697 124.27 150.312"></polygon>
                <polygon id="Path" points="106.804 105.827 121.5 93.163 153.459 145.121"></polygon>
                <polygon id="Path" points="113.736 102.997 122.49 85.685 162.821 116.952"></polygon>
                <polygon id="Path" points="119.067 97.737 120.55 78.395 198.58 94.125"></polygon>
                <polygon id="Path" points="121.984 90.842 115.975 72.397 166.62 66.112"></polygon>
                <polygon id="Path" points="122.051 83.354 109.458 68.598 166.782 32.454"></polygon>
                <polygon id="Path" points="119.255 76.41 101.984 67.573 133.45 27.396"></polygon>
                <polygon id="Path" points="114.021 71.056 94.686 69.478 110.077 0.315"></polygon>
            </g>
            <g id="Points_Level_1_4_" transform="translate(73.000000, 77.000000)" fill="#06B7BF">
                <polygon id="Path" points="57.748 37.977 42.738 40.065 44.852 0.259"></polygon>
                <polygon id="Path" points="52.001 36.898 38.924 44.556 25.688 6.955"></polygon>
                <polygon id="Path" points="46.277 38.094 37.111 50.162 10.53 20.456"></polygon>
                <polygon id="Path" points="41.442 41.384 37.574 56.036 1.67 38.719"></polygon>
                <polygon id="Path" points="38.229 46.269 40.244 61.288 0.448 58.98"></polygon>
                <polygon id="Path" points="37.122 52.011 44.716 65.125 7.05 78.176"></polygon>
                <polygon id="Path" points="38.29 57.741 50.312 66.965 20.477 93.4"></polygon>
                <polygon id="Path" points="41.556 62.591 56.188 66.53 38.696 102.35"></polygon>
                <polygon id="Path" points="46.426 65.829 61.454 63.887 58.952 103.671"></polygon>
                <polygon id="Path" points="52.162 66.964 65.312 59.435 78.18 97.163"></polygon>
                <polygon id="Path" points="57.898 65.824 67.181 53.847 93.469 83.812"></polygon>
                <polygon id="Path" points="62.766 62.581 66.775 47.969 102.508 65.637"></polygon>
                <polygon id="Path" points="66.027 57.727 64.157 42.69 103.928 45.388"></polygon>
                <polygon id="Path" points="67.189 51.995 59.724 38.81 97.515 26.129"></polygon>
                <polygon id="Path" points="66.076 46.254 54.145 36.914 84.238 10.774"></polygon>
                <polygon id="Path" points="62.857 41.372 48.265 37.291 66.107 1.646"></polygon>
            </g>
            <path d="M146.578982,82.0579592 C135.764369,83.058089 116.230279,87.8663207 106.739998,92.4372209 C98.0387699,96.627949 80.4618603,105.154209 74.2297351,113.354538 C67.9976098,121.554621 64.7457806,122.920933 64.7457806,131.667836 C64.7457806,140.414738 82.6297465,148.614821 94.2815872,152.71474 C105.933428,156.814659 124.769463,162.806603 150.169255,158.522856 C171.237166,154.969511 172.117946,152.782724 174.556636,149.63974 C178.368563,144.726464 173.252011,139.522598 167.714777,133.581213 C163.05735,128.584491 161.888735,125.790999 161.346642,122.51131 C160.804792,119.23162 170.443978,98.0273945 172.592156,94.7680756 C175.474885,90.3945017 178.011385,84.9962548 173.675856,81.6478446 C170.644708,79.3069272 150.256846,81.7177923 146.578982,82.0579592 Z" id="Path" fill="#FFCD34"></path>
        </g>
    </g>
</svg>